<?xml version="1.0" encoding="UTF-8"?>
<svg width="48px" height="48px" viewBox="0 0 48 48" version="1.1" xmlns="http://www.w3.org/2000/svg" xmlns:xlink="http://www.w3.org/1999/xlink">
    <g stroke="none" stroke-width="1" fill="none" fill-rule="evenodd">
        <path d="M15.3544641,21.8843754 C17.5808824,18.2861874 20.6336473,15.1305745 24.4408123,12.731769 C31.6593706,8.18352429 40.1141919,7.28585841 47.6810893,9.54427741 C46.3770577,17.3920611 41.8705592,24.6610195 34.6520008,29.2092642 C30.8448358,31.6080698 26.6937858,32.9914121 22.5104858,33.4318375 L15.3544641,21.8843754 Z" fill="#6d9dcd"></path>
        <path d="M16.4452491,20.2495639 L24.4458696,33.1599305 C23.8022773,33.2732495 23.1567661,33.3637961 22.5104852,33.4318377 L15.3544636,21.8843756 C15.6984245,21.328489 16.0621081,20.7831656 16.4452491,20.2495639 Z" fill="#458BD1"></path>
        <path d="M22.0020821,14.4499795 C19.9571595,16.0554115 18.1803787,17.8997867 16.6865109,19.9185908 C14.2335999,18.9050808 11.5018144,18.6436081 8.86516763,19.2212401 C9.78179195,18.0491554 10.9110021,17.0137475 12.2385379,16.1772983 C15.2670057,14.2691316 18.7659565,13.7502615 22.0020821,14.4499795 Z M32.0513774,30.6662324 C31.2564582,33.9058174 29.2601159,36.8494029 26.2316482,38.7575695 C24.9041123,39.5940188 23.4861718,40.1635109 22.0395937,40.4804248 C23.7103051,38.3440912 24.6747732,35.7536957 24.8466502,33.0863681 C27.3010121,32.617485 29.7239149,31.8157379 32.0513774,30.6662324 Z" fill="#3E79B5"></path>
        <path d="M29.8266873,20.7939179 C28.8923958,23.6350464 27.0072527,26.1767901 24.2931215,27.8869006 C21.5789904,29.5970112 18.4869741,30.1912591 15.5449224,29.7925238 C16.4792138,26.9513953 18.364357,24.4096515 21.0784881,22.699541 C23.7926193,20.9894305 26.8846356,20.3951826 29.8266873,20.7939179 Z" fill="#3E79B5"></path>
        <path d="M18.2627589,32.3001624 C18.4293358,32.5689626 18.3482682,32.9230308 18.0816895,33.0909958 L7.17123641,39.965417 C6.90465767,40.133382 6.55351567,40.0516389 6.38693878,39.7828387 C6.2203619,39.5140385 6.30142942,39.1599703 6.56800816,38.9920053 L17.4784612,32.1175841 C17.74504,31.9496191 18.096182,32.0313622 18.2627589,32.3001624 Z" fill="#FFFFFF"></path>
        <path d="M12.4003808,31.4822707 C12.5669577,31.7510709 12.4858902,32.1051391 12.2193115,32.2731041 L1.30885838,39.1475253 C1.04227964,39.3154903 0.691137632,39.2337472 0.52456075,38.964947 C0.357983867,38.6961468 0.439051388,38.3420786 0.705630125,38.1741136 L11.6160832,31.2996924 C11.882662,31.1317274 12.233804,31.2134705 12.4003808,31.4822707 Z" fill="#FFFFFF"></path>
        <path d="M14.2412374,25.8107503 C14.4078143,26.0795505 14.3267468,26.4336187 14.060168,26.6015837 L3.14971493,33.4760049 C2.88313619,33.6439699 2.53199418,33.5622268 2.3654173,33.2934266 C2.19884042,33.0246264 2.27990794,32.6705582 2.54648668,32.5025931 L13.4569398,25.628172 C13.7235185,25.460207 14.0746605,25.5419501 14.2412374,25.8107503 Z" fill="#FFFFFF"></path>
    </g>
</svg>