<svg xmlns="http://www.w3.org/2000/svg" width="180" height="115" viewBox="0 0 180 115">
    <g fill="none" fill-rule="evenodd">
        <path fill="#FFF" d="M60.192 93.051c-2.315 0-4.192-1.929-4.192-4.309V10.4c0-2.378 1.877-4.309 4.192-4.309h55.012c2.315 0 4.192 1.93 4.192 4.31v78.341c0 2.38-1.877 4.31-4.192 4.31H60.192z"/>
        <path fill="#627282" d="M60.696 76.374H114.7V10.856H60.696zM93.568 84.712c0 2.631-2.103 4.766-4.696 4.766-2.594 0-4.696-2.135-4.696-4.766 0-2.631 2.102-4.764 4.696-4.764 2.593 0 4.696 2.133 4.696 4.764"/>
        <g>
            <path fill="#F5F5F5" d="M74.388 25.755h35.838v-3.886H74.388zM74.388 34.548h35.838v-3.884H74.388zM74.388 43.341h35.838v-3.885H74.388zM74.388 52.133h35.838v-3.884H74.388z"/>
            <path fill="#FFF" d="M64.593 25.755h4.23v-3.886h-4.23zM64.593 34.548h4.23v-3.884h-4.23zM64.593 43.341h4.23v-3.885h-4.23zM64.593 52.133h4.23v-3.884h-4.23z"/>
            <path stroke="#8DC63F" stroke-width="1.996" d="M64.055 20.863l2.717 3.017 3.832-4.8"/>
        </g>
        <g>
            <path fill="#561D5B" d="M37.783 91.404l20.927 7.383-5.557 15.71H29.2z"/>
            <path fill="#7C7086" d="M37.783 91.404l20.927 7.383-2.232 6.31-20.928-7.382z"/>
            <path fill="#37363A" d="M38.834 95.376a1.408 1.408 0 0 1 2.655.937 1.407 1.407 0 0 1-2.655-.937"/>
            <path fill="#E7E6E2" d="M54.194 85.517l.33.24a3.503 3.503 0 0 0 4.888-.786l11.626-16.058a3.494 3.494 0 0 0-.785-4.882l-.331-.238a3.503 3.503 0 0 0-4.888.784L53.41 80.637a3.493 3.493 0 0 0 .785 4.88"/>
            <path fill="#E7E6E2" d="M60.869 70.33V58.073H59.81a.853.853 0 0 0-.62.263c-1.758 1.832-12.125 12.65-13.983 14.695-.2.221-.346.482-.43.768l-5.292 18.207 16.085 5.675s.259-1.204.517-2.58c.258-1.374 3.884-5.67 4.78-7.818.898-2.147 1.217-6.002 2.606-7.921 1.39-1.92-2.605-9.03-2.605-9.03"/>
        </g>
        <g>
            <g fill="#E7E6E2">
                <path d="M128.47 62.65c1.275-.343 2.547.28 2.844 1.389l5.722 21.355c.297 1.109-.493 2.284-1.769 2.626-1.273.34-2.546-.281-2.843-1.39l-5.722-21.356c-.297-1.109.494-2.284 1.767-2.625M122.606 60.08a2.384 2.384 0 0 1 2.923 1.683l7.42 27.69a2.384 2.384 0 0 1-1.69 2.919 2.385 2.385 0 0 1-2.924-1.684L120.915 63a2.384 2.384 0 0 1 1.691-2.92M116.74 57.51a2.388 2.388 0 0 1 2.925 1.684l8.892 33.188a2.385 2.385 0 0 1-1.69 2.919 2.384 2.384 0 0 1-2.923-1.683L115.05 60.43a2.387 2.387 0 0 1 1.69-2.921M110.876 54.94c1.275-.342 2.594.452 2.947 1.768l6.147 22.942c.354 1.319-.393 2.663-1.667 3.004-1.275.342-2.594-.449-2.947-1.767l-6.147-22.943c-.353-1.316.393-2.663 1.667-3.004"/>
                <path d="M136.83 90.89l-.666-2.484c-.182-.68 1.08-1.625 1.08-1.625l-8.288-19.164-13.882 3.72-.633 7.192s-.544.307-1.33-.29c-.786-.598-3.488-3.666-3.488-3.666s-3.455-3.552-5.413-2.22c-1.954 1.33-.23 3.813-.23 3.813s2.262 4.038 3.425 5.942c1.469 2.407 3.974 4.585 5.982 6.148 2.006 1.558 5.604 3.657 6.593 3.392l1.165 3.445 15.685-4.203z"/>
            </g>
            <path fill="#561D5B" d="M141.427 91.404L120.5 98.787l5.557 15.71h23.954z"/>
            <path fill="#7C7086" d="M140.478 88.404l-20.928 7.383 2.233 6.31 20.927-7.382z"/>
            <path fill="#37363A" d="M140.49 92.376a1.408 1.408 0 0 0-2.656.937 1.407 1.407 0 0 0 2.655-.937"/>
        </g>
    </g>
</svg>
