<svg xmlns="http://www.w3.org/2000/svg" width="180" height="115" viewBox="0 0 180 115">
    <g fill="none" fill-rule="evenodd">
        <path fill="#FFF" d="M60.192 93.051c-2.315 0-4.192-1.929-4.192-4.309V10.4c0-2.378 1.877-4.309 4.192-4.309h55.012c2.315 0 4.192 1.93 4.192 4.31v78.341c0 2.38-1.877 4.31-4.192 4.31H60.192z"/>
        <path fill="#627282" d="M60.696 76.374H114.7V10.856H60.696zM93.568 84.712c0 2.631-2.103 4.766-4.696 4.766-2.594 0-4.696-2.135-4.696-4.766 0-2.631 2.102-4.764 4.696-4.764 2.593 0 4.696 2.133 4.696 4.764"/>
        <g transform="translate(68 23)">
            <path fill="#E3B0A8" d="M3.077 5.833H40v20.042H3.077z"/>
            <path fill="#F1D8D4" d="M32.308 5.833h4.615v20.042h-4.615z"/>
            <path fill="#C2EAF7" d="M1.538 7.375h36.923v20.042H1.538z"/>
            <path fill="#E0F5FB" d="M30.77 7.375h4.614v20.042H30.77z"/>
            <path fill="#9BD0B0" d="M0 8.917h36.923v20.042H0z"/>
            <path fill="#CDE7D8" d="M29.231 8.917h4.615v20.042h-4.615z"/>
            <path fill="#117938" d="M4.615 18.065v-5.96h.93l3.6 4.68v-4.68h.87v5.96h-.93l-3.6-4.683v4.683h-.87zm6.648-2.902c0-.99.306-1.764.917-2.324.61-.56 1.4-.839 2.365-.839.633 0 1.203.131 1.711.394s.896.63 1.162 1.1c.267.47.4 1.003.4 1.6 0 .604-.14 1.144-.42 1.621-.281.477-.679.839-1.193 1.084a3.816 3.816 0 0 1-1.664.368c-.646 0-1.222-.136-1.73-.407a2.787 2.787 0 0 1-1.155-1.11 3.006 3.006 0 0 1-.393-1.487zm.935.012c0 .718.222 1.284.667 1.697.444.413 1 .62 1.67.62.683 0 1.245-.209 1.686-.626.441-.417.662-1.01.662-1.777 0-.485-.094-.908-.283-1.27a1.992 1.992 0 0 0-.828-.841 2.5 2.5 0 0 0-1.222-.3c-.642 0-1.195.193-1.657.576-.463.384-.695 1.024-.695 1.92zm6.751 2.89v-5.96h.907v2.956l3.404-2.955h1.23l-2.876 2.414 3.001 3.545H23.42l-2.44-3.016-1.123.951v2.065h-.907z"/>
            <ellipse cx="7.692" cy="30.5" fill="#FECB86" fill-rule="nonzero" rx="6.154" ry="6.167"/>
            <path fill="#F0F2F2" fill-rule="nonzero" d="M16.923 36.667a4.62 4.62 0 0 1-4.615-4.625 4.62 4.62 0 0 1 4.615-4.625 4.62 4.62 0 0 1 4.615 4.625 4.62 4.62 0 0 1-4.615 4.625zm0-3.084c.85 0 1.539-.69 1.539-1.541a1.54 1.54 0 0 0-1.539-1.542c-.85 0-1.538.69-1.538 1.542a1.54 1.54 0 0 0 1.538 1.541z"/>
        </g>
        <g>
            <g fill="#E7E6E2">
                <path d="M133.47 62.65c1.275-.343 2.547.28 2.844 1.389l5.722 21.355c.297 1.109-.493 2.284-1.769 2.626-1.273.34-2.546-.281-2.843-1.39l-5.722-21.356c-.297-1.109.494-2.284 1.767-2.625M127.606 60.08a2.384 2.384 0 0 1 2.923 1.683l7.42 27.69a2.384 2.384 0 0 1-1.69 2.919 2.385 2.385 0 0 1-2.924-1.684L125.915 63a2.384 2.384 0 0 1 1.691-2.92M121.74 57.51a2.388 2.388 0 0 1 2.925 1.684l8.892 33.188a2.385 2.385 0 0 1-1.69 2.919 2.384 2.384 0 0 1-2.923-1.683L120.05 60.43a2.387 2.387 0 0 1 1.69-2.921M115.876 54.94c1.275-.342 2.594.452 2.947 1.768l6.147 22.942c.354 1.319-.393 2.663-1.667 3.004-1.275.342-2.594-.449-2.947-1.767l-6.147-22.943c-.353-1.316.393-2.663 1.667-3.004"/>
                <path d="M141.83 90.89l-.666-2.484c-.182-.68 1.08-1.625 1.08-1.625l-8.288-19.164-13.882 3.72-.633 7.192s-.544.307-1.33-.29c-.786-.598-3.488-3.666-3.488-3.666s-3.455-3.552-5.413-2.22c-1.954 1.33-.23 3.813-.23 3.813s2.262 4.038 3.425 5.942c1.469 2.407 3.974 4.585 5.982 6.148 2.006 1.558 5.604 3.657 6.593 3.392l1.165 3.445 15.685-4.203z"/>
            </g>
            <path fill="#561D5B" d="M146.427 91.404L125.5 98.787l5.557 15.71h23.954z"/>
            <path fill="#7C7086" d="M145.478 88.404l-20.928 7.383 2.233 6.31 20.927-7.382z"/>
            <path fill="#37363A" d="M145.49 92.376a1.408 1.408 0 0 0-2.656.937 1.407 1.407 0 0 0 2.655-.937"/>
        </g>
        <g>
            <path fill="#561D5B" d="M32.783 91.404l20.927 7.383-5.557 15.71H24.2z"/>
            <path fill="#561D5B" d="M32.783 91.404l20.927 7.383-5.557 15.71H24.2z"/>
            <path fill="#7C7086" d="M32.783 91.404l20.927 7.383-2.232 6.31-20.928-7.382z"/>
            <path fill="#37363A" d="M33.834 95.376a1.408 1.408 0 0 1 2.655.937 1.407 1.407 0 0 1-2.655-.937"/>
            <path fill="#E7E6E2" d="M49.194 85.517l.33.24a3.503 3.503 0 0 0 4.888-.786l11.626-16.058a3.494 3.494 0 0 0-.785-4.882l-.331-.238a3.503 3.503 0 0 0-4.888.784L48.41 80.637a3.493 3.493 0 0 0 .785 4.88"/>
            <path fill="#E7E6E2" d="M55.869 70.33V58.073H54.81a.853.853 0 0 0-.62.263c-1.758 1.832-12.125 12.65-13.983 14.695-.2.221-.346.482-.43.768l-5.292 18.207 16.085 5.675s.259-1.204.517-2.58c.258-1.374 3.884-5.67 4.78-7.818.898-2.147 1.217-6.002 2.606-7.921 1.39-1.92-2.605-9.03-2.605-9.03"/>
        </g>
    </g>
</svg>
