<svg width="394" height="159" xmlns="http://www.w3.org/2000/svg" xmlns:xlink="http://www.w3.org/1999/xlink">
  <title>
    Group 3
  </title>
  <defs>
    <path id="a" d="M0 .311h397v164H0z"/>
    <path d="M32 19.13C39.47 9.308 43.408 3.058 43.816.382c3.392.913 8.45 3.457 12.654 7.643C60.659 12.198 64 18.473 64 23.342V52.61H0V23.342c0-4.86 3.27-11.124 7.384-15.291 4.22-4.276 9.326-6.845 12.698-7.716l.091-.024c.348 2.636 4.29 8.909 11.827 18.82z" id="c"/>
    <path d="M54.792 47.483c.26.146.552.228.862.228 1.061 0 1.92-.955 1.92-2.137v-8.62c0-1.012-.629-1.858-1.475-2.08-.33-4.828-5.024-5.331-7.423-5.27-.833.021-36.722.111-37.161.111 0 0-6.032-.936-6.43 5.236-.728.303-1.247 1.084-1.247 2.002v8.621c0 1.182.86 2.137 1.92 2.137.234 0 .459-.047.666-.133C8.567 55.016 12.99 61.162 18.68 64.79l.02.044-.003.09c-4.876.458-8.987 1.097-11.401 1.781 0 0-8.056-11.206-7.238-32.04 0 0 2.897-35.005 30.476-34.663C58.11.346 60.578 29.715 60.578 29.715c2.137 9.05.11 25.237-5.429 37.338-2.83-1.307-7.237-2.092-12.288-2.493 5.545-3.67 9.843-9.751 11.931-17.077z" id="e"/>
    <path d="M21.41.335l-.003-.109c0 6.078 5.638 12.383 12.593 12.383 6.883 0 12.477-6.176 12.59-12.196 3.603.97 8.957 3.65 13.409 8.05C64.45 12.863 68 19.481 68 24.616v30.862H0V24.616C0 19.49 3.475 12.885 7.845 8.49 12.36 3.95 17.828 1.235 21.41.335z" id="g"/>
    <path id="i" d="M45.845 15.44l.16 2.485 2.363 2.743.36 1.855.3 2.49 1.434 1.953-.162 2.124.146 2.497 1.805 2.414v2.11l2.083 2.346.591-2.309-.26-2.22-.355-2.128.615-2.267-.834-2.268.909-2.361-.336-2.09-.364-2.21.364-2.462-.573-1.51-1.111-2.515-.442-2.29-2.076-1.835-.284-1.978-1.81-2.146L45 5.158 43.345 3.59l-2.246-1.01-2.279-1.454-2.577.401-2.224-.545-2.16-.79-2.268-.08-2.26.411L25.064 0l-2.231.517-2.277.07-2.118.94-2.256.348-2.24.562-2.005 1.153-1.611 1.737-2.212.87L6.64 8.013 5.315 9.905l-1.25 1.923-1.39 1.867-.807 2.183-.151 2.373.033 2.333L0 22.573l.654 2.39-.513 2.25.763 2.274L.05 31.8l.952 2.201v2.285l.467 2.464 1.495-1.937.975-2.023.61-2.15-.356-2.585.946-2.062 1.73-1.678-.29-2.036 1.029-2 .93-2.047V18.25l1.788-2.685 3.605.377 2.085 1.596 2.364-1.04 2.233.132 2.197.972 2.248.539 2.264-.658 2.261.41 2.224-.841 2.277.394 2.159-1.264 2.387 1.344 2.161-1.041z"/>
    <path d="M16.405 16.418c0-2.206 4.52-2.751 10.095-2.751 5.576 0 10.095.545 10.095 2.75 0 2.206-2.792 6.76-10.095 6.76-7.303 0-10.095-4.554-10.095-6.76zm9.793-5.296c-3.907 0-5.983 1.11-11.69 2.663C6.397 15.995 2.65 9.807 1.325 3.727.565.24 0 1.707 0 1.707 0 25.534 16.167 33.58 26.715 33.58 37.43 33.581 53 25.841 53 1.242c0-.547-1.072-.277-1.262.464-1.113 4.36.143 15.456-14.22 12.08-5.03-2.088-7.413-2.664-11.32-2.664z" id="k"/>
    <path d="M75.636 70.775v11.447h-26V70.775c0-3.275 4.248-7.013 7.091-8.553h11.818c2.87 1.567 7.091 5.316 7.091 8.553z" id="m"/>
  </defs>
  <g transform="translate(-1 -5.311)" fill="none" fill-rule="evenodd">
    <mask id="b" fill="#fff">
      <use xlink:href="#a"/>
    </mask>
    <path fill="#98B5B4" fill-rule="nonzero" mask="url(#b)" d="M249.001 150.311H270v-30h-21z"/>
    <path d="M278 124.54h7.07v-6.229H278v6.228zm12.645 0h7.065v-6.229h-7.065v6.228zm12.651 0h7.058v-6.229h-7.058v6.228zm12.634 0H323v-6.229h-7.07v6.228zM278 136.31h7.07v-6.232H278v6.232zm12.645 0h7.065v-6.232h-7.065v6.232zm12.651 0h7.058v-6.232h-7.058v6.232zm12.634 0H323v-6.232h-7.07v6.232z" fill="#FFF" fill-rule="nonzero" mask="url(#b)"/>
    <g mask="url(#b)">
      <path fill="#C4E8F5" d="M236 146.506h137V9.31H236z"/>
      <path d="M236 106.618c55.91-8.922 49.976 28.503 137 9.286v32.64H236v-41.926z" fill="#B7BE34"/>
      <path d="M331.539 43.61c4.978 0 9.014 4.04 9.014 9.025a9.027 9.027 0 0 1-4.827 7.996 6.298 6.298 0 0 1 1.221 3.738 6.313 6.313 0 0 1-6.31 6.317 6.286 6.286 0 0 1-4.55-1.941 12.569 12.569 0 0 1-8.968 3.748c-6.968 0-12.619-5.657-12.619-12.636 0-6.978 5.65-12.637 12.62-12.637 2.265 0 4.391.598 6.229 1.646a9.01 9.01 0 0 1 8.19-5.256zM265.744 18.337a6.313 6.313 0 0 1 6.212 7.422 8.973 8.973 0 0 1 1.9-.201c4.978 0 9.012 4.04 9.012 9.026 0 4.985-4.034 9.026-9.013 9.026a8.966 8.966 0 0 1-5.466-1.849 6.312 6.312 0 0 1-6.252 5.46 6.313 6.313 0 0 1-6.295-5.909 3.572 3.572 0 0 1-1.816.493 3.609 3.609 0 0 1-3.07-5.505 9.024 9.024 0 0 1-7.745-8.937c0-4.984 4.035-9.026 9.013-9.026a9.004 9.004 0 0 1 7.59 4.157 6.309 6.309 0 0 1 5.93-4.157z" fill="#FFF"/>
    </g>
    <path stroke="#403A33" stroke-width="3" stroke-linecap="round" stroke-linejoin="round" mask="url(#b)" d="M232 80.311h71v-70h-71z"/>
    <path d="M302.5 80.81H373V10.31h-70.5V80.81zM232 151.31h70.5V80.812H232v70.499zm70.5 0H373V80.812h-70.5v70.499z" stroke="#514C47" stroke-width="3" stroke-linecap="round" stroke-linejoin="round" mask="url(#b)"/>
    <path d="M213 150.811h179" stroke="#514C47" stroke-width="6" stroke-linecap="round" stroke-linejoin="round" mask="url(#b)"/>
    <path stroke="#514C47" stroke-width="4" stroke-linecap="round" stroke-linejoin="round" mask="url(#b)" d="M232 151.311h141v-141H232z"/>
    <path d="M227 16.856h151V5.31H227v11.545zm0 13.728h151V19.039H227v11.545zm0 13.727h151v-11.54H227v11.54z" fill="#DEDEDA" fill-rule="nonzero" mask="url(#b)"/>
    <g mask="url(#b)">
      <g opacity=".3">
        <path d="M147.072 130.694H33.752c-3.26 0-5.928-2.778-5.928-6.173s2.667-6.174 5.927-6.174h113.321c3.26 0 5.928 2.779 5.928 6.174 0 3.395-2.668 6.173-5.928 6.173" fill="#0F546E"/>
        <path d="M30.685 130.101l-26.468-13.1c-2.846-1.409-4.028-4.904-2.627-7.765 1.4-2.862 4.877-4.051 7.725-2.643l26.467 13.1c2.847 1.409 4.03 4.904 2.628 7.766-1.402 2.862-4.878 4.052-7.725 2.642" fill="#0F546E"/>
        <path fill="#A1A3A4" d="M39 135.184h87.176v-4.49H39zM52.412 157.633h4.47v-22.449h-4.47z"/>
        <path fill="#A1A3A4" d="M109.412 155.388h4.47V132.94h-4.47z"/>
        <path d="M60.235 155.388c0 3.1-2.5 5.612-5.588 5.612-3.086 0-5.588-2.512-5.588-5.612s2.502-5.612 5.588-5.612c3.087 0 5.588 2.513 5.588 5.612" fill="#303337"/>
        <path d="M56.882 155.388c0 1.24-1 2.245-2.235 2.245a2.24 2.24 0 0 1-2.235-2.245c0-1.239 1-2.245 2.235-2.245a2.24 2.24 0 0 1 2.235 2.245" fill="#909394"/>
        <path d="M117.235 155.388c0 3.1-2.5 5.612-5.588 5.612-3.087 0-5.588-2.512-5.588-5.612s2.501-5.612 5.588-5.612 5.588 2.513 5.588 5.612" fill="#303337"/>
        <path d="M113.882 155.388c0 1.24-1 2.245-2.235 2.245a2.24 2.24 0 0 1-2.235-2.245c0-1.239 1-2.245 2.235-2.245a2.24 2.24 0 0 1 2.235 2.245" fill="#909394"/>
      </g>
      <g fill-rule="nonzero" transform="translate(106.059 97.03)">
        <ellipse fill="#D87F0A" cx="8" cy="14.667" rx="5.143" ry="5.762"/>
        <ellipse fill="#F8CEA0" cx="8" cy="15.19" rx="3.429" ry="3.143"/>
        <g transform="translate(9.143 15.714)">
          <ellipse fill="#D87F0A" cx="3.428" cy="3.143" rx="3.428" ry="3.143"/>
          <ellipse fill="#F8CEA0" cx="3.429" cy="3.667" rx="1.714" ry="1.571"/>
          <ellipse fill="#F8CEA0" cx="3.429" cy="1.048" rx="1" ry="1"/>
          <ellipse fill="#F8CEA0" cx="5.143" cy="1.571" rx="1" ry="1"/>
          <ellipse fill="#F8CEA0" cx="1.714" cy="1.571" rx="1" ry="1"/>
        </g>
        <g transform="translate(0 15.714)">
          <ellipse fill="#D87F0A" cx="3.428" cy="3.143" rx="3.428" ry="3.143"/>
          <ellipse fill="#F8CEA0" cx="3.429" cy="3.667" rx="1.714" ry="1.571"/>
          <ellipse fill="#F8CEA0" cx="3.429" cy="1.048" rx="1" ry="1"/>
          <ellipse fill="#F8CEA0" cx="5.143" cy="1.571" rx="1" ry="1"/>
          <ellipse fill="#F8CEA0" cx="1.714" cy="1.571" rx="1" ry="1"/>
        </g>
        <ellipse fill="#D87F0A" cx="8" cy="6.286" rx="6.857" ry="5.762"/>
        <ellipse fill="#3E3832" transform="rotate(10 5.904 4.79)" cx="5.904" cy="4.789" rx="1" ry="1.05"/>
        <ellipse fill="#3E3832" transform="scale(-1 1) rotate(10 0 -108.415)" cx="9.904" cy="4.789" rx="1" ry="1.05"/>
        <ellipse fill="#F8CEA0" cx="8" cy="7.857" rx="3.429" ry="3.143"/>
        <g transform="matrix(-1 0 0 1 15.429 0)">
          <ellipse fill="#D87F0A" cx="2.286" cy="2.095" rx="2.286" ry="2.095"/>
          <ellipse fill="#F8CEA0" cx="2.286" cy="2.095" rx="1.143" ry="1.048"/>
        </g>
        <g transform="translate(.571)">
          <ellipse fill="#D87F0A" cx="2.286" cy="2.095" rx="2.286" ry="2.095"/>
          <ellipse fill="#F8CEA0" cx="2.286" cy="2.095" rx="1.143" ry="1.048"/>
        </g>
        <ellipse fill="#8B5F26" cx="8" cy="7.333" rx="1.143" ry="1.048"/>
        <path d="M4.571 10.476c-1.45.42-2.54 1.048-3.265 1.886C.218 13.619 0 14.876 0 15.505c0 .628.327 1.257 1.306 1.257.653 0 1.089-.35 1.306-1.048.436-1.676.871-2.793 1.306-3.352a2.99 2.99 0 0 0 .653-1.886zM11.429 10.476c1.45.42 2.54 1.048 3.265 1.886C15.782 13.619 16 14.876 16 15.505c0 .628-.327 1.257-1.306 1.257-.653 0-1.089-.35-1.306-1.048-.436-1.676-.871-2.793-1.306-3.352a2.99 2.99 0 0 1-.653-1.886z" fill="#D87F0A"/>
      </g>
      <g opacity=".67">
        <path d="M104.882 118.311c0-14.613-3.497-19.7-3.497-19.7s-9.142-1.38-20.502-1.38c-11.362 0-20.503 1.38-20.503 1.38s-3.498 5.087-3.498 19.7h48z" fill="#85817F"/>
        <path d="M92.025 98.297c.054.36.113.78.177 1.253.182 1.35.365 2.867.535 4.516.485 4.714.777 9.55.777 14.245h-2.526c0-4.602-.287-9.359-.765-13.995a142.646 142.646 0 0 0-.525-4.44 96.696 96.696 0 0 0-.237-1.644l-.015-.096v-.096c0-4.53-2.883-8.249-8.248-8.249-5.365 0-8.247 3.719-8.247 8.249v.097l-.015.095-.064.422c-.052.35-.11.76-.173 1.222a142.59 142.59 0 0 0-.526 4.44c-.478 4.636-.764 9.393-.764 13.995h-2.527c0-4.694.292-9.531.778-14.245.17-1.649.352-3.166.535-4.516a99.08 99.08 0 0 1 .23-1.607c.043-5.733 3.878-10.632 10.773-10.632s10.73 4.899 10.774 10.632l.053.354z" fill="#333" fill-rule="nonzero"/>
      </g>
    </g>
    <g mask="url(#b)">
      <path d="M164.388 51.811c13.678 0 24.87 12.545 26.114 28.53.893.436 1.505 1.41 1.505 2.53v8.596c0 1.46-1.044 2.676-2.395 2.767l-.163.006c-.151 0-.299-.014-.442-.041-2.194 7.157-6.49 13.099-11.997 16.735l.282 3.187-.002.13-2.977 26.274h-18.878l-.079-.552-3.65-25.767.135-3.223c-5.534-3.627-9.855-9.578-12.062-16.755l-.064.006-.164.006c-1.427 0-2.558-1.254-2.558-2.773V82.87c0-1.018.508-1.918 1.273-2.4 1.193-16.047 12.407-28.66 26.122-28.66z" fill="#E7E5E2" fill-rule="nonzero"/>
      <g fill="#59514B">
        <path d="M170.403 101.809c-.148-.226-.434-.534-.883-.837-.824-.557-1.891-.862-3.195-.785l-2.512.151c-.338.02-.592.268-.568.553.024.284.317.499.655.478l2.512-.15c.984-.06 1.75.16 2.342.56.31.21.5.413.575.529.164.25.537.34.833.203.296-.138.404-.452.24-.702z" fill-rule="nonzero"/>
        <path d="M155.414 86.97c-1.662.134-2.127-2.485-1.627-4.195.095-.325.645-1.8 1.619-1.8.973 0 1.402.807 1.462.945.716 1.668.364 4.904-1.454 5.05M174.691 86.97c1.662.134 2.127-2.485 1.626-4.195-.094-.325-.644-1.8-1.618-1.8-.973 0-1.402.807-1.462.945-.716 1.668-.365 4.904 1.454 5.05"/>
        <path d="M165.668 89.551c.995-.17 1.674-.063 1.916.267.918 1.249.625 2.57-.949 3.655-.828.57-1.968.77-2.571.475-.295-.145-.64.003-.77.33-.13.326.002.708.297.852.997.489 2.53.219 3.66-.56 2.14-1.473 2.629-3.677 1.239-5.568-.587-.8-1.628-.963-3-.729-.318.054-.537.384-.488.737.05.353.348.595.666.541z" fill-rule="nonzero"/>
      </g>
      <g>
        <g transform="translate(132.515 111.417)">
          <path d="M32 26.304l6.672-12.554 5.18-12.554C39.902 4.384 35.95 5.978 32 5.978c-3.95 0-7.901-1.594-11.852-4.782l5.35 12.554L32 26.304z" fill="#FFF" fill-rule="nonzero"/>
          <mask id="d" fill="#fff">
            <use xlink:href="#c"/>
          </mask>
          <use fill="#D8A25D" xlink:href="#c"/>
          <g mask="url(#d)" fill="#5C4378">
            <path d="M-42.667 86.522h149v-120h-149z"/>
          </g>
        </g>
        <g transform="translate(133.794 46.033)">
          <mask id="f" fill="#fff">
            <use xlink:href="#e"/>
          </mask>
          <use fill="#38383A" xlink:href="#e"/>
          <g mask="url(#f)" fill="#8B5F26">
            <path d="M-14.074-3.868h88v102h-88z"/>
          </g>
        </g>
      </g>
    </g>
    <g mask="url(#b)">
      <path d="M231.388 49.561c13.608 0 24.754 12.253 26.088 27.91.07-.008.143-.011.216-.011 1.429 0 2.558 1.237 2.558 2.736v8.478c0 1.441-1.044 2.64-2.395 2.73l-.163.005c-.58 0-1.112-.205-1.538-.548-2.142 7.286-6.511 13.342-12.148 17.014l.282 3.144-.001.127-2.976 25.915h-18.874l-.078-.544-3.65-25.415.136-3.179c-5.637-3.644-10.016-9.669-12.182-16.927a2.424 2.424 0 0 1-1.191.407l-.164.006c-1.427 0-2.558-1.237-2.558-2.735v-8.478c0-1.497 1.128-2.734 2.553-2.736 1.338-15.652 12.48-27.899 26.085-27.899z" fill="#E7E5E2" fill-rule="nonzero"/>
      <g fill="#59514B">
        <path d="M222.274 82.356c-1.744.145-2.231-2.692-1.706-4.545.099-.351.676-1.95 1.697-1.95 1.02 0 1.471.874 1.534 1.024.75 1.806.382 5.311-1.525 5.47M242.491 82.356c1.743.145 2.231-2.692 1.706-4.545-.099-.351-.676-1.95-1.698-1.95-1.02 0-1.47.874-1.533 1.024-.75 1.806-.382 5.311 1.525 5.47"/>
        <path d="M233.029 85.152c1.042-.184 1.754-.069 2.009.289.962 1.353.654 2.784-.997 3.959-.868.617-2.063.835-2.695.514-.31-.156-.671.004-.808.357-.137.354.003.768.312.925 1.046.529 2.653.236 3.838-.607 2.244-1.596 2.757-3.983 1.3-6.033-.617-.865-1.71-1.042-3.146-.79-.334.06-.563.417-.512.8.051.382.364.644.699.586zM225.292 98.892a.65.65 0 0 1-.483-.773.633.633 0 0 1 .752-.497c2.064.462 4.127.693 6.189.693 2.062 0 4.125-.231 6.189-.693a.633.633 0 0 1 .752.497.65.65 0 0 1-.483.773 29.476 29.476 0 0 1-6.458.723c-2.153 0-4.306-.241-6.458-.723z" fill-rule="nonzero"/>
      </g>
      <g>
        <g transform="translate(197.75 108.333)">
          <mask id="h" fill="#fff">
            <use xlink:href="#g"/>
          </mask>
          <use fill="#D8A25D" xlink:href="#g"/>
          <g mask="url(#h)" fill="#0C5472">
            <path d="M-45.333 90.696h159v-126h-159z"/>
          </g>
        </g>
        <g transform="translate(204 43.311)">
          <mask id="j" fill="#fff">
            <use xlink:href="#i"/>
          </mask>
          <use fill="#3E3832" xlink:href="#i"/>
          <g mask="url(#j)" fill="#8B5F26">
            <path d="M-18.75-30h86v99h-86z"/>
          </g>
        </g>
        <g transform="translate(205.25 80.803)">
          <mask id="l" fill="#fff">
            <use xlink:href="#k"/>
          </mask>
          <g mask="url(#l)" fill="#8B5F26">
            <path d="M-13.881-29.02h87v105h-87z"/>
          </g>
        </g>
      </g>
    </g>
    <g mask="url(#b)">
      <g transform="translate(134.422 81.763)">
        <mask id="n" fill="#fff">
          <use xlink:href="#m"/>
        </mask>
        <use fill="#D8A25D" xlink:href="#m"/>
        <g mask="url(#n)" fill="#117938">
          <path d="M1.028 133h136V0h-136z"/>
        </g>
      </g>
      <path d="M206.513 146.207c1.215 1.042 2.377 2.544 2.364 3.333-.384.23-2.185.5-2.387-.047.212.529.07 1.153-.398 1.539a1.4 1.4 0 0 1-1.885-.1c.31.633.074 1.403-.556 1.76a1.403 1.403 0 0 1-1.51-.081 1.355 1.355 0 0 1-.895 1.472c-.46.164-.953.073-1.315-.2-.168.43-.555.766-1.05.852a1.396 1.396 0 0 1-1.23-.389c-.227.445-.695.75-1.236.75-.506 0-.948-.266-1.189-.664a1.397 1.397 0 0 1-1.136.303 1.375 1.375 0 0 1-1.05-.851 1.401 1.401 0 0 1-1.315.199 1.355 1.355 0 0 1-.895-1.472c-.429.309-1.02.36-1.51.081a1.345 1.345 0 0 1-.556-1.76 1.4 1.4 0 0 1-1.886.1 1.342 1.342 0 0 1-.397-1.539c-.4.174-.863-.107-1.24-.318.578-.873 1.735-2.19 2.692-2.968.796 2.957 4.61 5.556 9.126 5.556 4.497 0 7.488-3.166 8.304-6.106l1.15.55z" fill="#FA96A0"/>
      <path d="M197 109.311c9.351 0 17.004 7.392 17.609 16.74h.038c1.3 0 2.353 1.07 2.353 2.39v2.392c0 1.32-1.053 2.391-2.353 2.391-.333 0-.65-.07-.938-.198-1.736 5.19-5.75 9.311-10.83 11.135l.003-.176c0 3.302-2.633 5.978-5.882 5.978-3.191 0-5.789-2.582-5.88-5.803-5.08-1.823-9.093-5.944-10.83-11.134a2.301 2.301 0 0 1-.937.198c-1.3 0-2.353-1.07-2.353-2.391v-2.392c0-1.32 1.053-2.39 2.353-2.39h.038c.605-9.348 8.258-16.74 17.609-16.74z" fill="#E7E5E2"/>
      <path d="M200.172 139.274a.616.616 0 0 1-.268.82.595.595 0 0 1-.805-.273c-.288-.586-.874-.885-1.864-.885-.99 0-1.575.299-1.863.885a.595.595 0 0 1-.805.273.616.616 0 0 1-.268-.82c.512-1.043 1.526-1.56 2.936-1.56s2.425.517 2.937 1.56z" fill="#59514B" fill-rule="nonzero"/>
      <path d="M192.435 137.103c0 2.025-1.611 3.667-3.599 3.667-1.988 0-3.6-1.642-3.6-3.667s1.612-3.666 3.6-3.666 3.6 1.641 3.6 3.666M209.235 137.103c0 2.025-1.611 3.667-3.599 3.667-1.988 0-3.6-1.642-3.6-3.667s1.612-3.666 3.6-3.666 3.6 1.641 3.6 3.666" fill="#E8CCC8"/>
      <path d="M198.224 131.644a.6.6 0 0 1-.71-.472.611.611 0 0 1 .463-.724c.807-.172 1.482-.04 1.853.595.721 1.234.47 2.657-.668 3.642-.66.572-1.589.778-2.237.378a.618.618 0 0 1-.203-.839.594.594 0 0 1 .824-.206c.142.087.534 0 .84-.264.696-.604.831-1.37.413-2.085-.04-.068-.213-.102-.575-.025z" fill="#59514B" fill-rule="nonzero"/>
      <path d="M190.644 130.988c-1.654.11-2.117-2.025-1.619-3.417.094-.265.641-1.468 1.61-1.468.969 0 1.396.658 1.456.771.712 1.359.363 3.995-1.447 4.114M203.844 130.988c-1.654.11-2.117-2.025-1.619-3.417.094-.265.641-1.468 1.61-1.468.969 0 1.396.658 1.456.771.712 1.359.363 3.995-1.447 4.114" fill="#59514B"/>
      <g fill="#78706A">
        <g fill-rule="nonzero">
          <path d="M193.125 110.9c.086-.333.407-.528.718-.436.31.092.493.436.407.769-.117.453-.004.652.753 1.382.768.74.946 1.711.52 2.758-.13.317-.473.462-.769.324-.295-.138-.43-.507-.301-.823.23-.563.157-.956-.231-1.33-1.064-1.026-1.373-1.57-1.097-2.644zM196.549 110.559a.558.558 0 0 1 .816-.132c.259.205.314.597.122.874-.26.38-.221.608.24 1.58.47.987.312 1.96-.437 2.775a.556.556 0 0 1-.825.007.657.657 0 0 1-.006-.884c.402-.438.466-.832.23-1.33-.65-1.367-.758-1.994-.14-2.89zM199.902 110.53a.559.559 0 0 1 .814.144.654.654 0 0 1-.135.872c-.358.274-.386.505-.227 1.582.161 1.093-.27 1.968-1.217 2.494-.286.16-.638.04-.786-.267-.149-.306-.037-.683.249-.842.508-.283.683-.637.601-1.19-.223-1.514-.145-2.146.701-2.794z"/>
        </g>
      </g>
    </g>
  </g>
</svg>