<svg xmlns="http://www.w3.org/2000/svg" width="390" height="188" viewBox="0 0 390 188">
    <g fill="none" fill-rule="evenodd">
        <path fill="#B0CAC9" d="M246.48 153.067h123.783V27.387H246.48z"/>
        <path fill="#98B5B4" d="M327.372 153.065h42.89v-51.952h-42.89z"/>
        <path fill="#98B5B4" d="M277.874 153.065h55.037v-40.127h-55.037z"/>
        <path fill="#98B5B4" d="M312.503 153.067h29.744V77.716h-29.744zM246.48 153.067h12.555V96.594H246.48z"/>
        <path fill="#98B5B4" d="M259.035 153.067h18.839v-27.115h-18.84z"/>
        <path fill="#FFF" d="M285.14 129.855h6.314v-5.524h-6.314zM296.433 129.855h6.31v-5.524h-6.31zM307.732 129.855h6.303v-5.524h-6.303zM319.015 129.855h6.314v-5.524h-6.314zM285.14 140.296h6.314v-5.527h-6.314zM296.433 140.296h6.31v-5.527h-6.31zM307.732 140.296h6.303v-5.527h-6.303zM319.015 140.296h6.314v-5.527h-6.314z"/>
        <path stroke="#403A33" stroke-linecap="round" stroke-linejoin="round" stroke-width="3" d="M244.132 90.225h63.065v-62.84h-63.065z"/>
        <path stroke="#514C47" stroke-linecap="round" stroke-linejoin="round" stroke-width="3" d="M307.197 90.225h63.066v-62.84h-63.066zM244.132 153.067h63.065v-62.84h-63.065zM307.197 153.067h63.066v-62.84h-63.066z"/>
        <path stroke="#514C47" stroke-linecap="round" stroke-linejoin="round" stroke-width="6" d="M227.287 153.066h159.822"/>
        <path stroke="#514C47" stroke-linecap="round" stroke-linejoin="round" stroke-width="4" d="M244.132 153.065h126.13V27.385h-126.13z"/>
        <path fill="#DEDEDA" d="M239.873 33.889H374.8v-10.2H239.873zM239.873 46.018H374.8v-10.2H239.873zM239.873 58.146H374.8V47.95H239.873z"/>
        <g fill="#D4CDDE">
            <path d="M44.085 89.543a.703.703 0 0 0 .211-.148c3.85-3.906 8.853-5.928 13.897-6.066v5.421c-1.608.331-2.819 1.774-2.819 3.504 0 1.974 1.578 3.575 3.524 3.575s3.524-1.6 3.524-3.575c0-1.73-1.21-3.173-2.82-3.504v-5.41c4.943.208 9.824 2.227 13.597 6.055a.7.7 0 0 0 .29.178l-1.098 2.373-2.922.453 2.114 2.2-.499 3.104 2.614-1.466 2.613 1.466-.5-3.105 2.115-2.199-2.922-.453-1.098-2.373a.7.7 0 0 0 .29-.178.723.723 0 0 0 0-1.01c-4.048-4.109-9.29-6.267-14.593-6.477V70.886c.467-.017.937-.026 1.41-.026.778 0 1.409-.64 1.409-1.43 0-.79-.631-1.43-1.41-1.43-.628 0-1.252.014-1.873.043a.694.694 0 0 0-.549.029c-19.079 1.13-34.643 15.54-37.848 34.252h-3.424v85.81h5.638v-17.162h149.406v17.162H178v-85.81h-5.638v7.15H22.956c0-20.363 15.536-37.046 35.237-38.51V81.9c-5.405.138-10.769 2.3-14.893 6.485a.723.723 0 0 0 .064 1.07l-3.722 2.743 1.536 4.797h4.971l1.536-4.797-3.6-2.654zm-21.129 25.652h8.457v44.335h-8.457v-44.335zm42.285 0h8.457v44.335H65.24v-44.335zm-5.638 0v44.335h-8.457v-44.335h8.457zm62.017 0h8.457v44.335h-8.457v-44.335zm-5.638 0v44.335h-8.457v-44.335h8.457zm-78.931 0h8.457v44.335H37.05v-44.335zm42.285 0h8.457v44.335h-8.457v-44.335zm56.38 0h8.456v44.335h-8.457v-44.335zm-42.285 0h8.456v44.335h-8.456v-44.335zm56.38 0h8.456v44.335h-8.457v-44.335zm14.094 0h8.457v44.335h-8.457v-44.335zM97.016 19.36c3.8-5.853 3.323-13.259-.644-18.58a16.462 16.462 0 0 1 5.351 2.261c7.587 4.927 9.775 15.023 4.887 22.55-4.888 7.527-15 9.634-22.587 4.707a16.462 16.462 0 0 1-4.243-3.97c6.475 1.461 13.435-1.115 17.236-6.968zM168 25.173c0-4.157 3.398-7.528 7.59-7.528.677 0 1.334.089 1.96.254A10.443 10.443 0 0 1 186.972 12c5.443 0 9.913 4.134 10.393 9.41 3.186 0 5.734 2.527 5.734 5.645 0 2.797-2.051 5.119-4.743 5.567v.078H174.64c-3.744-.521-6.641-3.689-6.641-7.527zM5.515 50.498l-5.09-1.466 4.464-3.211.066-5.37 4.225 3.105 5.13-1.853-1.853 5.13 3.105 4.225-5.37.066-3.211 4.464zM40.86 29.349l-3.562-1.026 3.124-2.248.047-3.759 2.957 2.173 3.59-1.297-1.296 3.592 2.173 2.957-3.758.046-2.248 3.124z"/>
        </g>
        <g>
            <path fill="#E7E5E2" d="M223.12 122.05c1.593 2.547 6.068 47.31 19.5 47.31 13.435 0 19.5-45.595 19.5-47.968-20.569-11.783-39 .658-39 .658z"/>
            <path fill="#8B6D47" d="M261.621 121.28c9.354 4.6 23.899 17.06 23.899 28.616v38.184h-84.24v-38.184c0-11.15 13.309-23.141 22.555-28.102-.468.286-.715.459-.715.459 1.593 2.638 5.875 14.347 19.307 14.347 13.435 0 19.693-12.571 19.693-15.029a41.606 41.606 0 0 0-.499-.29z"/>
            <path fill="#E7E5E2" d="M274.893 98.02c-3.928 15.972-16.54 27.66-31.494 27.66-14.952 0-27.564-11.688-31.492-27.659a3.54 3.54 0 0 1-1.267.231c-1.72 0-3.12-1.203-3.12-2.692V84.694c0-1.49 1.4-2.694 3.12-2.694.111 0 .221.005.33.015 2.264-18.53 15.92-32.775 32.43-32.775 16.509 0 30.165 14.246 32.43 32.775.109-.01.219-.015.33-.015 1.725 0 3.12 1.204 3.12 2.694V95.56c0 1.49-1.395 2.692-3.12 2.692-.45 0-.88-.082-1.267-.231z"/>
            <g fill="#635E59">
                <path d="M230.967 86.094c-2.257.17-2.889-3.157-2.21-5.33.13-.412.877-2.286 2.2-2.286 1.32 0 1.904 1.024 1.985 1.2.972 2.119.495 6.23-1.975 6.416M256.16 86.094c2.258.17 2.89-3.157 2.21-5.33-.128-.412-.876-2.286-2.199-2.286-1.32 0-1.904 1.024-1.985 1.2-.972 2.119-.497 6.23 1.974 6.416"/>
            </g>
            <path stroke="#D1BFA3" stroke-linecap="round" stroke-width="1.56" d="M244.16 89.15c1.35-.208 2.665-.158 3.283.6 1.505 1.849 1.073 3.984-1.462 5.563-1.267.788-3.06 1.11-4.16.624"/>
            <path stroke="#593A32" stroke-linecap="round" stroke-width="1.58" d="M253.886 101.606s-2.852 6.532-10.786 6.288c-7.934-.243-10.909-6.288-10.909-6.288"/>
            <path fill="#F6B873" d="M235.893 97.62l8.085.582 8.18-.586a6.24 6.24 0 0 1 6.686 6.224v1.097h-3.595l-.478-1.95-.328 1.95h-1.308l-.24-.924-.258.924-8.462.346-11.95-.346-.264-.924-.463.924h-2.294v-1.094a6.24 6.24 0 0 1 6.689-6.224z"/>
            <path fill="#344144" d="M243.296 43c2.56 0 4.635 2.173 4.635 4.853v.027c9.246 1.626 17.18 7.715 22.974 19.097l1.986.668c1.565 3.145 2.022 6.85 2.329 10.586-8.836-2.507-19.492-3.761-31.969-3.761-18.717 0-31.713 3.998-31.713 3.998.204-3.81 0-7.276 1.82-10.823l2.45-.668c5.34-10.214 13.5-17.546 22.852-19.195.037-2.648 2.1-4.782 4.636-4.782z"/>
            <g>
                <path fill="#9B9590" d="M243.4 124.12c12.062 0 21.84 9.392 21.84 20.978v20.444c0 11.586-9.778 20.978-21.84 20.978s-21.84-9.392-21.84-20.978v-20.444c0-11.586 9.778-20.978 21.84-20.978z"/>
                <g fill="#C6C2BF">
                    <path d="M211.189 129.818l6.295-5.308a1.685 1.685 0 0 1 2.298.133c.138.148.245.32.314.508l15.41 41.245c.3.803-.137 1.685-.977 1.977l-7.072 2.453c-.844.293-1.778-.122-2.086-.927l-14.633-38.39a1.502 1.502 0 0 1 .45-1.69zM275.611 129.818c.5.422.68 1.092.451 1.69l-14.633 38.39v.001c-.308.805-1.242 1.22-2.086.927l-7.072-2.453c-.84-.292-1.276-1.174-.976-1.977l15.409-41.245c.07-.187.176-.36.314-.508a1.685 1.685 0 0 1 2.298-.133l6.295 5.308z"/>
                </g>
            </g>
            <g>
                <path fill="#117938" d="M257.44 172.46v12.5h-28.08v-12.5c0-3.576 4.587-7.659 7.658-9.34h12.764c3.099 1.71 7.658 5.805 7.658 9.34z"/>
                <path fill="#FA96A0" d="M253.428 165.71c1.345 1.193 2.67 2.646 3.374 4.083-.425.262-2.42.262-2.643-.363a1.568 1.568 0 0 1-.44 1.759 1.514 1.514 0 0 1-2.087-.115 1.564 1.564 0 0 1-.615 2.014 1.512 1.512 0 0 1-1.672-.093 1.555 1.555 0 0 1-.99 1.683 1.51 1.51 0 0 1-1.456-.227 1.535 1.535 0 0 1-1.164.974 1.515 1.515 0 0 1-1.36-.445c-.252.508-.77.858-1.37.858-.559 0-1.048-.305-1.315-.76-.335.29-.79.43-1.257.347a1.535 1.535 0 0 1-1.163-.974 1.51 1.51 0 0 1-1.456.227 1.555 1.555 0 0 1-.99-1.683 1.512 1.512 0 0 1-1.672.093 1.564 1.564 0 0 1-.615-2.014 1.514 1.514 0 0 1-2.088.115 1.568 1.568 0 0 1-.44-1.76c-.443.199-.955-.608-1.373-.849.641-.999 1.666-2.018 2.725-2.91.88 3.383 5.04 5.943 10.039 5.943 4.979 0 9.125-2.54 10.028-5.902z"/>
                <path fill="#E7E5E2" d="M224.716 144.797c.6-9.797 8.736-17.557 18.684-17.557s18.084 7.76 18.684 17.557a3.12 3.12 0 0 1 1.596 2.723v3.12a3.12 3.12 0 0 1-3.256 3.117 18.78 18.78 0 0 1-10.804 9.865 6.24 6.24 0 0 1-12.44 0 18.78 18.78 0 0 1-10.804-9.865 3.12 3.12 0 0 1-3.256-3.117v-3.12a3.12 3.12 0 0 1 1.596-2.723z"/>
                <path fill="#78706A" fill-rule="nonzero" d="M239.475 129.355a.624.624 0 0 1 1.203.332c-.114.414-.004.594.755 1.277.79.711.974 1.645.536 2.65a.624.624 0 1 1-1.144-.5c.227-.52.156-.877-.227-1.222-1.088-.98-1.408-1.504-1.123-2.537zm3.478-.333a.624.624 0 0 1 1.005.741c-.255.346-.217.553.246 1.463.483.947.32 1.884-.449 2.665a.624.624 0 1 1-.889-.876c.398-.404.46-.763.226-1.223-.664-1.304-.775-1.908-.139-2.77zm3.41-.035a.624.624 0 1 1 .726 1.015c-.35.25-.377.459-.217 1.468.166 1.05-.279 1.89-1.251 2.396a.624.624 0 0 1-.575-1.108c.504-.262.674-.583.593-1.093-.229-1.446-.148-2.054.724-2.678z"/>
                <g>
                    <g fill="#E8CCC8">
                        <path d="M238.408 154.28c0 2.154-1.676 3.9-3.743 3.9-2.068 0-3.745-1.746-3.745-3.9s1.677-3.9 3.745-3.9c2.067 0 3.743 1.746 3.743 3.9M255.88 154.28c0 2.154-1.676 3.9-3.743 3.9-2.068 0-3.745-1.746-3.745-3.9s1.677-3.9 3.745-3.9c2.067 0 3.743 1.746 3.743 3.9"/>
                    </g>
                    <path fill="#FA96A0" d="M241.38 159.932c-.75-.332-1.186-1.113-1.138-1.915l.877-2.437 3.446 1.524-1.073 2.35a1.82 1.82 0 0 1-2.112.478z"/>
                    <path fill="#D1BFA3" fill-rule="nonzero" d="M244.428 148.474a.625.625 0 0 1-.739-.503.65.65 0 0 1 .483-.77c.839-.183 1.54-.042 1.926.633.75 1.313.49 2.826-.694 3.874-.687.609-1.653.827-2.327.402a.666.666 0 0 1-.21-.892.61.61 0 0 1 .856-.22c.148.093.555 0 .873-.28.724-.642.865-1.458.43-2.219-.04-.071-.222-.108-.598-.025z"/>
                    <g fill="#635E59">
                        <path fill-rule="nonzero" d="M247.787 146.322a.652.652 0 0 0 .454.788.623.623 0 0 0 .756-.473c.353-1.47.966-2.107 1.891-2.107s1.538.638 1.89 2.107c.084.349.423.56.757.473a.652.652 0 0 0 .454-.788c-.479-1.997-1.53-3.092-3.101-3.092-1.57 0-2.622 1.095-3.101 3.092z"/>
                        <path d="M236.545 147.776c-1.72.117-2.202-2.154-1.683-3.635.097-.282.666-1.561 1.674-1.561 1.007 0 1.452.7 1.514.82.74 1.445.378 4.25-1.505 4.376"/>
                    </g>
                    <path fill="#593A32" fill-rule="nonzero" d="M246.454 155.87a.663.663 0 0 0-.279-.871.613.613 0 0 0-.837.29c-.3.624-.908.941-1.938.941-1.03 0-1.639-.317-1.938-.94a.613.613 0 0 0-.837-.291.663.663 0 0 0-.28.872c.534 1.11 1.589 1.659 3.055 1.659 1.466 0 2.521-.55 3.054-1.66z"/>
                </g>
            </g>
            <g>
                <path fill="#C6C2BF" d="M266.8 188.08H220v-15.416c0-1.825 2.125-3.304 4.745-3.304h37.31c2.62 0 4.745 1.479 4.745 3.304v15.416z"/>
                <path fill="#FFF" d="M223.313 169.36h40.174c2.691 0 4.873 2.095 4.873 4.68 0 2.585-2.182 4.68-4.873 4.68h-40.174c-2.691 0-4.873-2.095-4.873-4.68 0-2.585 2.182-4.68 4.873-4.68z"/>
            </g>
            <g>
                <path fill="#194D62" d="M144.923 120.9h-12.584c-6.786 0-29.339 15.604-29.339 29.808v37.372h84.24v-37.372c0-14.204-22.947-29.808-29.73-29.808h-12.587z"/>
                <path fill="#CDD1D1" d="M124.443 123.653c1.627 2.582 8.936 15.433 19.714 23.349 10.706-7.796 20.108-21.61 20.108-24.016-21.002-11.94-39.822.667-39.822.667z"/>
                <path fill="#709CAA" d="M148.19 134.66v-7.652l-1.13.06h-5.49l-1.13-.06v7.652l1.693 1.034-1.557 8.314c1.247 1.29 2.436 2.301 3.564 3.036 1.373-.949 2.582-1.912 3.627-2.89l-1.27-8.46 1.693-1.034z"/>
                <path fill="#FFF" d="M163.713 119.374c-5.52 4.89-12.259 7.743-19.537 7.743-7.15 0-13.774-2.815-19.238-7.602-.066.436-.402 2.462-.402 2.91 0 5.377 8.87 12.278 14.554 16.797l3.316-11.26h3.997l3.186 11.26c5.335-4.356 14.495-11.256 14.495-16.797 0-.497-.294-2.565-.371-3.051z"/>
                <path fill="#E7E5E2" d="M176.613 98.02c-3.928 15.972-16.54 27.66-31.494 27.66-14.952 0-27.564-11.688-31.492-27.659a3.54 3.54 0 0 1-1.267.231c-1.72 0-3.12-1.203-3.12-2.692V84.694c0-1.49 1.4-2.694 3.12-2.694.111 0 .221.005.33.015 2.264-18.53 15.92-32.775 32.43-32.775 16.509 0 30.165 14.246 32.43 32.775.109-.01.219-.015.33-.015 1.724 0 3.12 1.204 3.12 2.694V95.56c0 1.49-1.396 2.692-3.12 2.692-.45 0-.88-.082-1.267-.231z"/>
                <g>
                    <g fill="#635E59">
                        <path d="M132.687 86.094c-2.257.17-2.889-3.157-2.21-5.33.13-.412.877-2.286 2.2-2.286 1.32 0 1.904 1.024 1.985 1.2.972 2.119.495 6.23-1.975 6.416M157.88 86.094c2.258.17 2.89-3.157 2.21-5.33-.128-.412-.876-2.286-2.199-2.286-1.32 0-1.904 1.024-1.985 1.2-.972 2.119-.497 6.23 1.974 6.416"/>
                    </g>
                    <path stroke="#D1BFA3" stroke-linecap="round" stroke-width="1.56" d="M145.88 89.15c1.35-.208 2.665-.158 3.283.6 1.505 1.849 1.073 3.984-1.462 5.563-1.267.788-3.06 1.11-4.16.624"/>
                    <path stroke="#593A32" stroke-linecap="round" stroke-width="1.58" d="M155.606 101.606s-2.852 6.532-10.786 6.288c-7.934-.243-10.909-6.288-10.909-6.288"/>
                </g>
                <path fill="#3E3832" d="M176.571 83.326c-4.66-41.31-38.641-15.768-45.81-19.993-7.457-4.391-9.686-1.237-11.847 4.384-1.065 2.77-3.982 9.893-4.612 19.795 1.032 7.275 4.408 16.17 16.543 11.797 6.449-2.324 9.163-3.344 13.763-3.344s7.407.723 13.327 3.344c15.887 3.899 18.084-9.116 18.636-15.983zm.584-1.814c2.931 36.653-21.233 44.168-33.614 44.168-9.749 0-24.201-5.61-29.633-26.52-1.126-4.338-.871-8.326-.597-13.872-.04-.78-.05-1.648-.05-2.518 0-21.105 14.307-38.21 31.956-38.21 17.295 0 31.383 16.43 31.938 36.952zm-44.671 22.662c0 2.77 5.587 6.928 12.48 6.928 6.893 0 12.48-4.159 12.48-6.928s-5.587-5.014-12.48-5.014c-6.893 0-12.48 2.245-12.48 5.014z"/>
            </g>
            <g>
                <path fill="#5C4378" d="M210.64 172.901v15.179h-34.32v-15.179c0-4.342 5.606-9.3 9.36-11.341h15.6c3.788 2.077 9.36 7.049 9.36 11.341z"/>
                <path fill="#FA96A0" d="M205.737 164.706c1.644 1.447 3.263 3.212 4.123 4.957-.519.318-2.957.318-3.23-.441a1.895 1.895 0 0 1-.538 2.136 1.86 1.86 0 0 1-2.55-.139c.418.88.1 1.95-.753 2.446a1.858 1.858 0 0 1-2.043-.114 1.887 1.887 0 0 1-1.21 2.044 1.856 1.856 0 0 1-1.78-.276 1.873 1.873 0 0 1-1.422 1.182 1.859 1.859 0 0 1-1.663-.54 1.868 1.868 0 0 1-1.673 1.042c-.683 0-1.282-.37-1.608-.923-.41.352-.965.523-1.536.421a1.873 1.873 0 0 1-1.422-1.182 1.856 1.856 0 0 1-1.779.276 1.887 1.887 0 0 1-1.211-2.044c-.58.43-1.38.5-2.043.114a1.893 1.893 0 0 1-.752-2.446 1.86 1.86 0 0 1-2.551.14 1.895 1.895 0 0 1-.538-2.137c-.542.24-1.167-.74-1.678-1.032.783-1.213 2.035-2.451 3.33-3.533 1.077 4.107 6.16 7.216 12.27 7.216 6.085 0 11.153-3.085 12.257-7.167z"/>
                <path fill="#E7E5E2" d="M170.131 138.16c.803-12.196 10.95-21.84 23.349-21.84 12.4 0 22.546 9.644 23.349 21.84h.051a3.12 3.12 0 0 1 3.12 3.12v3.12a3.12 3.12 0 0 1-4.362 2.863 23.464 23.464 0 0 1-14.361 14.527 7.8 7.8 0 0 1-15.594 0 23.464 23.464 0 0 1-14.36-14.527 3.12 3.12 0 0 1-4.362-2.863l-.001-3.12a3.12 3.12 0 0 1 3.171-3.12z"/>
                <g fill="#E8CCC8">
                    <path d="M187.24 150.64a4.68 4.68 0 1 1-9.36.001 4.68 4.68 0 0 1 9.36-.002M209.08 150.64a4.68 4.68 0 1 1-9.36.001 4.68 4.68 0 0 1 9.36-.002"/>
                </g>
                <path fill="#D1BFA3" fill-rule="nonzero" d="M194.765 143.673a.78.78 0 0 1-.32-1.527c1.048-.22 1.925-.05 2.408.759.938 1.575.611 3.39-.868 4.648-.86.731-2.066.993-2.909.483a.78.78 0 0 1 .808-1.334c.184.111.694 0 1.09-.337.906-.77 1.083-1.748.539-2.662-.051-.086-.277-.13-.748-.03z"/>
                <g fill="#635E59" fill-rule="nonzero">
                    <path d="M180.243 141.09a.78.78 0 1 0 1.514.379c.44-1.764 1.206-2.53 2.363-2.53s1.922.766 2.363 2.53a.78.78 0 1 0 1.514-.378c-.6-2.397-1.914-3.711-3.877-3.711-1.963 0-3.278 1.314-3.877 3.71zM198.963 141.09a.78.78 0 0 0 1.514.379c.44-1.764 1.206-2.53 2.363-2.53s1.922.766 2.363 2.53a.78.78 0 1 0 1.514-.378c-.6-2.397-1.914-3.711-3.877-3.711-1.963 0-3.278 1.314-3.877 3.71z"/>
                </g>
                <path fill="#593A32" d="M188.8 150.64h9.36c0 3.446-2.095 6.24-4.68 6.24-2.585 0-4.68-2.794-4.68-6.24z"/>
                <path fill="#FA96A0" d="M193.349 156.88c-1.22 0-2.194-.416-2.989-1.56.148-1.586 1.357-3.12 2.989-3.12 1.631 0 3.103 1.534 3.251 3.12-.795 1.144-2.03 1.56-3.251 1.56z"/>
                <path fill="#78706A" fill-rule="nonzero" d="M188.378 118.303a.78.78 0 0 1 1.504.415c-.157.567-.005.815 1.006 1.725 1.027.925 1.265 2.136.695 3.443a.78.78 0 1 1-1.43-.624c.306-.702.21-1.192-.309-1.66-1.422-1.28-1.836-1.959-1.466-3.3zm4.577-.426a.78.78 0 0 1 1.256.927c-.35.473-.297.759.32 1.971.628 1.232.417 2.447-.584 3.463a.78.78 0 1 1-1.112-1.094c.538-.546.624-1.038.307-1.66-.869-1.705-1.012-2.488-.187-3.607zm4.484-.037a.78.78 0 1 1 .908 1.27c-.478.341-.517.63-.304 1.973.216 1.365-.36 2.456-1.626 3.113a.78.78 0 1 1-.72-1.384c.681-.353.914-.795.805-1.485-.3-1.89-.194-2.678.937-3.487z"/>
            </g>
        </g>
    </g>
</svg>
