<svg xmlns="http://www.w3.org/2000/svg" width="117" height="93" viewBox="0 0 117 93">
    <g fill="none" fill-rule="evenodd">
        <path fill="#8B5F26" d="M64.438 29.162c0-14.377 10.57-26.032 23.614-26.032 13.04 0 23.668 11.623 23.668 26v.316s.027 27.71-23.675 27.71c-23.7 0-23.608 9.536-23.608 9.536V30.318v-1.156z"/>
        <path fill="#E7E5E2" d="M75.688 53.448c.957 1.531 3.646 28.432 11.718 28.432 8.074 0 11.719-27.4 11.719-28.827-12.361-7.081-23.438.395-23.438.395z"/>
        <path fill="#A13A28" d="M98.825 52.986c5.621 2.764 14.362 10.253 14.362 17.197V93.13H62.563V70.183c0-6.7 7.998-13.907 13.554-16.888-.281.172-.43.275-.43.275.958 1.586 3.531 8.623 11.603 8.623 8.074 0 11.835-7.555 11.835-9.032-.1-.06-.2-.118-.3-.175z"/>
        <path fill="#F5A096" d="M102.712 55.334a36.674 36.674 0 0 1 4.044 3.316l-4.629 13.929a8.204 8.204 0 0 1-.654 3.054c3.446 1.878 6.213 4.571 7.965 8.065v9.432H63.5c0-7.668 3.367-13.243 8.657-16.667 3.789-2.357 8.569-3.539 14.35-3.539 3.882 0 7.253.677 10.15 1.953a.524.524 0 0 0 .69-.264.517.517 0 0 0-.266-.684c-3.034-1.336-6.55-2.04-10.574-2.04-5.194 0-9.633.93-13.313 2.8l-1.205-4.783-3.569-10.793a35.803 35.803 0 0 1 3.988-3.439l3.537 9.983.344.079a8.357 8.357 0 0 1 4.96-1.62 8.36 8.36 0 0 1 6.264 2.807 8.36 8.36 0 0 1 6.264-2.806c1.83 0 3.522.584 4.898 1.574.134-.032.269-.065.403-.099l3.634-10.258z"/>
        <path fill="#A13A28" d="M83.628 85.96c-1.567-1.788-2.09-5.364 0-6.555 1.26-.718 2.519-.243 3.778.985 1.26-1.228 2.519-1.703 3.778-.985 2.09 1.191 1.568 4.767 0 6.554-.879 1.002-3.646 3.484-3.778 3.42-.132.064-2.899-2.418-3.778-3.42z"/>
        <path fill="#E6E5E2" fill-rule="nonzero" d="M109.438 82.56v10.57H94.816c-.56 0-1.013-.455-1.013-1.016 0-.56.453-1.015 1.013-1.015h5.572v-.508h-8.131c-.546 0-.987-.455-.987-1.015 0-.561.441-1.016.987-1.016h8.131v-.508h-9.65c-.545 0-.988-.455-.988-1.016 0-.56.443-1.015.988-1.015h9.65v-.508h-6.962c-.63 0-1.143-.455-1.143-1.016 0-.56.512-1.015 1.143-1.015h9.051l1.093-.508h-4.702c-.56 0-1.013-.455-1.013-1.016 0-.56.454-1.016 1.013-1.016h7.4c.396 0 .73.241 1.212.508.213.118.865.488 1.958 1.11z"/>
        <path fill="#E7E5E2" d="M68.693 28.93s-.098.559-.225.467a1.522 1.522 0 0 0-.568-.116c-.87 0-1.577.73-1.579 1.631l-.008 6.24c-.002.903.701 1.635 1.572 1.636.349 0 .668-.12.93-.319 2.105 10.049 9.61 17.146 18.557 17.161 8.949.015 16.477-7.058 18.611-17.1.26.2.58.321.93.322.87 0 1.576-.73 1.577-1.63l.01-6.241c0-.902-.703-1.634-1.573-1.636-.2 0-.392.043-.568.114C86.178 31.85 79.139 18.13 78.544 18.13c0 0-8.44 7.9-9.85 10.8z"/>
        <g>
            <g fill="#635E59">
                <path d="M80.68 34.801c-1.356.102-1.736-1.897-1.327-3.203.077-.248.526-1.375 1.32-1.375.795 0 1.145.616 1.194.722.584 1.273.297 3.744-1.187 3.856M95.82 34.801c1.357.102 1.737-1.897 1.328-3.203-.077-.248-.526-1.375-1.321-1.375-.794 0-1.145.616-1.193.722-.585 1.273-.298 3.744 1.186 3.856"/>
            </g>
            <path fill="#D1BFA3" fill-rule="nonzero" d="M88.68 37.1c.798-.123 1.343-.046 1.538.194.737.905.501 1.863-.762 2.649-.665.413-1.58.559-2.063.344a.469.469 0 0 0-.38.858c.8.354 2.031.158 2.938-.406 1.717-1.068 2.11-2.666.994-4.037-.472-.58-1.308-.698-2.407-.528a.469.469 0 1 0 .143.926z"/>
            <path fill="#D19E9C" fill-rule="nonzero" d="M94.024 43.935a4.27 4.27 0 0 1-.295.527 6.648 6.648 0 0 1-.998 1.214c-1.198 1.152-2.759 1.818-4.745 1.757-1.937-.06-3.49-.715-4.708-1.772a6.988 6.988 0 0 1-1.111-1.219 4.265 4.265 0 0 1-.33-.526.469.469 0 1 0-.842.414c.069.14.203.368.408.656a7.92 7.92 0 0 0 1.26 1.382c1.375 1.194 3.132 1.936 5.294 2.002 2.252.07 4.051-.699 5.424-2.018a7.58 7.58 0 0 0 1.138-1.386c.184-.288.303-.516.364-.656a.469.469 0 1 0-.86-.375z"/>
        </g>
        <g>
            <path fill="#E7E5E2" d="M14 50.673C15.021 52.306 17.89 81 26.5 81 35.112 81 39 51.772 39 50.251c-13.185-7.553-25 .422-25 .422z"/>
            <path fill="#0F5FA9" d="M27 69.5L18.848 49C14.45 49 0 59.043 0 68.395V93h54V68.395C54 59.043 39.546 49 35.151 49L27 69.5z"/>
            <path fill="#3C84C5" d="M18.877 47.448c-2.373.819-5.874 3.035-5.874 3.035-.178 7.167 6.548 14.4 6.548 14.4l1.366-4.585 5.14 9.617 2.738.085 4.729-8.69 1.927 4.88c6.489-11.143 5.494-15.832 5.494-15.832C38.355 48.16 35.086 47 35.086 47l-7.75 20.36-8.459-19.912z"/>
            <path fill="#E7E5E2" d="M47.188 35.27C44.67 45.508 36.585 53 27 53c-9.586 0-17.67-7.492-20.188-17.73a2.27 2.27 0 0 1-.812.148c-1.103 0-2-.771-2-1.726v-6.965C4 25.772 4.897 25 6 25c.071 0 .142.003.211.01C7.663 13.132 16.417 4 27 4c10.582 0 19.337 9.132 20.789 21.01.07-.007.14-.01.211-.01 1.105 0 2 .772 2 1.727v6.965c0 .955-.895 1.726-2 1.726-.289 0-.564-.053-.812-.148z"/>
            <g>
                <g fill="#635E59">
                    <path d="M19.03 27.625c-1.447.109-1.852-2.024-1.417-3.417.083-.264.562-1.465 1.41-1.465.847 0 1.221.656 1.273.769.623 1.358.317 3.993-1.266 4.113M35.18 27.625c1.447.109 1.852-2.024 1.416-3.417-.082-.264-.561-1.465-1.41-1.465-.846 0-1.22.656-1.272.769-.623 1.358-.318 3.993 1.266 4.113"/>
                </g>
                <path stroke="#D1BFA3" stroke-linecap="round" d="M27.488 29.583c.864-.133 1.707-.1 2.104.385.965 1.185.688 2.554-.938 3.566-.811.505-1.962.712-2.666.4"/>
                <path stroke="#593A32" stroke-linecap="round" stroke-width="1.013" d="M33.722 37.568s-1.828 4.187-6.914 4.031c-5.086-.156-6.993-4.031-6.993-4.031"/>
                <path fill="#F6B873" d="M26.601 34.077c3.002 0 4.448.43 8.071 1.761C44.006 39.268 47.35 25.429 47.9 25c0 27.019-13.205 32-21.436 32C18.361 57 5.9 50.732 5.9 25c0 0 2.615 15.643 11.72 11.073 3.94-1.978 5.98-1.996 8.981-1.996zm-.46 8.954c4.752 0 8.603-1.564 8.603-3.492 0-1.929-3.851-3.492-8.602-3.492s-8.602 1.563-8.602 3.492c0 1.928 3.85 3.492 8.602 3.492z"/>
            </g>
            <path fill="#F6B873" d="M6.67 28.447c-.144-5.564 1.786-8.148 3.374-10.11 0 0-.965 4.275-.294 3.385 3.8-5.02 21.4-1.581 25.05-8.06.46 3.567-4.148 4.643-4.148 4.643 3.673.696 6.855-.784 7.718-2.542.283 1.433-.589 2.384-1.865 3.364 4.514-.855 4.587-3.966 4.587-3.966.643 4.127 5.27 2.542 5.27 9.298l.102 3.988c0 .162.479-.972 1.436-3.4C48.18 9.466 39.5 0 27.422 0 15.895 0 5.85 10.948 5.857 24.702c0 .317.078.917.112 1.21.514 4.468.721 7.461.62 8.98.083-1.016.11-3.164.081-6.445z"/>
        </g>
        <g>
            <path fill="#38A161" d="M69 83.27V93H47v-9.73c0-2.784 3.594-5.961 6-7.27h10c2.428 1.332 6 4.518 6 7.27z"/>
            <path fill="#FFBD66" d="M51.467 93H63.6l1.9-15.583c-.22-.188-1.5-1.071-1.5-.945l-1.49 7.49-9.834.313L52 76.472s-1.533.932-2 1.417L51.467 93z"/>
            <path fill="#E7E5E2" d="M43.033 61c.514-7.818 7.019-14 14.967-14s14.453 6.182 14.967 14H73a2 2 0 0 1 2 2v2a2 2 0 0 1-2.796 1.835 15.04 15.04 0 0 1-9.206 9.312 5 5 0 0 1-9.996 0 15.04 15.04 0 0 1-9.206-9.312A2 2 0 0 1 41 65v-2a2 2 0 0 1 2.033-2z"/>
            <g transform="translate(48 61)">
                <g fill="#E8CCC8">
                    <path d="M6 8a3 3 0 1 1-6 0 3 3 0 0 1 6 0M20 8a3 3 0 1 1-6 0 3 3 0 0 1 6 0"/>
                </g>
                <path fill="#D1BFA3" fill-rule="nonzero" d="M10.824 3.534a.5.5 0 1 1-.206-.979c.673-.141 1.235-.033 1.544.487.601 1.01.392 2.173-.556 2.98-.551.468-1.324.636-1.865.309a.5.5 0 0 1 .518-.856c.118.072.445 0 .7-.216.58-.493.693-1.12.344-1.706-.033-.055-.178-.083-.48-.02z"/>
                <g fill="#635E59" fill-rule="nonzero">
                    <path d="M1.553 1.224a.5.5 0 1 1 .894-.448c.24.48.728.724 1.553.724s1.313-.244 1.553-.724a.5.5 0 0 1 .894.448C6.02 2.077 5.175 2.5 4 2.5s-2.02-.423-2.447-1.276zM13.553 1.224a.5.5 0 0 1 .894-.448c.24.48.728.724 1.553.724s1.313-.244 1.553-.724a.5.5 0 1 1 .894.448C18.02 2.077 17.175 2.5 16 2.5s-2.02-.423-2.447-1.276z"/>
                </g>
                <path fill="#FFF" d="M8.642 10.208c-.345.187-.715.498-1.108.93-.59.65-.357 1.841.47 2.002.828.161 1.102-.55 1.174-.918.048-.245-.13-.917-.536-2.014z"/>
                <ellipse cx="10" cy="10" fill="#593A32" rx="3" ry="1"/>
            </g>
            <path fill="#78706A" fill-rule="nonzero" d="M54.73 48.271a.5.5 0 1 1 .963.266c-.1.363-.003.523.645 1.106.659.593.811 1.369.446 2.207a.5.5 0 0 1-.917-.4c.197-.45.135-.764-.198-1.064-.911-.82-1.177-1.256-.94-2.115zm2.934-.273a.5.5 0 1 1 .804.594c-.223.303-.19.487.206 1.264.402.79.267 1.568-.375 2.22a.5.5 0 0 1-.712-.702c.344-.35.4-.665.196-1.064-.557-1.093-.649-1.594-.12-2.312zm2.874-.023a.5.5 0 0 1 .582.813c-.307.22-.331.404-.195 1.265.139.875-.231 1.575-1.043 1.996a.5.5 0 1 1-.46-.888c.436-.226.585-.51.515-.951-.192-1.212-.124-1.717.601-2.235z"/>
        </g>
    </g>
</svg>
