<?xml version="1.0" encoding="UTF-8"?>
<svg width="375px" height="185px" viewBox="0 0 375 185" version="1.1" xmlns="http://www.w3.org/2000/svg" xmlns:xlink="http://www.w3.org/1999/xlink">
    <title>illustrasjon-veiviser-mobil</title>
    <defs>
        <path d="M28.4019737,9.48130349 L28.4019737,22.1709285 L0,22.1709285 L0,9.48130349 C0,5.85103683 4.63959278,1.70665334 7.74599284,0 C7.74599284,0 20.6559809,0 20.6559809,0 C23.7906065,1.73662642 28.4019737,5.89288231 28.4019737,9.48130349 Z" id="veiviser-mobil-path"></path>
    </defs>
    <g stroke="none" stroke-width="1" fill="none" fill-rule="evenodd">
        <g>
            <rect fill="#C1B5D0" fill-rule="nonzero" x="0" y="0" width="375" height="182"></rect>
            <g transform="translate(0.000000, 3.000000)">
                <g transform="translate(287.000000, 12.000000)" fill="#D4CDDE">
                    <path d="M0,18.907197 C0,12.9402504 5.1711454,8.10308442 11.5500765,8.10308442 C12.5816771,8.10308442 13.58169,8.22959251 14.5333522,8.46692823 C17.0870257,3.45982303 22.5491691,0 28.8751913,0 C37.1596259,0 43.9625077,5.93359923 44.6918253,13.5053621 C49.5407449,13.5051407 53.4191039,17.1330152 53.4191039,21.6082251 C53.4191039,25.6232984 50.2972819,28.9563228 46.2003061,29.599273 L46.2003061,29.7113095 L10.106317,29.7113095 C4.40879187,28.9631357 0,24.416778 0,18.907197 Z"></path>
                </g>
                <g transform="translate(155.188913, 12.000000)" fill="#D4CDDE">
                    <path d="M0,18.907197 C0,12.9402504 5.1711454,8.10308442 11.5500765,8.10308442 C12.5816771,8.10308442 13.58169,8.22959251 14.5333522,8.46692823 C17.0870257,3.45982303 22.5491691,0 28.8751913,0 C37.1596259,0 43.9625077,5.93359923 44.6918253,13.5053621 C49.5407449,13.5051407 53.4191039,17.1330152 53.4191039,21.6082251 C53.4191039,25.6232984 50.2972819,28.9563228 46.2003061,29.599273 L46.2003061,29.7113095 L10.106317,29.7113095 C4.40879187,28.9631357 0,24.416778 0,18.907197 Z"></path>
                </g>
                <g transform="translate(333.000000, 136.000000)" fill-rule="nonzero">
                    <g>
                        <ellipse fill="#E7E9E9" cx="19.9120788" cy="19.1514511" rx="19.9120788" ry="19.1514511"></ellipse>
                        <path d="M9.81825854,2.6394914 C12.7779819,0.962175004 16.2282037,-1.42108547e-14 19.9120788,-1.42108547e-14 C26.0287791,-1.42108547e-14 31.5013149,2.6526421 35.1539556,6.82710772 C30.5260297,5.71529183 25.7473412,6.50719152 20.8178902,9.20280681 C15.4355073,12.1461028 12.2223927,15.4623176 11.1785465,19.1514511 C8.92765189,15.1615654 8.21703958,10.7726912 9.04670953,5.98482846 C9.25273288,4.79590803 9.50991589,3.68079567 9.81825854,2.6394914 Z" fill="#66CBEC"></path>
                        <path d="M5.43063365,32.2961631 C5.06371275,31.0784023 4.91988089,29.8526186 4.99913807,28.6188122 C5.25079935,24.7011695 6.91691225,21.5453825 9.99747678,19.1514511 C11.5409286,24.737291 14.978666,28.7271766 20.3106891,31.121108 C25.1816472,33.3080339 30.0664662,33.4971394 34.9651461,31.6884246 C31.3141248,35.7401292 25.9242722,38.3029022 19.9120788,38.3029022 C14.2062956,38.3029022 9.06103469,35.9946949 5.43063365,32.2961631 Z" fill="#FA96A0"></path>
                        <ellipse fill="#FFFFFF" cx="9.95603941" cy="19.1514511" rx="4.97801971" ry="4.78786277"></ellipse>
                    </g>
                </g>
                <g transform="translate(93.000000, 136.000000)" fill-rule="nonzero">
                    <polygon fill="#BA3A26" points="14.3859046 0 23.790095 9.17456497 4.98171421 9.17456497"></polygon>
                    <path d="M19.0879998,18.3491299 C19.0879998,15.8156438 16.9828,13.7618475 14.3859046,13.7618475 C11.7890091,13.7618475 9.68380939,15.8156438 9.68380939,18.3491299 L7.3327618,18.3491299 L7.3327618,9.17456497 L21.4390474,9.17456497 L21.4390474,18.3491299 L19.0879998,18.3491299 Z" fill="#66CBEC"></path>
                    <rect fill="#FF9100" x="3.80619041" y="18.3491299" width="21.1594283" height="4.58728248"></rect>
                    <rect fill="#005B82" x="0.279619022" y="32.1109774" width="28.2125711" height="4.58728248"></rect>
                    <rect fill="#91C823" x="3.80619041" y="22.9364124" width="4.70209519" height="9.17456497"></rect>
                    <rect fill="#FA96A0" x="0.279619022" y="36.6982599" width="4.70209519" height="9.17456497"></rect>
                    <rect fill="#3E3832" x="12.034857" y="36.6982599" width="4.70209519" height="9.17456497"></rect>
                    <rect fill="#A2AD00" x="22.6145712" y="36.6982599" width="4.70209519" height="9.17456497"></rect>
                    <rect fill="#634689" x="20.2635236" y="22.9364124" width="4.70209519" height="9.17456497"></rect>
                </g>
                <g transform="translate(38.000000, 145.000000) scale(-1, 1) translate(-38.000000, -145.000000) translate(1.000000, 111.000000)" fill-rule="nonzero">
                    <g>
                        <path d="M19.3792372,6.34622755 L20.8223773,5.37809292 C23.2134502,3.77403495 26.5090434,4.33077546 28.1832907,6.62160766 L37.2777692,19.0653635 L35.8346291,20.0334981 C33.4435562,21.6375561 30.147963,21.0808156 28.4737157,18.7899834 L19.3792372,6.34622755 Z" fill="#59514B"></path>
                        <path d="M2.72972887,15.6387414 L17.2102825,5.14548156 C18.7623158,4.02080852 20.9721097,4.31450622 22.1459954,5.80147374 C22.2090977,5.88140577 22.2684534,5.96399042 22.3238861,6.04898228 L27.5771155,14.103464 C28.6083246,15.6845591 28.1064689,17.7672041 26.4561893,18.755182 C26.3674784,18.8082908 26.276343,18.8575884 26.1830539,18.9029283 L9.99122986,26.7723933 C6.81461158,28.3162766 2.93329422,27.2814459 1.04573691,24.3873603 C-0.841820401,21.4932746 -0.111161144,17.697378 2.72972887,15.6387414 Z" fill="#D8A25D"></path>
                        <path d="M58.1377115,26.2397931 L59.6634308,25.3958475 C62.1913252,23.9975526 65.4237312,24.8273629 66.8832118,27.2492806 L73.0493327,37.4815773 L71.5236134,38.325523 C68.995719,39.7238178 65.763313,38.8940075 64.3038324,36.4720898 L58.1377115,26.2397931 Z" fill="#59514B"></path>
                        <path d="M26.6015481,12.3268906 L34.8268252,23.5387355 C37.0648361,26.58936 36.2978699,30.8005867 33.1137583,32.9447737 C32.9425961,33.0600346 32.7661615,33.1679356 32.5849787,33.2681562 L30.6718949,34.326371 C27.301369,36.1907642 22.9914942,35.0843504 21.0455202,31.8551268 C20.9409143,31.6815397 20.8444287,31.5035756 20.7563501,31.3217635 L14.7343737,18.8911715 C13.2347782,15.7956995 14.4496883,12.1154785 17.5344461,10.4091569 C20.6192039,8.70283521 24.5532856,9.53491156 26.6015481,12.3268906 Z" fill="#D8A25D"></path>
                        <path d="M31.711479,23.8726527 L52.852465,23.8726527 C58.6903871,23.8726527 63.422958,28.4068205 63.422958,34 C63.422958,39.5931795 58.6903871,44.1273473 52.852465,44.1273473 L31.711479,44.1273473 C25.8735569,44.1273473 21.140986,39.5931795 21.140986,34 C21.140986,28.4068205 25.8735569,23.8726527 31.711479,23.8726527 Z" fill="#D8A25D"></path>
                        <polygon fill="#D8A25D" transform="translate(25.954173, 47.442537) rotate(30.000000) translate(-25.954173, -47.442537) " points="22.5955296 40.6810772 29.5686673 40.5531521 29.312817 54.2039971 22.3396793 54.3319222"></polygon>
                        <polygon fill="#D8A25D" transform="translate(57.665652, 47.442537) rotate(-30.000000) translate(-57.665652, -47.442537) " points="54.0511583 40.5531521 61.0242961 40.6810772 61.2801464 54.3319222 54.3070086 54.2039971"></polygon>
                        <path d="M18.5772431,48.7326704 C23.8744421,54.7655057 32.3188811,58.6691528 41.8315485,58.6691528 C51.3682179,58.6691528 59.8312614,54.7457817 65.1258875,48.6869691 C65.7992124,47.9164615 67.9689208,46.7767103 69.3313531,48.1349983 C70.9203848,49.7191966 72.7153326,50.8200355 73.6473551,51.5595539 C74.5046283,52.239762 73.5883316,54.2299901 72.8546985,55.0135649 C65.5818549,62.7815032 54.3875839,67.7578243 41.8315485,67.7578243 C29.6113741,67.7578243 18.6810868,63.0441656 11.4003901,55.6308839 C10.7061878,54.9240398 10.0246817,52.8409068 11.2353108,51.645784 C12.0956389,50.7964755 13.4385837,49.6624679 14.7333771,48.1925227 C15.6941761,47.1017528 17.8885256,47.9483088 18.5772431,48.7326704 Z" fill="#A2AD00"></path>
                        <ellipse fill="#59514B" cx="12.3322418" cy="13.7453054" rx="1.76174883" ry="2.53183682"></ellipse>
                        <polygon fill="#59514B" transform="translate(7.871010, 20.365403) rotate(-32.000000) translate(-7.871010, -20.365403) " points="5.99723545 13.4976858 9.47925255 13.5640686 9.74478371 27.2331206 6.26276661 27.1667378"></polygon>
                        <polygon fill="#D8A25D" points="19.3792372 0.242175696 22.9027348 6.99374056 15.8557395 6.99374056"></polygon>
                        <path d="M38.7584744,24.7165983 L45.8054697,24.7165983 C47.7514437,24.7165983 49.3289674,26.2279876 49.3289674,28.0923807 L49.3289674,34.8439456 C49.3289674,36.7083388 47.7514437,38.219728 45.8054697,38.219728 L38.7584744,38.219728 C36.8125003,38.219728 35.2349767,36.7083388 35.2349767,34.8439456 L35.2349767,28.0923807 C35.2349767,26.2279876 36.8125003,24.7165983 38.7584744,24.7165983 Z" fill="#59514B"></path>
                        <path d="M35.6754139,22.1847615 L48.8885301,22.1847615 C50.1047639,22.1847615 51.0907162,23.1293798 51.0907162,24.2946255 L51.0907162,25.1385711 C51.0907162,26.3038168 50.1047639,27.2484351 48.8885301,27.2484351 L35.6754139,27.2484351 C34.4591801,27.2484351 33.4732279,26.3038168 33.4732279,25.1385711 L33.4732279,24.2946255 C33.4732279,23.1293798 34.4591801,22.1847615 35.6754139,22.1847615 Z" fill="#FF9100"></path>
                    </g>
                </g>
                <g transform="translate(353.286974, 60.988138) scale(-1, -1) rotate(-20.000000) translate(-353.286974, -60.988138) translate(342.786974, 50.988138)" fill="#D4CDDE">
                    <polygon points="7.39113439 13.4030406 0.570479444 11.5316383 6.55223653 7.43142781 6.64080134 0.576258777 12.302128 4.53995233 19.177519 2.17462711 16.6946541 8.72453495 20.8553147 14.1178526 13.6594932 14.2022247 9.35553182 19.9008036"></polygon>
                </g>
                <g transform="translate(351.475887, 12.988138) scale(-1, -1) rotate(-20.000000) translate(-351.475887, -12.988138) translate(340.975887, 2.988138)" fill="#D4CDDE">
                    <polygon points="7.39113439 13.4030406 0.570479444 11.5316383 6.55223653 7.43142781 6.64080134 0.576258777 12.302128 4.53995233 19.177519 2.17462711 16.6946541 8.72453495 20.8553147 14.1178526 13.6594932 14.2022247 9.35553182 19.9008036"></polygon>
                </g>
                <g transform="translate(110.377826, 33.749459) scale(-1, -1) rotate(-140.000000) translate(-110.377826, -33.749459) translate(95.377826, 19.249459)" fill="#D4CDDE">
                    <polygon points="10.4345427 18.9219396 0.805382744 16.27996 9.25021628 10.4914275 9.37524895 0.813541802 17.3677101 6.40934446 27.0741444 3.0700618 23.5689235 12.3169905 29.4427972 19.931086 19.2839904 20.0501996 13.2078096 28.0952521"></polygon>
                </g>
                <g transform="translate(254.000000, 32.749459) scale(-1, -1) rotate(-140.000000) translate(-254.000000, -32.749459) translate(239.000000, 18.249459)" fill="#D4CDDE">
                    <polygon points="10.4345427 18.9219396 0.805382744 16.27996 9.25021628 10.4914275 9.37524895 0.813541802 17.3677101 6.40934446 27.0741444 3.0700618 23.5689235 12.3169905 29.4427972 19.931086 19.2839904 20.0501996 13.2078096 28.0952521"></polygon>
                </g>
                <g transform="translate(139.000000, 58.000000)">
                    <g transform="translate(20.425225, 1.303096)" fill-rule="nonzero">
                        <path d="M78.8189704,70.798221 C84.8073542,69.9605751 91.6955192,71.117033 98.9837838,74.5802741 C112.16506,80.8437593 124.85558,95.4486616 137.055344,118.394981 L137.055281,118.395014 C137.461869,119.159757 137.170071,120.108537 136.403533,120.514173 C136.176781,120.634165 135.924016,120.696904 135.667341,120.696904 L81.873982,120.696903 C68.5965084,120.696903 57.8329893,109.958587 57.8329893,96.7122023 C57.8329893,95.4464721 57.9334177,94.1827279 58.1333333,92.9328105 C58.8566434,88.4105146 60.3291711,84.4834927 62.4167839,81.2356792 C61.0704863,74.7808038 60.972122,67.7867283 62.1216909,60.2534525 C63.6226492,50.4174762 66.6432119,41.5007153 71.1833789,33.5031698 C62.9427298,32.4811528 56.5621622,25.3992563 56.5621622,16.814917 C56.5621622,7.52829476 64.0294196,0 73.2407484,0 C82.4520773,0 89.9193347,7.52829476 89.9193347,16.814917 C89.9193347,21.8345423 87.7376692,26.3404473 84.2781508,29.4214314 C81.4145471,34.7797156 79.2025109,41.3204077 77.642042,49.0435078 C75.9006427,57.6620726 76.5394098,64.3173103 78.8189704,70.798221 Z" fill="#FFFFFF"></path>
                        <path d="M1.21789531,18.5562334 C0.585847199,18.4818508 0.0878122612,18.0031927 0.010418615,17.3957354 C-0.0826331475,16.6653786 0.457972583,16.000809 1.21789531,15.9113776 L56.3365112,9.42474802 C57.3096039,9.31022969 58.2732773,9.69813751 58.8710138,10.4449623 L64.1305409,17.0163285 C64.5398353,17.5277098 64.5090688,18.2474637 64.0575084,18.7248547 L58.8713745,24.20765 C58.2662648,24.8473736 57.3758281,25.1651748 56.4829369,25.060095 L1.21789531,18.5562334 Z" fill="#FFBD66"></path>
                    </g>
                    <path d="M37.7081081,92.2176471 C52.459584,92.2176471 64.418018,79.7684994 64.418018,64.4116974 C64.418018,54.1738294 55.5147147,38.3626032 37.7081081,16.9780186 C19.9015015,38.3626032 10.9981982,54.1738294 10.9981982,64.4116974 C10.9981982,79.7684994 22.9566322,92.2176471 37.7081081,92.2176471 Z" fill="#78706A" fill-rule="nonzero"></path>
                    <g transform="translate(17.282883, 35.787926)">
                        <g transform="translate(6.270566, 36.055752)" fill-rule="evenodd" stroke-width="1">
                            <g>
                                <g>
                                    <mask id="veiviser-mobil-mask1" fill="white">
                                        <use xlink:href="#veiviser-mobil-path"></use>
                                    </mask>
                                    <use fill="#D8A25D" xlink:href="#veiviser-mobil-path"></use>
                                    <g mask="url(#veiviser-mobil-mask1)" fill="#5EAEC7">
                                        <g transform="translate(-53.099342, -68.976222)">
                                            <polygon points="0 147.777661 147.643318 147.777661 147.643318 0 0 0"></polygon>
                                        </g>
                                    </g>
                                </g>
                            </g>
                        </g>
                        <path d="M1.60334348,17.6431594 C2.20671104,7.79803723 10.3823601,0 20.3793383,0 C30.3763165,0 38.5519655,7.79803723 39.1553331,17.6431594 C40.1121247,18.1800007 40.7586766,19.2041644 40.7586766,20.3793383 L40.7586766,23.5146211 C40.7586766,25.24619 39.3549627,26.6499039 37.6233938,26.6499039 C37.5775772,26.6499039 37.5319902,26.6489212 37.4866526,26.6469756 C35.372554,31.2552922 31.4511788,34.8621061 26.6299221,36.5600223 C26.3731097,39.7873639 23.6727262,42.326318 20.3793383,42.326318 C17.0859504,42.326318 14.3855669,39.7873639 14.1287545,36.5600223 C9.30749781,34.8621061 5.38612254,31.2552922 3.27202395,26.6469756 C3.22668639,26.6489212 3.18109937,26.6499039 3.13528281,26.6499039 C1.40371393,26.6499039 2.12056029e-16,25.24619 0,23.5146211 L0,20.3793383 C-1.43917299e-16,19.2041644 0.646551854,18.1800007 1.60334348,17.6431594 Z" fill="#E7E5E2" fill-rule="evenodd"></path>
                        <g stroke-width="1" fill-rule="evenodd" transform="translate(14.108773, 0.000000)" fill="#78706A">
                            <path d="M4.30463083,1.87728602 C4.61434936,1.72234195 4.99103283,1.84781144 5.1459769,2.15752996 C5.30092097,2.46724849 5.17545148,2.84393195 4.86573295,2.99887603 C4.47987256,3.19191188 4.41940832,3.39467254 4.41940832,4.42124184 C4.41940832,5.48924631 3.84595182,6.25427372 2.80149697,6.602616 C2.47297287,6.712184 2.11782905,6.53468502 2.00826105,6.20616092 C1.89869304,5.87763682 2.07619203,5.52249299 2.40471613,5.41292499 C2.94592156,5.23242438 3.16529519,4.93976602 3.16529519,4.42124184 C3.16529519,2.95026799 3.34159393,2.35906817 4.30463083,1.87728602 Z" fill-rule="nonzero" transform="translate(3.594128, 4.222942) rotate(-48.000000) translate(-3.594128, -4.222942) "></path>
                            <path d="M6.96408301,1.85767951 C7.27380154,1.70273543 7.650485,1.82820492 7.80542907,2.13792345 C7.96037315,2.44764198 7.83490366,2.82432544 7.52518513,2.97926951 C7.13932473,3.17230537 7.0788605,3.37506602 7.0788605,4.40163532 C7.0788605,5.4696398 6.50540399,6.2346672 5.46094915,6.58300948 C5.13242505,6.69257749 4.77728123,6.5150785 4.66771322,6.1865544 C4.55814522,5.8580303 4.7356442,5.50288648 5.0641683,5.39331847 C5.60537374,5.21281787 5.82474737,4.9201595 5.82474737,4.40163532 C5.82474737,2.93066147 6.0010461,2.33946166 6.96408301,1.85767951 Z" fill-rule="nonzero" transform="translate(6.253580, 4.203336) rotate(-27.000000) translate(-6.253580, -4.203336) "></path>
                            <path d="M9.62353519,1.83807299 C9.93325371,1.68312892 10.3099372,1.80859841 10.4648812,2.11831693 C10.6198253,2.42803546 10.4943558,2.80471893 10.1846373,2.959663 C9.79877691,3.15269885 9.73831267,3.35545951 9.73831267,4.38202881 C9.73831267,5.45003328 9.16485617,6.21506069 8.12040133,6.56340297 C7.79187723,6.67297097 7.4367334,6.49547199 7.3271654,6.16694789 C7.21759739,5.83842379 7.39509638,5.48327996 7.72362048,5.37371196 C8.26482591,5.19321135 8.48419955,4.90055299 8.48419955,4.38202881 C8.48419955,2.91105496 8.66049828,2.31985514 9.62353519,1.83807299 Z" fill-rule="nonzero" transform="translate(8.913032, 4.183729) rotate(-9.000000) translate(-8.913032, -4.183729) "></path>
                        </g>
                        <g transform="translate(7.838207, 14.108773)">
                            <path d="M7.58536165,13.4364659 C7.58536165,15.6631127 5.88769359,17.4680043 3.79353349,17.4680043 C1.69852073,17.4680043 0,15.6631127 0,13.4364659 C0,11.21074 1.69852073,9.40584844 3.79353349,9.40584844 C5.88769359,9.40584844 7.58536165,11.21074 7.58536165,13.4364659" fill="#E8CCC8" fill-rule="evenodd"></path>
                            <path d="M11.3911312,19.4057502 C10.5574289,19.3870812 9.83618143,18.8154274 9.55659707,18.0337491 L9.39041802,15.3681868 L13.2194951,15.453931 L13.1676955,18.1146121 C12.9215437,18.8845177 12.2244943,19.4244116 11.3911312,19.4057502 Z" fill="#FA96A0" fill-rule="evenodd" transform="translate(11.304957, 17.387203) rotate(23.000000) translate(-11.304957, -17.387203) "></path>
                            <path d="M25.2845388,13.4364659 C25.2845388,15.6631127 23.5868708,17.4680043 21.4927107,17.4680043 C19.3976979,17.4680043 17.6991772,15.6631127 17.6991772,13.4364659 C17.6991772,11.21074 19.3976979,9.40584844 21.4927107,9.40584844 C23.5868708,9.40584844 25.2845388,11.21074 25.2845388,13.4364659" fill="#E8CCC8" fill-rule="evenodd"></path>
                            <path d="M13.6839103,7.43557408 C13.3422661,7.51188269 13.0071067,7.27937689 12.935311,6.91625783 C12.8635152,6.55313877 13.0822707,6.19691226 13.423915,6.12060365 C14.2739239,5.93074827 14.9845585,6.07681998 15.3757943,6.77431911 C16.1358622,8.13129972 15.871052,9.6950487 14.6725613,10.7782179 C13.9759355,11.4075774 12.9981715,11.6334505 12.3151192,11.1943304 C12.016405,11.0022933 11.9207195,10.5892396 12.1013996,10.2717491 C12.2820797,9.95425864 12.6707055,9.8525586 12.9694196,10.0445957 C13.1189433,10.1407214 13.5317314,10.0453633 13.853692,9.75449131 C14.5876261,9.0911779 14.7303008,8.2486599 14.2896961,7.46202987 C14.2482399,7.38812128 14.0649975,7.35045562 13.6839103,7.43557408 Z" fill="#D1BFA3" fill-rule="nonzero"></path>
                            <path d="M17.085937,2.85033194 C17.0012662,2.4903601 17.207184,2.12559156 17.5458671,2.0355986 C17.8845503,1.94560564 18.2277465,2.16446677 18.3124173,2.5244386 C18.6697384,4.04356351 19.2901046,4.70292422 20.2276311,4.70292422 C21.1651575,4.70292422 21.7855238,4.04356351 22.1428448,2.5244386 C22.2275156,2.16446677 22.5707118,1.94560564 22.909395,2.0355986 C23.2480782,2.12559156 23.4539959,2.4903601 23.3693251,2.85033194 C22.8838282,4.91438739 21.8185585,6.04661686 20.2276311,6.04661686 C18.6367036,6.04661686 17.571434,4.91438739 17.085937,2.85033194 Z" fill="#635E59" fill-rule="nonzero" transform="translate(20.227631, 4.030998) scale(1, -1) translate(-20.227631, -4.030998) "></path>
                            <path d="M5.69784054,6.7139443 C3.95545496,6.83522786 3.46777966,4.4878537 3.99278319,2.95722451 C4.09152239,2.66552988 4.66830379,1.34369263 5.68941158,1.34369263 C6.70931523,1.34369263 7.1596623,2.06678827 7.2222774,2.1911423 C7.97245446,3.68492585 7.60519282,6.58344934 5.69784054,6.7139443" fill="#635E59" fill-rule="evenodd"></path>
                            <path d="M9.54843605,15.0810778 C9.39231082,14.7492002 9.51887533,14.3456402 9.83112579,14.1797014 C10.1433763,14.0137626 10.5230698,14.1482825 10.679195,14.4801602 C10.982379,15.1246427 11.5992495,15.4524653 12.6422694,15.4524653 C13.6852894,15.4524653 14.3021598,15.1246427 14.6053438,14.4801602 C14.7614691,14.1482825 15.1411626,14.0137626 15.453413,14.1797014 C15.7656635,14.3456402 15.892228,14.7492002 15.7361028,15.0810778 C15.1964688,16.2281854 14.1277034,16.7961579 12.6422694,16.7961579 C11.1568355,16.7961579 10.08807,16.2281854 9.54843605,15.0810778 Z" fill="#593A32" fill-rule="nonzero" transform="translate(12.642269, 15.452392) scale(1, -1) rotate(-180.000000) translate(-12.642269, -15.452392) "></path>
                        </g>
                    </g>
                    <rect fill="#C6C2BF" fill-rule="nonzero" x="32.9945946" y="9.14055728" width="9.42702703" height="18.8099071" rx="4.70292422"></rect>
                    <path d="M36.9858868,12.5882377 C32.4756068,7.73114682 28.3319792,5.30402295 24.5550039,5.30686608 C20.7780286,5.30970921 16.5452882,6.52801691 11.8567827,8.96178918 C15.9380422,12.1567023 19.7903465,14.0156064 23.4136957,14.5385017 C27.0370449,15.0613969 31.5611086,14.4113089 36.9858868,12.5882377 Z" fill="#C6C2BF" fill-rule="nonzero" transform="translate(24.421335, 10.010094) rotate(20.000000) translate(-24.421335, -10.010094) "></path>
                    <path d="M63.696444,12.5882377 C59.186164,7.73114682 55.0425364,5.30402295 51.2655611,5.30686608 C47.4885858,5.30970921 43.2558454,6.52801691 38.5673399,8.96178918 C42.6485994,12.1567023 46.5009037,14.0156064 50.1242529,14.5385017 C53.7476021,15.0613969 58.2716658,14.4113089 63.696444,12.5882377 Z" fill="#C6C2BF" fill-rule="nonzero" transform="translate(51.131892, 10.010094) scale(-1, 1) rotate(20.000000) translate(-51.131892, -10.010094) "></path>
                    <g transform="translate(45.563964, 68.705263)" fill="#E7E5E2">
                        <path d="M10.5292717,3.91823149 L10.5292717,7.63708585 L10.5268157,7.61997193 L10.2124507,7.61997193 L10.2124507,2.02885496 C10.2124507,1.44013619 9.75563911,0.96265788 9.19240186,0.96265788 C8.62916461,0.96265788 8.17153435,1.44013619 8.17153435,2.02885496 L8.17153435,7.61997193 L7.78430874,7.61997193 L7.78430874,1.06619708 C7.78430874,0.478334004 7.32749714,0 6.76425989,0 C6.20102264,0 5.74421104,0.478334004 5.74421104,1.06619708 L5.74421104,7.61997193 L5.35698543,7.61997193 L5.35698543,2.32578144 C5.35698543,1.73706266 4.90017383,1.25872866 4.33611792,1.25872866 C3.77288067,1.25872866 3.31606907,1.73706266 3.31606907,2.32578144 L3.31606907,10.2375457 C3.13678279,10.2016064 2.90592101,10.1143255 2.76756768,9.89270022 C2.51787675,9.48966745 2.62266507,9.59491805 2.23789544,8.5834855 C1.85312581,7.57119726 1.49537192,6.85925828 0.634961531,7.0843063 C-0.348247676,7.34101507 0.0103248742,8.98395118 0.3852706,11.1052213 C0.634961531,12.5162638 1.4798174,13.9161823 2.11427796,14.960987 C2.74791987,16.0040803 3.95789756,17.5280747 4.38032549,17.5280747 L4.47610857,28.2148607 L11.1801054,28.2148607 L11.1801054,18.0722973 C11.1801054,17.4621861 11.742524,17.2482621 11.742524,17.2482621 C12.2132528,17.0779786 12.5693694,16.2992954 12.5693694,15.2407996 L12.5693694,3.91823149 C12.5693694,3.32951272 12.1125578,2.85203441 11.5485019,2.85203441 C10.9860833,2.85203441 10.5292717,3.32951272 10.5292717,3.91823149 Z"></path>
                    </g>
                    <path d="M37.7081081,122 C16.8824951,122 0,104.363707 0,82.608238 C0,68.1045917 12.5693694,45.7053545 37.7081081,15.4105263 C62.8468468,45.7053545 75.4162162,68.1045917 75.4162162,82.608238 C75.4162162,104.363707 58.5337212,122 37.7081081,122 Z M37.7081081,89.0826625 C51.5918501,89.0826625 62.8468468,77.4115866 62.8468468,63.0145847 C62.8468468,53.4165835 54.4672673,38.5935589 37.7081081,18.5455108 C20.9489489,38.5935589 12.5693694,53.4165835 12.5693694,63.0145847 C12.5693694,77.4115866 23.8243661,89.0826625 37.7081081,89.0826625 Z" fill="#C6C2BF" fill-rule="nonzero"></path>
                    <ellipse fill="#635E59" cx="88.7711712" cy="12.2755418" rx="2.35675676" ry="3.13498452"></ellipse>
                </g>
                <rect fill="#826BA1" fill-rule="nonzero" x="0" y="178" width="375" height="4"></rect>
            </g>
        </g>
    </g>
</svg>