<svg xmlns="http://www.w3.org/2000/svg" width="180" height="115" viewBox="0 0 180 115">
    <g fill="none" fill-rule="evenodd">
        <path fill="#FFF" d="M60.192 93.051c-2.315 0-4.192-1.929-4.192-4.309V10.4c0-2.378 1.877-4.309 4.192-4.309h55.012c2.315 0 4.192 1.93 4.192 4.31v78.341c0 2.38-1.877 4.31-4.192 4.31H60.192z"/>
        <path fill="#627282" d="M60.696 76.374H114.7V10.856H60.696zM93.568 84.712c0 2.631-2.103 4.766-4.696 4.766-2.594 0-4.696-2.135-4.696-4.766 0-2.631 2.102-4.764 4.696-4.764 2.593 0 4.696 2.133 4.696 4.764"/>
        <path fill="#B2AAA0" d="M87.167 21.333h2.5V65.5h-2.5z"/>
        <path fill="#F7F7F7" d="M78.197 26.23l18.984-.347 3.73 2.48-3.646 2.616-18.984.346z"/>
        <path fill="#DEDEDE" d="M98.272 34.722l-18.975-.692-3.77 2.41 3.602 2.677 18.976.692z"/>
        <g>
            <path fill="#38A161" d="M94.928 57.549c-1.002 1.568-1.705 3.113-2.111 4.636-.406 1.523-.616 2.643-.63 3.361h-3.041c.29-1.215.846-2.547 1.67-3.997.824-1.45 2.195-2.784 4.112-4z"/>
            <path fill="#117938" d="M96.996 59.128c-.8 1.211-1.42 2.43-1.863 3.657-.444 1.228-.717 2.139-.822 2.734l-1.786-.277c.333-.982.84-2.038 1.518-3.167.68-1.13 1.663-2.111 2.953-2.947z"/>
            <path fill="#6AB889" d="M94.643 60.214a17.1 17.1 0 0 0-1.236 3.123c-.292 1.04-.473 1.81-.54 2.308L91.67 65.5c.22-.831.555-1.731 1.006-2.7.45-.97 1.106-1.832 1.967-2.587z"/>
            <path fill="#06893A" d="M92.583 57.549c-1.001 1.568-1.705 3.113-2.11 4.636-.407 1.523-.616 2.643-.63 3.361h-3.042c.29-1.215.847-2.547 1.67-3.997.825-1.45 2.195-2.784 4.112-4z"/>
            <path fill="#38A161" d="M82.218 57.549c1.002 1.568 1.705 3.113 2.111 4.636.406 1.523.616 2.643.63 3.361H88c-.29-1.215-.846-2.547-1.67-3.997-.824-1.45-2.195-2.784-4.112-4z"/>
            <path fill="#6AB889" d="M79.641 60.609c.758.899 1.398 1.823 1.923 2.771.524.949.877 1.659 1.058 2.13l1.132-.404c-.405-.761-.939-1.564-1.601-2.41-.662-.845-1.5-1.541-2.512-2.087z"/>
            <path fill="#06893A" d="M86.79 60.182a17.082 17.082 0 0 0-1.163 3.15c-.269 1.046-.431 1.818-.488 2.318l-1.2-.117c.202-.835.516-1.743.944-2.722.428-.979 1.064-1.855 1.906-2.63z"/>
            <path fill="#38A161" d="M81.246 58.824c.595 1.318 1.013 2.617 1.255 3.897.241 1.28.366 2.222.374 2.825h1.808c-.172-1.02-.503-2.141-.993-3.36-.49-1.219-1.305-2.34-2.444-3.362z"/>
            <path fill="#06893A" d="M84.225 60.609c.757.899 1.398 1.823 1.922 2.771.524.949.877 1.659 1.058 2.13l1.133-.404c-.406-.761-.94-1.564-1.602-2.41-.662-.845-1.5-1.541-2.511-2.087z"/>
            <path fill="#6AB889" d="M85.25 58.824c.595 1.318 1.014 2.617 1.255 3.897.241 1.28.366 2.222.374 2.825h1.809c-.173-1.02-.504-2.141-.993-3.36-.49-1.219-1.305-2.34-2.445-3.362z"/>
        </g>
        <g>
            <path fill="#561D5B" d="M32.783 91.404l20.927 7.383-5.557 15.71H24.2z"/>
            <path fill="#7C7086" d="M32.783 91.404l20.927 7.383-2.232 6.31-20.928-7.382z"/>
            <path fill="#37363A" d="M33.834 95.376a1.408 1.408 0 0 1 2.655.937 1.407 1.407 0 0 1-2.655-.937"/>
            <path fill="#E7E6E2" d="M49.194 85.517l.33.24a3.503 3.503 0 0 0 4.888-.786l11.626-16.058a3.494 3.494 0 0 0-.785-4.882l-.331-.238a3.503 3.503 0 0 0-4.888.784L48.41 80.637a3.493 3.493 0 0 0 .785 4.88"/>
            <path fill="#E7E6E2" d="M55.869 70.33V58.073H54.81a.853.853 0 0 0-.62.263c-1.758 1.832-12.125 12.65-13.983 14.695-.2.221-.346.482-.43.768l-5.292 18.207 16.085 5.675s.259-1.204.517-2.58c.258-1.374 3.884-5.67 4.78-7.818.898-2.147 1.217-6.002 2.606-7.921 1.39-1.92-2.605-9.03-2.605-9.03"/>
        </g>
        <g>
            <g fill="#E7E6E2">
                <path d="M133.47 62.65c1.275-.343 2.547.28 2.844 1.389l5.722 21.355c.297 1.109-.493 2.284-1.769 2.626-1.273.34-2.546-.281-2.843-1.39l-5.722-21.356c-.297-1.109.494-2.284 1.767-2.625M127.606 60.08a2.384 2.384 0 0 1 2.923 1.683l7.42 27.69a2.384 2.384 0 0 1-1.69 2.919 2.385 2.385 0 0 1-2.924-1.684L125.915 63a2.384 2.384 0 0 1 1.691-2.92M121.74 57.51a2.388 2.388 0 0 1 2.925 1.684l8.892 33.188a2.385 2.385 0 0 1-1.69 2.919 2.384 2.384 0 0 1-2.923-1.683L120.05 60.43a2.387 2.387 0 0 1 1.69-2.921M115.876 54.94c1.275-.342 2.594.452 2.947 1.768l6.147 22.942c.354 1.319-.393 2.663-1.667 3.004-1.275.342-2.594-.449-2.947-1.767l-6.147-22.943c-.353-1.316.393-2.663 1.667-3.004"/>
                <path d="M141.83 90.89l-.666-2.484c-.182-.68 1.08-1.625 1.08-1.625l-8.288-19.164-13.882 3.72-.633 7.192s-.544.307-1.33-.29c-.786-.598-3.488-3.666-3.488-3.666s-3.455-3.552-5.413-2.22c-1.954 1.33-.23 3.813-.23 3.813s2.262 4.038 3.425 5.942c1.469 2.407 3.974 4.585 5.982 6.148 2.006 1.558 5.604 3.657 6.593 3.392l1.165 3.445 15.685-4.203z"/>
            </g>
            <path fill="#561D5B" d="M146.427 91.404L125.5 98.787l5.557 15.71h23.954z"/>
            <path fill="#7C7086" d="M145.478 88.404l-20.928 7.383 2.233 6.31 20.927-7.382z"/>
            <path fill="#37363A" d="M145.49 92.376a1.408 1.408 0 0 0-2.656.937 1.407 1.407 0 0 0 2.655-.937"/>
        </g>
    </g>
</svg>
