<?xml version="1.0" encoding="UTF-8"?>
<svg width="100px" height="100px" viewBox="0 0 100 100" version="1.1" xmlns="http://www.w3.org/2000/svg" xmlns:xlink="http://www.w3.org/1999/xlink">
    <!-- Generator: Sketch 55.1 (78136) - https://sketchapp.com -->
    <title>ikon/faa svar</title>
    <desc>Created with Sketch.</desc>
    <g   stroke="none" stroke-width="1" fill="none" fill-rule="evenodd">
        <circle   fill="#C1B5D0" cx="50" cy="50" r="50"></circle>
        <path d="M53.46875,99.8815553 C52.3226831,99.9600879 51.1660025,100 50,100 C49.1722211,100 48.3491404,99.9798843 47.5312202,99.9401152 L47.5312202,37.7916667 L53.46875,37.7916667 L53.46875,99.8815553 L53.46875,99.8815553 Z"   fill="#654A28"></path>
        <rect   fill="#654A28" x="20.8125" y="63.5208333" width="61.3541667" height="3.95833333"></rect>
        <path d="M34.6666667,27.8958333 L36.6458333,27.8958333 C44.2972783,27.8958333 50.5,34.098555 50.5,41.75 L50.5,63.5208333 L20.8125,63.5208333 L20.8125,41.75 C20.8125,34.098555 27.0152217,27.8958333 34.6666667,27.8958333 Z"   fill="#979797"></path>
        <path d="M26.75,36.75 L55.25,36.75 C56.4926407,36.75 57.5,37.7573593 57.5,39 L57.5,57 C57.5,58.2426407 56.4926407,59.25 55.25,59.25 L26.75,59.25 C25.5073593,59.25 24.5,58.2426407 24.5,57 L24.5,39 C24.5,37.7573593 25.5073593,36.75 26.75,36.75 Z"   fill="#4C92D9"></path>
        <rect   fill="#0C576F" x="27.5" y="39.75" width="10.5" height="1.5"></rect>
        <rect   fill="#0C576F" x="41.75" y="51.75" width="12.75" height="1.5"></rect>
        <rect   fill="#0C576F" x="41.75" y="48.75" width="12.75" height="1.5"></rect>
        <rect   fill="#0C576F" x="27.5" y="42.75" width="10.5" height="1.5"></rect>
        <rect   fill="#0C576F" x="41.75" y="54.75" width="12.75" height="1.5"></rect>
        <polygon   fill="#FFBD66" transform="translate(52.625000, 42.375000) rotate(-90.000000) translate(-52.625000, -42.375000) " points="50 40.5 55.25 40.5 55.25 44.25 50 44.25"></polygon>
        <rect   fill="#FFBD66" transform="translate(46.625000, 43.125000) rotate(-180.000000) translate(-46.625000, -43.125000) " x="44" y="41.25" width="5.25" height="3.75"></rect>
        <path d="M36.6458333,27.8958333 L68.3125,27.8958333 C75.963945,27.8958333 82.1666667,34.098555 82.1666667,41.75 L82.1666667,63.5208333 L50.5,63.5208333 L50.5,41.75 C50.5,34.098555 44.2972783,27.8958333 36.6458333,27.8958333 Z"   fill="#F7F7F7"></path>
        <circle   fill="#BA3A26" cx="61.3854167" cy="50.65625" r="2.96875"></circle>
        <rect   fill="#BA3A26" x="58.4166667" y="18.9895833" width="1.97916667" height="31.6666667"></rect>
        <rect   fill="#BA3A26" x="58.4166667" y="18" width="9.89583333" height="5.9375"></rect>
    </g>
</svg>