<?xml version="1.0" encoding="UTF-8"?>
<svg width="123px" height="97px" viewBox="0 0 123 97" version="1.1" xmlns="http://www.w3.org/2000/svg" xmlns:xlink="http://www.w3.org/1999/xlink">
    <!-- Generator: Sketch 61.2 (89653) - https://sketch.com -->
    <title>omsorgspenger</title>
    <desc>Created with Sketch.</desc>
    <defs>
        <polygon id="path-1" points="0 0 134.64 0 134.64 96.768 0 96.768"></polygon>
        <path d="M37.256,12.6 L37.256,29.466 L0,29.466 L0,12.6 C0,7.776 6.086,2.268 10.16,0 L27.095,0 C31.207,2.308 37.255,7.832 37.255,12.6 L37.256,12.6 Z" id="path-3"></path>
    </defs>
    <g id="Page-1" stroke="none" stroke-width="1" fill="none" fill-rule="evenodd">
        <g id="omsorgspenger" transform="translate(-12.000000, 0.000000)">
            <mask id="mask-2" fill="white">
                <use xlink:href="#path-1"></use>
            </mask>
            <g id="0273256956-6315-25187-29136-20699067901840_a"></g>
            <g id="Group" mask="url(#mask-2)">
                <g transform="translate(12.000000, 0.000000)">
                    <polygon id="Path" fill="#5C4378" fill-rule="nonzero" points="121.642 120.815 132.982 99.667 99.939 81.657 88.549 101.385"></polygon>
                    <polygon id="Path" fill="#826BA1" fill-rule="nonzero" points="90.625 102.584 102.015 82.855 95.785 79.258 84.395 98.987"></polygon>
                    <path d="M95.463,84.612 C95.1319053,85.1855477 95.3284523,85.9189053 95.902,86.25 C96.4755477,86.5810947 97.2089053,86.3845477 97.54,85.811 C97.8407346,85.2405844 97.6368991,84.5344753 97.0784354,84.2120882 C96.5199716,83.8897011 95.8065654,84.0663095 95.463,84.612 L95.463,84.612 Z" id="Path" fill="#2F3137" fill-rule="nonzero"></path>
                    <g id="Group" stroke-width="1" fill="none" fill-rule="evenodd" transform="translate(10.081000, 66.246000)">
                        <g id="1926818445-5954-1970-13084-188743009301904_c-link" fill="#D8A25D" fill-rule="nonzero">
                            <path d="M37.256,12.6 L37.256,29.466 L0,29.466 L0,12.6 C0,7.776 6.086,2.268 10.16,0 L27.095,0 C31.207,2.308 37.255,7.832 37.255,12.6 L37.256,12.6 Z" id="1926818445-5954-1970-13084-188743009301904_c"></path>
                        </g>
                        <g id="Clipped">
                            <mask id="mask-4" fill="white">
                                <use xlink:href="#path-3"></use>
                            </mask>
                            <g id="1926818445-5954-1970-13084-188743009301904_c"></g>
                            <g id="Group" mask="url(#mask-4)" fill="#5C4378" fill-rule="nonzero">
                                <g transform="translate(-70.000000, -92.000000)" id="Path">
                                    <polygon points="0.348 195.983 194.006 195.983 194.006 0.328 0.348 0.328"></polygon>
                                </g>
                            </g>
                        </g>
                    </g>
                    <path d="M28.388,17.136 C41.616,17.136 52.441,27.606 53.298,40.846 L53.352,40.844 C55.19,40.844 56.68,42.361 56.68,44.231 L56.68,47.618 C56.68,49.488 55.19,51.005 53.352,51.005 C52.88,51.005 52.432,50.905 52.026,50.725 C49.569,58.075 43.892,63.912 36.706,66.495 L36.709,66.245 C36.709,70.922 32.984,74.713 28.389,74.713 C23.874,74.713 20.2,71.056 20.07,66.495 C12.884,63.912 7.208,58.075 4.75,50.725 C4.344,50.905 3.896,51.005 3.424,51.005 C1.586,51.005 0.096,49.488 0.096,47.618 L0.096,44.23 C0.096,42.36 1.586,40.843 3.424,40.843 L3.479,40.844 C4.335,27.604 15.159,17.135 28.389,17.135 L28.388,17.136 Z" id="Path" fill="#E7E5E2" fill-rule="nonzero"></path>
                    <path d="M32.728,57.877 C31.065,58.737 30.648,59.604 30.648,61.165 C30.648,61.633 31.015,62.012 31.469,62.012 C31.923,62.012 32.291,61.633 32.291,61.165 C32.291,60.192 32.418,59.93 33.481,59.383 C34.951,58.625 34.685,57.184 33.343,56.32 C32.313,55.656 30.69,55.238 29.003,55.238 C26.49,55.238 24.568,56.558 23.338,59.093 C23.1342251,59.5086947 23.2965332,60.0110982 23.705,60.229 C24.111,60.439 24.605,60.269 24.808,59.851 C25.769,57.871 27.135,56.931 29.004,56.931 C30.399,56.931 31.721,57.272 32.472,57.756 C32.727,57.92 32.805,57.902 32.805,57.879 L32.728,57.877 L32.728,57.877 Z" id="Path" fill="#59514B" fill-rule="nonzero"></path>
                    <path d="M21.607,54.391 C21.607,57.197 19.4,59.472 16.677,59.472 C13.954,59.472 11.746,57.197 11.746,54.392 C11.746,51.586 13.954,49.312 16.678,49.312 C19.4,49.312 21.608,51.586 21.608,54.392 M44.618,54.391 C44.618,57.197 42.411,59.472 39.688,59.472 C36.965,59.472 34.757,57.197 34.757,54.392 C34.757,51.586 36.965,49.312 39.689,49.312 C42.411,49.312 44.619,51.586 44.619,54.392" id="Shape" fill="#E8CCC8" fill-rule="nonzero"></path>
                    <path d="M29.536,46.828 C29.3200757,46.8719755 29.095535,46.8275246 28.912651,46.7045995 C28.729767,46.5816744 28.6038169,46.3905436 28.563,46.174 C28.4657739,45.7224509 28.7482563,45.2762621 29.198,45.171 C30.303,44.931 31.228,45.116 31.736,45.995 C32.724,47.705 32.38,49.675 30.822,51.041 C29.916,51.834 28.645,52.119 27.757,51.565 C27.3669372,51.315444 27.2441162,50.8020699 27.479,50.403 C27.5876122,50.212189 27.7691975,50.0737931 27.9819757,50.0196554 C28.1947539,49.9655177 28.4204015,50.0003002 28.607,50.116 C28.802,50.238 29.338,50.117 29.757,49.751 C30.711,48.915 30.897,47.853 30.324,46.861 C30.27,46.768 30.032,46.721 29.536,46.828 L29.536,46.828 Z M14.409,41.34 C14.1141698,40.9821952 14.1538655,40.4555662 14.499,40.146 C14.6629891,40.0004411 14.879259,39.928076 15.0978264,39.9456294 C15.3163938,39.9631827 15.5183428,40.0691353 15.657,40.239 C16.23,40.929 17.106,41.129 18.421,40.792 C19.737,40.454 20.418,39.852 20.611,38.967 C20.6540073,38.7508589 20.7820034,38.5610391 20.966261,38.4401436 C21.1505187,38.319248 21.3756043,38.277403 21.591,38.324 C22.0392186,38.4346183 22.3162933,38.8838085 22.214,39.334 C21.874,40.913 20.693,41.954 18.819,42.434 C16.945,42.916 15.429,42.568 14.409,41.34 L14.409,41.34 Z M42.057,41.34 C42.3518302,40.9821952 42.3121345,40.4555662 41.967,40.146 C41.8029181,39.9997923 41.586193,39.927026 41.3671244,39.9445892 C41.1480557,39.9621525 40.9456921,40.0685182 40.807,40.239 C40.235,40.929 39.36,41.129 38.044,40.792 C36.728,40.454 36.047,39.852 35.855,38.967 C35.8119927,38.7508589 35.6839966,38.5610391 35.499739,38.4401436 C35.3154813,38.319248 35.0903957,38.277403 34.875,38.324 C34.4263762,38.4341705 34.1487704,38.8835003 34.251,39.334 C34.592,40.913 35.772,41.954 37.646,42.434 C39.52,42.916 41.036,42.568 42.056,41.34 L42.057,41.34 Z" id="Shape" fill="#59514B" fill-rule="nonzero"></path>
                    <path d="M19.154,47.612 C16.888,47.765 16.254,44.807 16.937,42.878 C17.065,42.51 17.815,40.844 19.143,40.844 C20.469,40.844 21.054,41.755 21.135,41.912 C22.111,43.795 21.633,47.448 19.154,47.612 M37.11,47.612 C39.375,47.765 40.009,44.807 39.326,42.878 C39.198,42.51 38.448,40.844 37.12,40.844 C35.794,40.844 35.209,41.755 35.127,41.912 C34.152,43.795 34.63,47.448 37.109,47.612" id="Shape" fill="#59514B" fill-rule="nonzero"></path>
                    <path d="M28.672,17.136 C26.01,17.136 22.839,18.19 22.006,21.878 C21.173,25.565 22.839,28.225 25.339,29.454 C27.005,30.274 28.672,30.684 30.338,30.684 C29.784,30.314 29.266,29.749 28.784,28.99 C28.2949335,28.2154062 27.9216582,27.3735155 27.676,26.491 C28.62,27.701 29.553,28.533 30.477,28.991 C31.401,29.447 32.465,29.601 33.671,29.454 C32.671,29.128 32.171,28.409 32.171,27.297 C32.171,25.629 35.337,25.139 35.337,21.752 C35.337,18.365 31.334,17.136 28.672,17.136 L28.672,17.136 Z" id="Path" fill="#FFBD66" fill-rule="nonzero"></path>
                    <g id="Group" stroke-width="1" fill="none" fill-rule="evenodd" transform="translate(71.504000, 37.216000) scale(-1, 1) translate(-71.504000, -37.216000) translate(65.004000, 0.716000)">
                        <path d="M12.714,66.534 L0,66.534 L0,38.988 C0,34.326 2.966,32.208 3.814,27.546 C4.379,24.438 4.662,17.94 4.662,8.052 L8.052,8.052 C8.052,17.94 8.334,24.438 8.899,27.546 C9.747,32.208 12.714,34.326 12.714,38.988 L12.714,66.534 L12.714,66.534 Z" id="Path" fill="#E7E9E9" fill-rule="nonzero"></path>
                        <path d="M0,66.534 L12.714,66.534 L12.714,68.653 C12.714,69.664709 12.3120318,70.6349664 11.5965517,71.3502589 C10.8810717,72.0655514 9.91070894,72.4672653 8.899,72.4670001 L3.814,72.4670001 C1.70758596,72.4670001 0,70.759414 0,68.653 L0,66.534 Z" id="Path" fill="#78706A" fill-rule="nonzero"></path>
                        <path d="M6.357,0 C7.293,0 8.052,0.759 8.052,1.695 L8.052,8.052 L4.662,8.052 L4.662,1.695 C4.662,0.76 5.42,0 6.357,0 Z M2.966,37.293 L9.747,37.293 L9.747,56.787 L2.966,56.787 L2.966,37.293 Z" id="Shape" fill="#FFBD66" fill-rule="nonzero"></path>
                        <rect id="Rectangle" fill="#78706A" fill-rule="nonzero" x="4.662" y="58.906" width="3.39" height="5.085" rx="1.695"></rect>
                    </g>
                    <path d="M73.554,40.34 L73.554,43.73 L72.554,43.73 L72.554,40.34 L73.554,40.34 Z M73.554,53.477 L73.554,56.443 L72.554,56.443 L72.554,53.477 L73.554,53.477 Z M73.554,46.273 L73.554,49.239 L72.554,49.239 L72.554,46.273 L73.554,46.273 Z M71.859,40.34 L71.859,44.578 L70.859,44.578 L70.859,40.34 L71.859,40.34 Z M71.859,46.273 L71.859,49.239 L70.859,49.239 L70.859,46.273 L71.859,46.273 Z" id="Shape" fill="#3E3832" fill-rule="nonzero"></path>
                    <path d="M72.707,44.577 L70.164,44.577 L70.164,43.577 L72.707,43.577 L72.707,44.577 Z M72.707,53.477 L70.164,53.477 L70.164,52.477 L72.707,52.477 L72.707,53.477 Z M73.978,51.782 L72.978,51.782 L72.978,50.782 L73.978,50.782 L73.978,51.782 Z M72.706,50.086 L70.163,50.086 L70.163,49.086 L72.706,49.086 L72.706,50.086 Z M72.707,46.272 L70.164,46.272 L70.164,45.272 L72.707,45.272 L72.707,46.272 Z" id="Shape" fill="#3E3832" fill-rule="nonzero"></path>
                    <path d="M70.164,40.34 L70.164,43.73 L69.164,43.73 L69.164,40.34 L70.164,40.34 Z M70.164,53.477 L70.164,56.443 L69.164,56.443 L69.164,53.477 L70.164,53.477 Z M70.164,46.273 L70.164,49.239 L69.164,49.239 L69.164,46.273 L70.164,46.273 Z" id="Shape" fill="#3E3832" fill-rule="nonzero"></path>
                    <path d="M57.561,60.288 C56.801,61.605 57.141,63.224 58.319,63.904 L63.531,66.913 C62.671,66.416 61.401,66.989 60.627,68.195 L60.529,68.356 C59.769,69.672 59.882,71.161 60.779,71.679 L62.962,72.939 C61.952,72.356 60.56,72.863 59.778,74.07 L59.683,74.225 C58.923,75.54 59.158,77.098 60.21,77.705 L62.024,78.753 C61.068,78.201 59.834,78.53 59.197,79.48 L59.114,79.614 C58.504,80.668 58.823,81.989 59.823,82.566 L79.081,93.685 C79.752,94.072 80.561,94.026 81.203,93.635 L81.235,93.657 C81.235,93.657 82.149,92.552 84.319,93.805 L86.915,95.303 L94.76,81.715 L91.21,79.405 C91.705,78.548 90.135,74.37 88.833,71.905 C87.526,69.438 85.645,66.281 83.299,64.038 C81.444,62.263 77.465,58.696 77.465,58.696 C77.465,58.696 75.088,56.181 73.224,57.595 C71.357,59.012 74.554,63.556 74.554,63.556 C74.554,63.556 77.374,67.21 77.871,68.172 C78.041,68.5 78.099,68.765 78.103,68.971 L61.07,59.137 C59.938,58.484 58.44,58.934 57.651,60.14 L57.561,60.288 L57.561,60.288 Z" id="Path" fill="#F0DFC8" fill-rule="nonzero"></path>
                    <path d="M27.715,57.053 C28.495,57.053 29.126,56 29.126,54.701 C29.126,53.835 28.656,52.737 27.716,51.408 C26.774,52.738 26.304,53.835 26.304,54.701 C26.304,56 26.936,57.053 27.715,57.053 L27.715,57.053 Z" id="Path" fill="#FFFFFF" fill-rule="nonzero"></path>
                </g>
            </g>
        </g>
    </g>
</svg>