<?xml version="1.0" encoding="UTF-8"?>
<svg width="141px" height="103px" viewBox="0 0 141 103" version="1.1" xmlns="http://www.w3.org/2000/svg" xmlns:xlink="http://www.w3.org/1999/xlink">
    <!-- Generator: Sketch 61.2 (89653) - https://sketch.com -->
    <title>opplæringspenger</title>
    <desc>Created with Sketch.</desc>
    <defs>
        <rect id="path-1" x="0" y="0.123" width="196" height="112"></rect>
        <path d="M-3.55271368e-15,9.38057143 L-3.55271368e-15,51.9547461 C-3.55271368e-15,53.4818849 1.20072673,54.72 2.68250684,54.72 L38.5990083,54.72 C40.0792733,54.72 41.28,53.4818849 41.28,51.9547461 L41.28,2.76525389 C41.28,1.23811509 40.0792733,0 38.5990083,0 L9.93777778,0 L-3.55271368e-15,9.38057143 Z" id="path-3"></path>
        <rect id="path-5" x="0" y="0.123" width="196" height="112"></rect>
        <rect id="path-7" x="0" y="0.123" width="196" height="112"></rect>
    </defs>
    <g id="Page-1" stroke="none" stroke-width="1" fill="none" fill-rule="evenodd">
        <g id="opplæringspenger" transform="translate(-19.000000, -10.000000)">
            <g id="Group">
                <g id="Clipped">
                    <mask id="mask-2" fill="white">
                        <use xlink:href="#path-1"></use>
                    </mask>
                    <g id="037911666-14473-4837-19749-04495236706256_a"></g>
                    <g id="Group" mask="url(#mask-2)">
                        <g transform="translate(60.000000, 33.000000)">
                            <path d="M76.3104,6.48257 L31.20768,6.48257 C29.34624,6.48257 27.84,8.00596394 27.84,9.88814576 L27.84,67.3979639 C27.84,67.7489942 27.8928,68.0903276 27.99072,68.4083882 C28.15488,68.9426912 28.44672,69.4188124 28.8288,69.8057215 C28.90272,69.8794185 28.98336,69.9560245 29.0688,70.0239033 C29.56512,70.440873 30.18528,70.7123882 30.86208,70.7841458 C30.97728,70.7957821 31.09248,70.80257 31.20768,70.80257 L76.3104,70.80257 C78.17184,70.80257 79.68,69.2772367 79.68,67.3979639 L79.68,9.88814576 C79.68,8.00596394 78.17184,6.48257 76.3104,6.48257" id="Path" fill="#515658" fill-rule="nonzero"></path>
                            <path d="M42.64,11.28257 L42.64,17.8155972 C42.64,19.3885417 41.3537872,20.6631414 39.7665114,20.6631414 L32.64,20.6631414 L42.64,11.28257 Z" id="Path" fill="#C9C9C9" fill-rule="nonzero"></path>
                            <g id="Group" stroke-width="1" fill="none" fill-rule="evenodd" transform="translate(33.000000, 11.000000)">
                                <g id="30275808852-21911-23044-6102-0578302537115_c-link" fill="#FFFFFF" fill-rule="nonzero">
                                    <path d="M-3.55271368e-15,9.38057143 L-3.55271368e-15,51.9547461 C-3.55271368e-15,53.4818849 1.20072673,54.72 2.68250684,54.72 L38.5990083,54.72 C40.0792733,54.72 41.28,53.4818849 41.28,51.9547461 L41.28,2.76525389 C41.28,1.23811509 40.0792733,0 38.5990083,0 L9.93777778,0 L-3.55271368e-15,9.38057143 Z" id="30275808852-21911-23044-6102-0578302537115_c"></path>
                                </g>
                                <g id="Clipped">
                                    <mask id="mask-4" fill="white">
                                        <use xlink:href="#path-3"></use>
                                    </mask>
                                    <g id="30275808852-21911-23044-6102-0578302537115_c"></g>
                                    <path d="M10,1.77635684e-15 L10,6.5330272 C10,8.10597171 8.71378723,9.38057143 7.1265114,9.38057143 L1.13686838e-13,9.38057143 L10,1.77635684e-15 Z" id="Path" fill="#C9C9C9" fill-rule="nonzero" mask="url(#mask-4)"></path>
                                </g>
                            </g>
                            <g id="Group" stroke-width="1" fill="none" fill-rule="evenodd" transform="translate(38.728889, 24.559713)">
                                <path d="M6.25477851,14.1598193 L5.83072573,15.7809036 L9.51468426,15.7809036 L9.11713478,14.1598193 C8.6400754,12.4036446 8.16301602,10.323253 7.71245994,8.4860241 L7.60644675,8.4860241 C7.18239397,10.3502711 6.73183789,12.4036446 6.25477851,14.1598193 Z M0,23.0757831 L5.40667295,5.46 L10.0977568,5.46 L15.5044298,23.0757831 L11.3699152,23.0757831 L10.3097832,18.8879819 L5.03562677,18.8879819 L3.97549482,23.0757831 L0,23.0757831 Z M20.7520829,23.4 C18.3402828,23.4 16.8295947,21.6168072 16.8295947,19.3472892 C16.8295947,16.5374096 19.0293685,14.9973795 24.2240151,14.4570181 C24.1445052,13.2682229 23.5879359,12.5117169 22.1567578,12.5117169 C21.0436192,12.5117169 19.956984,12.9710241 18.6848256,13.7275301 L17.2801508,11.1067771 C18.9498586,10.0800904 20.8315928,9.35060241 22.8988501,9.35060241 C26.2647691,9.35060241 28.12,11.2959036 28.12,15.4026506 L28.12,23.0757831 L24.9396041,23.0757831 L24.6745712,21.6978614 L24.568558,21.6978614 C23.4554194,22.6975301 22.2362677,23.4 20.7520829,23.4 Z M22.0772479,20.3199398 C22.9518567,20.3199398 23.5349293,19.8876506 24.2240151,19.1851807 L24.2240151,16.8346084 C21.467672,17.2128614 20.5665598,18.0234036 20.5665598,19.0500904 C20.5665598,19.9146687 21.1496324,20.3199398 22.0772479,20.3199398 Z" id="Shape" fill="#3E3832" fill-rule="nonzero"></path>
                                <rect id="Rectangle" fill="#C6C2BF" fill-rule="nonzero" x="0" y="27.3" width="28.88" height="2.34"></rect>
                                <rect id="Rectangle" fill="#C6C2BF" fill-rule="nonzero" x="0" y="0" width="28.88" height="2.34"></rect>
                            </g>
                            <path d="M54.2414016,8.68304122 C53.6545891,8.68304122 53.1799064,8.19253971 53.1799064,7.58377498 C53.1799064,6.97501026 53.6545891,6.48160063 54.2414016,6.48160063 C54.8254109,6.48160063 55.3019625,6.97501026 55.3019625,7.58377498 C55.3019625,8.19253971 54.8254109,8.68304122 54.2414016,8.68304122 M60.7944528,4.18225361 L56.8456158,4.18225361 L56.8456158,3.42517518 C56.8456158,1.93234449 55.6785316,0.72257 54.2414016,0.72257 C52.7995995,0.72257 51.6353187,1.93234449 51.6353187,3.42517518 L51.6353187,4.18225361 L47.6864816,4.18225361 C45.7400955,4.18225361 44.16,5.82145926 44.16,7.84162756 L44.16,12.24257 L64.32,12.24257 L64.32,7.84162756 C64.32,5.82145926 62.7408389,4.18225361 60.7944528,4.18225361" id="Shape" fill="#2F3237" fill-rule="nonzero"></path>
                            <g id="Group" stroke-width="1" fill="none" fill-rule="evenodd" transform="translate(0.000000, 47.000000)">
                                <path d="M27.84,4.60257 L27.84,15.14049 C27.84,15.14049 27.9469244,15.7844957 28.0894042,16.7140206 L31.0770935,12.5159105 C31.9951237,11.2261668 33.7687202,10.9366718 35.0369269,11.869596 L35.0369269,11.869596 L35.305711,12.0657986 C36.5748641,12.9987229 36.8597374,14.801094 35.9417072,16.0908378 L35.9417072,16.0908378 L27.8091682,27.5200782 C27.6631272,27.917525 27.5091687,28.3041286 27.3533263,28.6744498 C26.6084721,30.4444127 23.5980201,33.9843385 23.3836806,35.116884 C23.169341,36.2503909 22.9550015,37.24257 22.9550015,37.24257 L22.9550015,37.24257 L9.6,32.5662531 L13.9944453,17.5624286 C14.0633055,17.3268822 14.1845383,17.1115255 14.3503847,16.9298183 C15.8934353,15.2434984 24.5009617,6.32926926 25.9596344,4.81984953 C26.0944452,4.67948311 26.2796889,4.60257 26.4746312,4.60257 L26.4746312,4.60257 L27.84,4.60257 Z" id="Path" fill="#E7E6E2" fill-rule="nonzero"></path>
                                <g transform="translate(66.000000, 2.000000)" fill="#E7E6E2" fill-rule="nonzero" id="Path">
                                    <path d="M4.988928,16.96081 L5.005248,17.24881 C5.083968,18.61201 6.252288,19.65457 7.616448,19.57585 L16.457088,19.06897 C17.821248,18.99025 18.862848,17.82193 18.785088,16.45873 L18.768768,16.17073 C18.690048,14.80657 17.520768,13.76401 16.157568,13.84273 L7.315968,14.34961 C5.952768,14.42833 4.910208,15.59761 4.988928,16.96081"></path>
                                    <path d="M3.150912,13.16113 L3.167232,13.44913 C3.245952,14.81233 4.414272,15.85489 5.777472,15.77713 L14.619072,15.26929 C15.982272,15.19153 17.024832,14.02225 16.947072,12.65905 L16.929792,12.37105 C16.851072,11.00689 15.682752,9.96529 14.319552,10.04305 L5.477952,10.55089 C4.114752,10.62865 3.072192,11.79793 3.150912,13.16113"></path>
                                    <path d="M0.888288,9.437866 L0.905568,9.725866 C0.983328,11.089066 2.151648,12.131626 3.515808,12.053866 L12.356448,11.546026 C13.720608,11.468266 14.762208,10.298986 14.684448,8.935786 L14.668128,8.647786 C14.589408,7.283626 13.421088,6.242026 12.056928,6.319786 L3.216288,6.827626 C1.852128,6.905386 0.810528,8.074666 0.888288,9.437866"></path>
                                    <path d="M2.304864,2.690698 L2.252064,2.973898 C2.000544,4.316938 2.884704,5.609098 4.226784,5.860618 L12.931104,7.491658 C14.274144,7.743178 15.565344,6.859018 15.817824,5.515978 L15.870624,5.232778 C16.122144,3.890698 15.237984,2.598538 13.895904,2.347018 L5.191584,0.715018 C3.848544,0.463498 2.556384,1.348618 2.304864,2.690698"></path>
                                    <path d="M7.796256,9.234442 L4.471776,4.230922 L2.256096,3.007882 L14.577696,2.623882 C14.766816,2.664202 28.368096,12.551242 29.512416,14.515402 C29.635296,14.726602 29.708256,14.962762 29.725536,15.206602 L30.869856,30.765322 L17.875296,35.249482 C17.875296,35.249482 17.695776,34.210762 17.452896,33.085642 C17.141856,31.644682 14.840736,25.196362 14.486496,23.314762 C14.133216,21.433162 12.985056,18.900682 11.604576,17.525962 C9.798816,15.727882 7.796256,9.234442 7.796256,9.234442"></path>
                                    <path d="M18.9816,20.811178 L19.21872,20.573098 C20.33904,19.447978 20.3352,17.626858 19.20912,16.505578 L7.65456,4.999978 C6.52848,3.878698 4.7064,3.882538 3.58512,5.008618 L3.34896,5.246698 C2.22768,6.371818 2.23248,8.193898 3.3576,9.314218 L14.91312,20.819818 C16.0392,21.941098 17.86032,21.937258 18.9816,20.811178"></path>
                                </g>
                                <g transform="translate(74.367001, 10.352653) scale(-1, 1) rotate(68.000000) translate(-74.367001, -10.352653) translate(71.867001, -10.147347)" fill-rule="nonzero">
                                    <path d="M1.45196341,37.154519 L2.87617219,37.154519 C3.67867736,37.154519 4.32813559,37.8848727 4.32813559,38.7853454 L4.32813559,38.8263164 C4.32813559,39.7276798 3.67867736,40.4571429 2.87617219,40.4571429 L1.45196341,40.4571429 C0.650251225,40.4571429 0,39.7276798 0,38.8263164 L0,38.7853454 C0,37.8848727 0.650251225,37.154519 1.45196341,37.154519" id="Path" fill="#C3242A"></path>
                                    <polygon id="Path" fill="#E8D7BD" points="4.32784705 5.17361336 2.16377925 0.000412827988 -0.000288542373 5.17361336 -4.16360739e-15 6.60524781 4.32784705 6.60524781"></polygon>
                                    <polygon id="Path" fill="#5D5C5A" points="2.16444136 0 1.44271186 1.65131195 2.88542373 1.65131195"></polygon>
                                    <g transform="translate(0.000000, 4.000000)">
                                        <path d="M3.85647979,0.953936 C3.5837914,0.953936 3.40305606,1.22929181 3.04,1.22929181 C2.98134029,1.22929181 2.93140026,1.22042978 2.88542373,1.20650374 L2.88542373,1.54769174 L2.88542373,33.9801751 L4.32813559,33.9801751 L4.32813559,1.54769174 L4.32813559,1.22929181 C4.32813559,1.22929181 4.12837549,0.953936 3.85647979,0.953936 M1.28884375,1.22929181 C0.92638123,1.22929181 0.743960269,0.953936 0.47270823,0.953936 C0.199869923,0.953936 0,1.22929181 0,1.22929181 L0,1.54769174 L0,33.9801751 L1.44271186,33.9801751 L1.44271186,1.54769174 L1.44271186,1.20650374 C1.39750319,1.22042978 1.34753571,1.22929181 1.28884375,1.22929181" id="Shape" fill="#EDC55C"></path>
                                        <path d="M2.16367123,0.953936 C1.77979408,0.953936 1.67906598,1.17709481 1.44271186,1.24916309 L1.44271186,1.59053917 L1.44271186,33.9801751 L2.88542373,33.9801751 L2.88542373,1.59053917 L2.88542373,1.24916309 C2.64906961,1.17709481 2.54754838,0.953936 2.16367123,0.953936" id="Path" fill="#D8A25D"></path>
                                    </g>
                                    <rect id="Rectangle" fill="#5D5C5A" x="0" y="37.98" width="4.328" height="1"></rect>
                                </g>
                                <path d="M71.4958788,7.93844878 C72.8080404,6.62628716 74.9354747,6.62628716 76.2476364,7.93844878 L85.072329,16.7631414 C86.3844906,18.075303 86.3844906,20.2027374 85.072329,21.514899 C83.7601674,22.8270606 81.632733,22.8270606 80.3205714,21.514899 L71.4958788,12.6902064 C70.1837172,11.3780447 70.1837172,9.25061041 71.4958788,7.93844878 Z" id="Path" fill="#E7E6E2" fill-rule="nonzero"></path>
                                <g transform="translate(0.000000, 31.482570)" fill-rule="nonzero" id="Path">
                                    <polygon fill="#BDD1D0" points="6.98064363 0.96 24 7.09810246 19.4808218 20.16 0 20.16"></polygon>
                                    <polygon fill="#6E9DAA" points="6.74319379 0 24.96 6.21100452 23.0168062 11.52 4.8 5.30899548"></polygon>
                                </g>
                                <g transform="translate(93.100000, 41.982570) scale(-1, 1) translate(-93.100000, -41.982570) translate(80.600000, 31.482570)" fill-rule="nonzero" id="Path">
                                    <polygon fill="#BDD1D0" points="6.98064363 0.96 24 7.09810246 19.4808218 20.16 0 20.16"></polygon>
                                    <polygon fill="#6E9DAA" points="6.74319379 0 24.96 6.21100452 23.0168062 11.52 4.8 5.30899548"></polygon>
                                </g>
                            </g>
                        </g>
                    </g>
                </g>
            </g>
            <g id="Group">
                <g id="Clipped">
                    <mask id="mask-6" fill="white">
                        <use xlink:href="#path-5"></use>
                    </mask>
                    <g id="11175017473-20092-9434-3455-15590716507933_e"></g>
                    <g id="Group" mask="url(#mask-6)" fill-rule="nonzero">
                        <g transform="translate(17.000000, 19.000000)" id="Path">
                            <path d="M6.51065846,43.7236024 L40.3026585,43.7236024 L40.3026585,53.9636024 L6.51065846,53.9636024 C3.68296054,53.9636024 1.39065846,51.6713003 1.39065846,48.8436024 C1.39065846,46.0159044 3.68296054,43.7236024 6.51065846,43.7236024 Z" fill="#E7E9E9" transform="translate(20.846658, 48.843602) scale(-1, 1) rotate(160.000000) translate(-20.846658, -48.843602) "></path>
                            <path d="M47.9192477,14.5271713 L13.1032475,14.5271713 C11.4095515,14.5271713 10.0312475,13.1488673 10.0312475,11.4551713 C10.0312475,9.76147527 11.4095515,8.38317127 13.1032475,8.38317127 L47.9192477,8.38317127 C48.4844957,8.38317127 48.9432477,7.92441926 48.9432477,7.35917126 C48.9432477,6.79597126 48.4844957,6.33517126 47.9192477,6.33517126 L13.1032475,6.33517126 C10.2790555,6.33517126 7.98324752,8.63302727 7.98324752,11.4551713 C7.98324752,11.6968353 7.99963152,11.9344033 8.03035152,12.1658273 C7.99963152,12.2661793 7.98324752,12.3706273 7.98324752,12.4791713 L7.98324752,50.3671715 C7.98324752,53.1893155 10.2790555,55.4871715 13.1032475,55.4871715 L47.9192477,55.4871715 C48.4844957,55.4871715 48.9432477,55.0284195 48.9432477,54.4631715 L48.9432477,15.5511713 C48.9432477,14.9879713 48.4844957,14.5271713 47.9192477,14.5271713 Z" fill="#D6897D" transform="translate(28.463248, 30.911171) scale(-1, 1) rotate(160.000000) translate(-28.463248, -30.911171) "></path>
                            <path d="M6.38714885,48.5200597 C5.82190084,48.5200597 5.36314884,48.9808597 5.36314884,49.5440597 C5.36314884,50.1093077 5.82190084,50.5680597 6.38714885,50.5680597 L39.155149,50.5680597 C39.720397,50.5680597 40.179149,50.1093077 40.179149,49.5440597 C40.179149,48.9808597 39.720397,48.5200597 39.155149,48.5200597 L6.38714885,48.5200597 Z" fill="#C6C2BF" transform="translate(22.771149, 49.544060) scale(-1, 1) rotate(160.000000) translate(-22.771149, -49.544060) "></path>
                        </g>
                    </g>
                </g>
            </g>
            <g id="Group">
                <g id="Clipped">
                    <mask id="mask-8" fill="white">
                        <use xlink:href="#path-7"></use>
                    </mask>
                    <g id="283256155-22664-29950-7521-4224309009992_g"></g>
                    <g id="Group" mask="url(#mask-8)" fill-rule="nonzero">
                        <g transform="translate(30.000000, 8.000000)" id="Path">
                            <path d="M5.70947028,43.37938 L39.5014703,43.37938 L39.5014703,53.61938 L5.70947028,53.61938 C2.88177236,53.61938 0.58947028,51.3270779 0.58947028,48.49938 C0.58947028,45.6716821 2.88177236,43.37938 5.70947028,43.37938 Z" fill="#E7E9E9" transform="translate(20.045470, 48.499380) scale(-1, 1) rotate(150.000000) translate(-20.045470, -48.499380) "></path>
                            <path d="M50.1162804,15.7779897 L15.3002802,15.7779897 C13.6065842,15.7779897 12.2282802,14.3996857 12.2282802,12.7059897 C12.2282802,11.0122937 13.6065842,9.63398969 15.3002802,9.63398969 L50.1162804,9.63398969 C50.6815284,9.63398969 51.1402804,9.17523768 51.1402804,8.60998968 C51.1402804,8.04678968 50.6815284,7.58598967 50.1162804,7.58598967 L15.3002802,7.58598967 C12.4760882,7.58598967 10.1802802,9.88384569 10.1802802,12.7059897 C10.1802802,12.9476537 10.1966642,13.1852217 10.2273842,13.4166457 C10.1966642,13.5169977 10.1802802,13.6214457 10.1802802,13.7299897 L10.1802802,51.6179899 C10.1802802,54.4401339 12.4760882,56.7379899 15.3002802,56.7379899 L50.1162804,56.7379899 C50.6815284,56.7379899 51.1402804,56.2792379 51.1402804,55.7139899 L51.1402804,16.8019897 C51.1402804,16.2387897 50.6815284,15.7779897 50.1162804,15.7779897 Z" fill="#826BA1" transform="translate(30.660280, 32.161990) scale(-1, 1) rotate(150.000000) translate(-30.660280, -32.161990) "></path>
                            <path d="M5.4350902,48.4993801 C4.86984219,48.4993801 4.41109019,48.9601801 4.41109019,49.5233801 C4.41109019,50.0886281 4.86984219,50.5473801 5.4350902,50.5473801 L38.2030904,50.5473801 C38.7683384,50.5473801 39.2270904,50.0886281 39.2270904,49.5233801 C39.2270904,48.9601801 38.7683384,48.4993801 38.2030904,48.4993801 L5.4350902,48.4993801 Z" fill="#C6C2BF" transform="translate(21.819090, 49.523380) scale(-1, 1) rotate(150.000000) translate(-21.819090, -49.523380) "></path>
                        </g>
                    </g>
                </g>
            </g>
        </g>
    </g>
</svg>