<?xml version="1.0" encoding="UTF-8"?>
<svg width="113px" height="89px" viewBox="0 0 113 89" version="1.1" xmlns="http://www.w3.org/2000/svg" xmlns:xlink="http://www.w3.org/1999/xlink">
    <!-- Generator: Sketch 61.2 (89653) - https://sketch.com -->
    <title>pleiepenger-livets-sluttfase</title>
    <desc>Created with Sketch.</desc>
    <g id="Page-1" stroke="none" stroke-width="1" fill="none" fill-rule="evenodd">
        <g id="pleiepenger-livets-sluttfase" transform="translate(0.000000, 2.000000)">
            <circle id="Oval" stroke="#FFD399" stroke-width="3.6" cx="52.2" cy="38.1" r="37.9"></circle>
            <path d="M50.808,12.19 L50.934,12.331 L68.61,33.398 C68.7,33.192 68.724,32.911 68.697,32.411 C68.526,31.119 66.857,25.862 66.857,25.862 C66.857,25.862 65.144,19.466 67.843,18.637 C70.542,17.809 72.13,21.567 72.13,21.567 C72.13,21.567 75.12,27.153 76.511,29.901 C78.264,33.391 79.021,37.716 79.519,40.953 C79.71,44.448 79.818,49.71 78.899,50.481 L107.392,85.838 L106.006,87 L84.204,87 L65.308,63.843 C64.665,63.077 62.848,63.557 62.848,63.557 L62.72,63.404 C61.7728256,63.4675246 60.8471307,63.1026789 60.198,62.41 L60.053,62.248 L33.377,30.458 C32.387,29.277 32.427,27.594 33.39,26.668 L33.505,26.564 L33.658,26.436 C34.749,25.646 36.28,25.809 37.311,26.908 L37.437,27.05 L47.4,38.924 L48.396,38.088 L35.798,23.074 C34.834,21.924 34.905,20.299 35.913,19.322 L36.219,19.065 C37.311,18.275 38.842,18.438 39.816,19.469 L39.934,19.603 L52.533,34.617 L53.529,33.782 L39.259,16.775 C38.295,15.626 38.366,14 39.374,13.024 L39.362,13.164 L39.515,13.036 C40.606,12.246 42.138,12.409 43.111,13.44 L43.231,13.574 L57.5,30.58 L58.496,29.744 L46.797,15.802 C45.833,14.653 45.84,12.95 46.848,11.974 L47.155,11.717 C48.245,10.927 49.777,11.09 50.808,12.189 L50.808,12.19 Z" id="Path" fill="#E7E6E2" fill-rule="nonzero"></path>
            <polygon id="Path" fill="#78706A" fill-rule="nonzero" points="86.917 55.846 113.06 87 79.772 87 67.384 72.237"></polygon>
            <path d="M55.845,22.889 L56.018,22.989 C57.181,23.775 57.533,25.365 56.783,26.664 L45.683,45.89 L46.809,46.54 L55.909,30.778 C56.659,29.478 58.262,28.903 59.524,29.516 L59.697,29.616 L59.871,29.716 C61.033,30.503 61.386,32.092 60.586,33.478 L46.836,57.294 C47.059,57.307 47.332,57.234 47.792,57.037 C48.948,56.435 53.317,53.068 53.317,53.068 C53.317,53.068 58.742,49.272 60.443,51.524 C62.145,53.777 59.156,56.554 59.156,56.554 C59.156,56.554 54.93,61.274 52.824,63.522 C50.144,66.362 46.339,68.554 43.467,70.129 C40.508,71.654 35.6,73.554 34.561,72.954 L31.801,77.134 L15.26,67.584 L17.06,64.467 C17.31,64.034 17.427,62.831 17.324,60.809 C17.322323,60.0445548 17.4129795,59.282705 17.594,58.54 C17.535,58.044 17.662,57.424 17.962,56.905 L37.562,22.956 C38.312,21.657 39.952,21.218 41.164,21.918 C42.413,22.755 42.852,24.394 42.102,25.693 L34.252,39.29 L35.378,39.94 L45.178,22.965 C45.928,21.666 47.48,21.177 48.743,21.791 L48.916,21.891 L49.089,21.991 C50.252,22.777 50.604,24.366 49.854,25.665 L40.054,42.64 L41.18,43.29 L52.28,24.064 C53.03,22.764 54.583,22.275 55.845,22.889 L55.845,22.889 Z" id="Path" fill="#F6DBB7" fill-rule="nonzero"></path>
            <polygon id="Path" fill="#5C4378" fill-rule="nonzero" points="12.662 66.084 35.438 79.234 31.084 87 0.586 87 12.662 66.085"></polygon>
            <polygon id="Path" fill="#826BA1" fill-rule="nonzero" points="9.362 71.8 32.138 84.95 36.088 78.108 13.312 64.958"></polygon>
            <path d="M13.65,69.773 C14.0173404,69.1621158 14.8023875,68.951709 15.426,69.297 C16.032,69.647 16.252,70.467 15.902,71.073 C15.552,71.679 14.732,71.898 14.126,71.548 C13.433,71.148 13.3,70.378 13.65,69.773" id="Path" fill="#38363A" fill-rule="nonzero"></path>
        </g>
    </g>
</svg>