<?xml version="1.0" encoding="UTF-8"?>
<svg width="182px" height="98px" viewBox="0 0 182 98" version="1.1" xmlns="http://www.w3.org/2000/svg" xmlns:xlink="http://www.w3.org/1999/xlink">
    <!-- Generator: Sketch 61.2 (89653) - https://sketch.com -->
    <title>pleiepenger-over-18</title>
    <desc>Created with Sketch.</desc>
    <defs>
        <polygon id="path-1" points="0 0 207 0 207 110.4 0 110.4"></polygon>
        <path d="M33.843,4.33680869e-19 C34.313,4.33680869e-19 39.428,1.998 43.58,6.014 C46.814,9.141 49.392,13.844 49.392,17.492 L49.392,28.672 C49.392,34.61 44.478,39.424 38.416,39.424 L0,39.424 L0,17.492 C0,13.851 2.524,9.156 5.698,6.033 C9.79,2.008 15.17,4.33680869e-19 15.55,4.33680869e-19 L15.551,4.33680869e-19 L15.553,0.055 C15.658,2.021 18.706,7.08 24.697,15.232 C30.747,7.001 33.795,1.922 33.843,-0.001 L33.843,4.33680869e-19 Z" id="path-3"></path>
        <path d="M34.279,29.568 C34.739,28.038 35.853,27.572 37.619,28.171 C39.815,17.125 37.979,9.335 32.113,4.801 C26.023,-0.022 11.92,-1.406 5.5,6.663 C3.258,9.254 1.806,12.585 1.145,16.653 C0.839,18.538 0.761,21.723 0.911,26.206 C3.918,21.828 6.035,17.689 7.261,13.79 C9.234,20.04 17.841,23.677 30.701,25.508 C33.798,25.948 33.622,29.388 34.278,29.568 L34.279,29.568 Z" id="path-5"></path>
        <polygon id="path-7" points="0 0 207 0 207 110.4 0 110.4"></polygon>
    </defs>
    <g id="Page-1" stroke="none" stroke-width="1" fill="none" fill-rule="evenodd">
        <g id="pleiepenger-over-18" transform="translate(-25.000000, -13.000000)">
            <g id="Group">
                <g id="Clipped">
                    <mask id="mask-2" fill="white">
                        <use xlink:href="#path-1"></use>
                    </mask>
                    <g id="0227272516-5327-24519-1987-115832130606959_a"></g>
                    <g id="Group" mask="url(#mask-2)">
                        <g transform="translate(25.000000, 23.000000)">
                            <g id="Group" stroke-width="1" fill="none" fill-rule="evenodd" transform="translate(5.000000, 5.000000)">
                                <path d="M2.467,23.072 C1.295,23.638 0.601,24.864 0.601,25.76 C0.601,26.656 0.601,27.552 1.534,29.344 C2.708,31.598 4.256,32.434 5.471,32.744 C6.325,35.596 7.714,38.05 9.876,40.02 C10.35,40.452 10.84,40.833 11.347,41.17 L11.347,43.725 L14.275,61.6 L26.759,61.6 L30.199,43.725 L30.199,42.446 C34.864,40.216 38.851,34.854 38.851,25.486 C38.851,19.888 38.374,16.395 36.982,12.568 C34.431,5.552 29.134,0.672 20.393,0.672 C13.5,0.672 7.766,4.272 5.05,9.801 C3.34,13.281 3.333,17.528 3.334,22.121 L3.334,22.709 C3.0394474,22.8154491 2.75041783,22.9366012 2.468,23.072 L2.467,23.072 Z" id="Path" fill="#E7E5E2" fill-rule="nonzero"></path>
                                <path d="M30,25.085 C30.107,25.194 30.22,25.287 30.337,25.365 C30.7670444,25.6585992 31.3030223,25.7519396 31.807,25.621 C32.489,25.513 32.95,25.596 33.119,25.832 C33.783,26.759 33.571,27.74 32.432,28.547 C31.832,28.97 31.008,29.119 30.572,28.899 C30.359,28.792 30.109,28.902 30.015,29.144 C29.92,29.387 30.017,29.671 30.23,29.778 C30.951,30.141 32.06,29.94 32.878,29.362 C34.426,28.266 34.78,26.629 33.774,25.225 C33.362,24.649 32.639,24.519 31.69,24.67 L31.57,24.697 C31.2907476,24.75375 31.0004012,24.696113 30.764,24.537 C30.6923551,24.4887715 30.6259891,24.4331312 30.566,24.371 C30.4870575,24.2864381 30.3744997,24.2415121 30.2590261,24.2484753 C30.1435526,24.2554385 30.037209,24.3135646 29.969,24.407 C29.8137484,24.6108284 29.8272409,24.8967001 30.001,25.085 L30,25.085 Z M25.065,34.744 C25.156,34.761 25.324,34.789 25.543,34.816 C25.941,34.866 26.339,34.894 26.705,34.889 C26.905,34.886 27.089,34.873 27.252,34.849 C27.825,34.766 28.249,34.617 28.548,34.426 C28.8,34.265 28.908,34.121 28.931,34.053 C29.003,33.845 29.265,33.723 29.516,33.783 C29.768,33.842 29.914,34.058 29.843,34.266 C29.767,34.486 29.551,34.774 29.128,35.045 C28.704,35.316 28.137,35.515 27.415,35.62 C27.1853252,35.6517727 26.9538517,35.6688076 26.722,35.671 C26.2799953,35.6744194 25.838281,35.6473552 25.4,35.59 C25.2165482,35.5677921 25.0338001,35.5401131 24.852,35.507 C24.597,35.457 24.438,35.247 24.497,35.037 C24.557,34.827 24.811,34.695 25.065,34.744 L25.065,34.744 Z" id="Shape" fill="#59514B" fill-rule="nonzero"></path>
                                <path d="M33.551,24.207 C32.436,24.56 31.63,22.577 31.653,21.163 C31.658,20.895 31.76,19.657 32.428,19.512 C33.095,19.366 33.538,19.933 33.606,20.034 C34.408,21.232 34.771,23.819 33.551,24.207 M20.969,21.023 C21.019,20.76 21.335,19.557 22.056,19.493 C22.778,19.428 23.146,20.037 23.198,20.143 C23.832,21.415 23.774,23.995 22.436,24.233 C21.212,24.448 20.706,22.407 20.969,21.023 L20.969,21.023 Z" id="Shape" fill="#635E59" fill-rule="nonzero"></path>
                            </g>
                            <path d="M25.53,67.496 L20.38,58.088 L16.383,48.68 C19.431,51.07 22.48,52.264 25.529,52.264 C28.579,52.264 31.627,51.069 34.676,48.68 L30.547,58.088 L25.529,67.496 L25.53,67.496 Z" id="Path" fill="#FFFFFF" fill-rule="nonzero"></path>
                            <path d="M16.383,47.784 C15.911,47.784 10.797,49.782 6.645,53.798 C3.412,56.925 0.833,61.628 0.833,65.276 L0.833,76.456 C0.833,82.394 5.747,87.208 11.809,87.208 L50.225,87.208 L50.225,65.276 C50.225,61.635 47.701,56.94 44.527,53.817 C40.435,49.792 35.055,47.784 34.676,47.784 L34.673,47.839 C34.568,49.805 31.52,54.864 25.529,63.016 C19.48,54.785 16.431,49.706 16.383,47.783 L16.383,47.784 L16.383,47.784 Z" id="Path" fill="#D8A25D" fill-rule="nonzero"></path>
                            <g id="Group" stroke-width="1" fill="none" fill-rule="evenodd" transform="translate(25.225000, 67.784000) scale(-1, 1) translate(-25.225000, -67.784000) translate(0.225000, 47.784000)">
                                <g id="Clipped">
                                    <mask id="mask-4" fill="white">
                                        <use xlink:href="#path-3"></use>
                                    </mask>
                                    <g id="1856609368-00325-17257-17250-01491280026646_c"></g>
                                    <polygon id="Path" fill="#0C5472" fill-rule="nonzero" mask="url(#mask-4)" points="-32.928 65.229 82.477 65.229 82.477 -25.088 -32.928 -25.088"></polygon>
                                </g>
                            </g>
                            <path d="M10.393,29.864 C9.933,28.334 8.819,27.868 7.053,28.467 C4.857,17.421 6.693,9.631 12.559,5.097 C18.649,0.274 32.751,-1.11 39.171,6.959 C41.413,9.55 42.864,12.881 43.526,16.949 C43.832,18.834 43.91,22.019 43.759,26.502 C40.752,22.124 38.636,17.985 37.409,14.086 C35.437,20.336 26.83,23.973 13.969,25.804 C10.873,26.244 11.049,29.684 10.393,29.864 L10.393,29.864 Z" id="Path" fill="#333333" fill-rule="nonzero"></path>
                            <g id="Group" stroke-width="1" fill="none" fill-rule="evenodd" transform="translate(25.172000, 15.296000) scale(-1, 1) translate(-25.172000, -15.296000) translate(5.672000, 0.296000)">
                                <g id="Clipped">
                                    <mask id="mask-6" fill="white">
                                        <use xlink:href="#path-5"></use>
                                    </mask>
                                    <g id="2139071528-8236-20534-8881-15374919820524_e"></g>
                                    <polygon id="Path" fill="#8B5F26" fill-rule="nonzero" mask="url(#mask-6)" points="-12.028 -19.712 50.793 -19.712 50.793 51.072 -12.027 51.072"></polygon>
                                </g>
                            </g>
                        </g>
                    </g>
                </g>
            </g>
            <g id="Group">
                <g id="Clipped">
                    <mask id="mask-8" fill="white">
                        <use xlink:href="#path-7"></use>
                    </mask>
                    <g id="3173349674-22161-29863-0678-0148220083383_g"></g>
                    <g id="Group" mask="url(#mask-8)">
                        <g transform="translate(55.000000, 13.000000)">
                            <g id="Group" stroke-width="1" fill="none" fill-rule="evenodd" transform="translate(90.000000, 0.000000)">
                                <path d="M17.356,26.798 L17.659,26.944 C19.094,27.634 20.819,27.032 21.51,25.596 L25.993,16.288 C26.6845801,14.8525875 26.0820648,13.1283014 24.647,12.436 L24.344,12.29 C23.6543216,11.9577042 22.8608732,11.9130476 22.1382641,12.1658577 C21.4156551,12.4186677 20.8231003,12.9482275 20.491,13.638 L16.008,22.946 C15.3166938,24.381949 15.9201749,26.1064365 17.356,26.798" id="Path" fill="#F0DFC8" fill-rule="nonzero"></path>
                                <path d="M12.439,26.524 L12.742,26.67 C14.178,27.361 15.902,26.759 16.594,25.324 L21.077,16.014 C21.767769,14.5785731 21.1648715,12.8549219 19.73,12.163 L19.426,12.017 C17.9903193,11.3255569 16.2659325,11.9285551 15.574,13.364 L11.092,22.674 C10.7600341,23.3631578 10.7154551,24.1559682 10.9680712,24.8779965 C11.2206874,25.6000249 11.7498023,26.1921168 12.439,26.524" id="Path" fill="#F0DFC8" fill-rule="nonzero"></path>
                                <path d="M7.36,26.727 L7.664,26.872 C9.099,27.564 10.824,26.962 11.516,25.526 L15.998,16.217 C16.6893653,14.7816066 16.086317,13.057524 14.651,12.366 L14.348,12.219 C12.912051,11.5276938 11.1875635,12.1311749 10.496,13.567 L6.013,22.875 C5.680677,23.564409 5.63590085,24.3576132 5.88852599,25.0800423 C6.14115113,25.8024714 6.67047402,26.3949198 7.36,26.727" id="Path" fill="#F0DFC8" fill-rule="nonzero"></path>
                                <path d="M1.277,21.465 L1.536,21.679 C2.76318712,22.6951702 4.58177954,22.5241455 5.598,21.297 L12.186,13.337 C13.2013609,12.1093727 13.0299286,10.2912052 11.803,9.275 L11.543,9.061 C10.3157008,8.04574627 8.49784638,8.2171913 7.482,9.444 L0.893,17.402 C-0.122800758,18.6300442 0.0491123265,20.44901 1.277,21.465" id="Path" fill="#F0DFC8" fill-rule="nonzero"></path>
                                <path d="M4.074,20.125 L1.573,21.695 L8.15,8.905 C8.298,8.735 26.08,0.448 28.731,0.391 C29.016,0.385 29.299,0.444 29.557,0.565 L46.08,8.197 L46.36,24.147 C46.36,24.147 42.145,23.589 40.86,23.2 C39.213,22.702 31.332,21.403 29.211,20.7 C27.091,19.997 23.858,19.736 21.674,20.367 C18.818,21.193 11.06,19.563 11.06,19.563 L4.074,20.125 L4.074,20.125 Z" id="Path" fill="#F0DFC8" fill-rule="nonzero"></path>
                                <path d="M29.2,14.698 L29.09,14.321 C28.5744041,12.5412375 26.7139692,11.5161181 24.934,12.031 L6.659,17.313 C4.8778928,17.8277433 3.85128831,19.6888837 4.366,21.47 L4.476,21.846 C4.99117331,23.625659 6.85104936,24.6511646 8.631,24.137 L26.907,18.854 C27.7620594,18.6068204 28.4839055,18.0300925 28.9137392,17.2506906 C29.343573,16.4712888 29.4461844,15.553058 29.199,14.698" id="Path" fill="#F0DFC8" fill-rule="nonzero"></path>
                            </g>
                            <polygon id="Path" fill="#A13A28" fill-rule="nonzero" points="152.04 7.347 152.04 29.747 134.12 29.747 134.12 7.347"></polygon>
                            <polygon id="Path" fill="#C86151" fill-rule="nonzero" points="140.84 7.347 140.84 29.747 134.12 29.747 134.12 7.347"></polygon>
                            <g id="Group" stroke-width="1" fill="none" fill-rule="evenodd" transform="translate(0.200000, 14.067000)">
                                <path d="M83.845,8.568 L74.18,77.332 C72.70924,77.125268 71.3808432,76.3427439 70.487044,75.1565752 C69.5932448,73.9704065 69.2072591,72.4777588 69.414,71.007 L77.519,13.334 C77.725732,11.86324 78.5082561,10.5348432 79.6944248,9.64104398 C80.8805935,8.74724477 82.3732412,8.36125909 83.844,8.568 L83.845,8.568 Z" id="Path" fill="#59514B" fill-rule="nonzero"></path>
                                <path d="M4.402,62.72 C4.402,60.767 5.858,59.36 8.161,59.36 L76.8,59.36 L74.56,71.68 L4.53,71.68 L4.402,62.72 Z M95.214,1.85 L92.474,1.85 C87.8406133,1.85 83.9116484,5.25552306 83.254,9.842 L76.8,54.88 L6.439,56 C3.429,56 0.963,58.334 0.963,61.186 L0.78,82.247 L0.78,101.698 L79.039,102.693 L79.039,81.76 L88.597,10.604 C88.8955083,8.38012418 90.7931794,6.72008934 93.037,6.72 L100.319,6.72 L101.052,1.85 L95.212,1.85 L95.214,1.85 Z" id="Shape" fill="#E7E9E9" fill-rule="nonzero"></path>
                                <path d="M77.318,139.958 C56.285,139.958 39.238,123.158 39.238,102.438 C39.238,81.717 56.285,64.918 77.318,64.918 C98.349,64.918 115.398,81.717 115.398,102.438 C115.398,123.158 98.349,139.958 77.318,139.958 M77.318,59.318 C53.194,59.318 33.638,78.372 33.638,101.878 C33.638,125.384 53.194,144.438 77.318,144.438 C101.44,144.438 120.998,125.384 120.998,101.878 C120.998,78.372 101.44,59.318 77.318,59.318" id="Shape" fill="#59514B" fill-rule="nonzero"></path>
                                <path d="M76.758,130.998 C60.983,130.998 48.198,118.212 48.198,102.438 C48.198,86.666 60.983,73.878 76.758,73.878 C92.531,73.878 105.318,86.666 105.318,102.438 C105.318,118.212 92.531,130.998 76.758,130.998 M77.318,69.398 C59.378,69.398 44.838,83.938 44.838,101.878 C44.838,119.815 59.378,134.358 77.318,134.358 C95.256,134.358 109.798,119.815 109.798,101.878 C109.798,83.938 95.256,69.398 77.318,69.398" id="Shape" fill="#78706A" fill-rule="nonzero"></path>
                                <path d="M15.963,51.52 L63.003,51.52 C65.1679562,51.52 66.923,53.2750438 66.923,55.44 L66.923,57.792 C66.923,58.658 66.221,59.36 65.355,59.36 L13.61,59.36 C12.7440175,59.36 12.042,58.6579825 12.042,57.792 L12.042,55.44 C12.042,53.2750438 13.7970438,51.52 15.962,51.52 L15.963,51.52 Z" id="Path" fill="#59514B" fill-rule="nonzero"></path>
                                <rect id="Rectangle" fill="#8B5C1E" fill-rule="nonzero" x="97.269" y="0" width="30.271" height="8.96" rx="1.568"></rect>
                            </g>
                            <path d="M137.48,26.3870005 C137.079505,26.3866427 136.709623,26.1726512 136.509685,25.825634 C136.309748,25.4786167 136.310129,25.0512939 136.510685,24.704634 C136.711242,24.357974 137.081505,24.1446427 137.482,24.1449996 C138.101111,24.1455523 138.602552,24.6478888 138.602,25.267 C138.601448,25.8861112 138.099111,26.3875523 137.48,26.3870005" id="Path" fill="#2F3237" fill-rule="nonzero"></path>
                            <path d="M106.96,21.323 C106.553808,20.3659676 106.544439,19.2867725 106.933953,18.322832 C107.323468,17.3588915 108.079958,16.5891692 109.037,16.183 L121.752,8.389 C123.745,7.543 126.733,10.578 127.579,12.571 C128.425,14.564 130.513,16.581 128.52,17.427 L112.1,23.4 C111.142968,23.8061919 110.063772,23.8155612 109.099832,23.4260467 C108.135892,23.0365322 107.366169,22.280042 106.96,21.323 Z" id="Path" fill="#F0DFC8" fill-rule="nonzero"></path>
                        </g>
                    </g>
                </g>
            </g>
        </g>
    </g>
</svg>