<svg width="48" height="49" viewBox="0 0 48 49" fill="none" xmlns="http://www.w3.org/2000/svg">
	<path fill-rule="evenodd" clip-rule="evenodd" d="M26 0.5L26.002 4.64207C26.6845 4.73979 27.3511 4.88674 27.9981 5.07919L29.3931 1.94589L33.0473 3.57284L31.6303 6.76011C35.4648 9.25748 38 13.5827 38 18.5C38 23.7225 35.1404 28.2771 30.9015 30.6835C33.9849 32.853 36 36.4412 36 40.5V48.5H32V40.5C32 40.2549 31.989 40.0124 31.9674 39.7729C29.9636 42.0705 27.135 43.5017 24 43.5017C20.865 43.5017 18.0364 42.0705 16.033 39.7741L16.0098 40.1007L16 40.5V48.5H12V40.5C12 36.4412 14.0151 32.853 17.0994 30.6814C12.8596 28.2771 10 23.7225 10 18.5C10 13.5827 12.5352 9.25748 16.3697 6.76011L14.9527 3.57284L18.6069 1.94589L20.0019 5.07919C20.6495 4.88655 21.3168 4.7395 22 4.64178V0.5H26ZM24 32.5C21.4372 32.5 19.1559 33.705 17.6918 35.5794C18.9703 37.9291 21.3168 39.5017 24 39.5017C26.6833 39.5017 29.03 37.9289 30.3078 35.5821C28.921 33.8032 26.7992 32.6278 24.3993 32.5098L24 32.5ZM24 8.5C18.4772 8.5 14 12.9772 14 18.5C14 24.0228 18.4772 28.5 24 28.5C29.5228 28.5 34 24.0228 34 18.5C34 12.9772 29.5228 8.5 24 8.5ZM20 16.5C21.1046 16.5 22 17.3954 22 18.5C22 19.6046 21.1046 20.5 20 20.5C18.8954 20.5 18 19.6046 18 18.5C18 17.3954 18.8954 16.5 20 16.5ZM28 16.5C29.1046 16.5 30 17.3954 30 18.5C30 19.6046 29.1046 20.5 28 20.5C26.8954 20.5 26 19.6046 26 18.5C26 17.3954 26.8954 16.5 28 16.5Z" fill="#59514B" />
	<path d="M0 0.5V-0.5H-1V0.5H0ZM48 0.5H49V-0.5H48V0.5ZM48 48.5V49.5H49V48.5H48ZM0 48.5H-1V49.5H0V48.5ZM0 1.5H48V-0.5H0V1.5ZM47 0.5V48.5H49V0.5H47ZM48 47.5H0V49.5H48V47.5ZM1 48.5V0.5H-1V48.5H1Z" fill="white" />
</svg>
