<?xml version="1.0" encoding="UTF-8"?>
<svg width="155px" height="102px" viewBox="0 0 155 102" version="1.1" xmlns="http://www.w3.org/2000/svg" xmlns:xlink="http://www.w3.org/1999/xlink">
    <!-- Generator: Sketch 61.2 (89653) - https://sketch.com -->
    <title>pleiepenger-sykt-barn</title>
    <desc>Created with Sketch.</desc>
    <defs>
        <polygon id="path-1" points="0 0 197.64 0 197.64 113.4 0 113.4"></polygon>
        <polygon id="path-3" points="0 0 197.64 0 197.64 113.4 0 113.4"></polygon>
        <polygon id="path-5" points="0 0 197.64 0 197.64 113.4 0 113.4"></polygon>
    </defs>
    <g id="Page-1" stroke="none" stroke-width="1" fill="none" fill-rule="evenodd">
        <g id="pleiepenger-sykt-barn" transform="translate(-41.000000, -12.000000)">
            <g id="Group">
                <g id="Clipped">
                    <mask id="mask-2" fill="white">
                        <use xlink:href="#path-1"></use>
                    </mask>
                    <g id="031074430-7622-5933-6432-114329049016_a"></g>
                    <path d="M140.008,12.96 C138.968,12.96 137.743,13.498 136.971,14.91 C136.199,13.498 134.974,12.96 133.934,12.96 C132.202,12.96 130.41,14.407 130.41,16.828 C130.41,20.306 136.395,24.698 136.65,24.884 C136.842228,25.0212589 137.100631,25.0204539 137.292,24.882 C137.547,24.698 143.532,20.305 143.532,16.828 C143.532,14.407 141.74,12.96 140.008,12.96 L140.008,12.96 Z" id="Path" fill="#C86151" fill-rule="nonzero" mask="url(#mask-2)"></path>
                </g>
            </g>
            <g id="Group">
                <g id="Clipped">
                    <mask id="mask-4" fill="white">
                        <use xlink:href="#path-3"></use>
                    </mask>
                    <g id="1907801426-5257-5787-04022-0755222413414_c"></g>
                    <g id="Group" mask="url(#mask-4)">
                        <g transform="translate(69.000000, 25.000000)">
                            <path d="M27.968,4.589 C40.663,4.589 51.044,14.491 51.811,26.993 C53.0689161,27.6971276 53.8477486,29.0264217 53.847001,30.468 L53.847001,34.448 C53.847001,35.5041734 53.4278196,36.5171648 52.6809922,37.2639922 C51.9341648,38.0108196 50.9211734,38.4302653 49.865,38.43 L49.692,38.427 C46.9867254,44.3138327 42.0131773,48.8544907 35.905,51.014 C35.5700324,55.1489851 32.1165305,58.3340381 27.968,58.3340381 C23.8194695,58.3340381 20.3659676,55.1489851 20.031,51.014 C13.9231992,48.8542606 8.95004424,44.3136323 6.245,38.427 L6.071,38.43 C5.0149999,38.4302653 4.00216005,38.0109568 3.25536144,37.2643457 C2.50856282,36.5177346 2.08899892,35.5050001 2.08899892,34.449 L2.08899892,30.468 C2.08825145,29.0264217 2.86708392,27.6971276 4.125,26.993 C4.892,14.491 15.273,4.589 27.968,4.589 L27.968,4.589 Z" id="Path" fill="#E7E5E2" fill-rule="nonzero"></path>
                            <path d="M22.96,7.288 C23.0355616,7.01379864 23.2516682,6.8007378 23.5269144,6.72907545 C23.8021605,6.65741309 24.0947299,6.73803644 24.2944144,6.94057546 C24.4940989,7.14311447 24.5705617,7.43679865 24.495,7.711 C24.349,8.24 24.489,8.469 25.458,9.341 C26.466,10.249 26.7,11.44 26.142,12.721 C25.9663734,13.1241679 25.4971679,13.3086265 25.094,13.133 C24.6908321,12.9573734 24.5063734,12.4881679 24.682,12.085 C24.972,11.421 24.882,10.965 24.392,10.525 C23.004,9.275 22.596,8.606 22.96,7.288 L22.96,7.288 Z M27.398,6.863 C27.6592307,6.50898547 28.1579855,6.43376931 28.512,6.695 C28.8660145,6.95623069 28.9412307,7.45498548 28.68,7.809 C28.354,8.249 28.403,8.514 28.995,9.675 C29.61,10.884 29.402,12.08 28.422,13.075 C28.1122071,13.3791827 27.615804,13.3790098 27.3062231,13.0746113 C26.9966422,12.7702129 26.98809,12.2738834 27.287,11.959 C27.795,11.442 27.874,10.985 27.576,10.399 C26.728,8.734 26.586,7.963 27.398,6.863 L27.398,6.863 Z M31.749,6.819 C32.1066044,6.56329216 32.6037922,6.64589562 32.8595,7.0035 C33.1152078,7.36110438 33.0326044,7.85829216 32.675,8.114 C32.23,8.433 32.195,8.699 32.398,9.986 C32.61,11.326 32.043,12.399 30.802,13.044 C30.5494132,13.1751165 30.2460636,13.1615197 30.00622,13.0083313 C29.7663764,12.855143 29.6264768,12.5856361 29.63922,12.3013313 C29.6519632,12.0170265 29.8154132,11.7611165 30.068,11.63 C30.711,11.297 30.928,10.886 30.825,10.236 C30.533,8.391 30.637,7.614 31.749,6.819 L31.749,6.819 Z" id="Shape" fill="#78706A" fill-rule="nonzero"></path>
                            <path d="M21.598,39.093 C21.598,41.843 19.459,44.07 16.821,44.07 C14.182,44.07 12.043,41.842 12.043,39.093 C12.043,36.345 14.183,34.117 16.821,34.117 C19.459,34.117 21.598,36.345 21.598,39.093 M43.893,39.093 C43.893,41.843 41.755,44.07 39.117,44.07 C36.477,44.07 34.338,41.842 34.338,39.093 C34.338,36.345 36.478,34.117 39.117,34.117 C41.755,34.117 43.893,36.345 43.893,39.093" id="Shape" fill="#E8CCC8" fill-rule="nonzero"></path>
                            <path d="M29.28,31.685 C28.85,31.779 28.428,31.492 28.337,31.043 C28.247,30.595 28.522,30.155 28.953,30.061 C30.023,29.827 30.919,30.007 31.411,30.868 C32.369,32.544 32.035,34.474 30.526,35.811 C29.648,36.588 28.416,36.867 27.556,36.325 C27.177265,36.0776592 27.0585902,35.5770274 27.286,35.186 C27.3898995,34.999427 27.5659225,34.8637646 27.7728063,34.8108145 C27.97969,34.7578643 28.1992436,34.7922822 28.38,34.906 C28.568,35.024 29.088,34.906 29.494,34.547 C30.419,33.729 30.598,32.688 30.044,31.717 C29.991,31.626 29.76,31.58 29.28,31.685 L29.28,31.685 Z M35.206,43.998 C35.206,47.043 31.909,46.517 31.153,45.729 C30.62,45.174 30.074,44.871 28.402,44.785 C27.062,44.717 26.335,44.942 25.579,45.729 C24.823,46.517 21.598,47.064 21.598,43.998 C21.598,40.931 25.479,39.094 28.402,39.094 C31.325,39.094 35.206,40.952 35.206,43.998 L35.206,43.998 Z" id="Shape" fill="#59514B" fill-rule="nonzero"></path>
                            <path d="M31.153,45.834 C30.792,45.457 29.51,44.958 28.377,44.9 C27.467,44.853 25.736,45.784 25.579,45.834 C25.053,45.298 24.687,44.648 24.815,44.02 C25.063,42.805 26.682,42.134 28.432,42.521 C30.182,42.909 32.197,44.406 31.949,45.621 C31.915,45.789 31.343,46.031 31.153,45.834 Z" id="Path" fill="#FA96A0" fill-rule="nonzero"></path>
                            <path d="M17.04,29.933 C16.72,29.439 16.201,28.904 15.484,28.33 C14.409,27.468 12.506,27.727 12.291,28.877 C12.077,30.027 13.234,30.45 13.83,30.571 C14.227,30.651 15.297,30.438 17.04,29.933 Z M39.393,29.933 C39.689,29.443 40.172,28.916 40.841,28.352 C41.845,27.504 43.641,27.785 43.855,28.935 C44.069,30.085 42.984,30.493 42.424,30.607 C42.051,30.682 41.04,30.457 39.393,29.933 L39.393,29.933 Z" id="Shape" fill="#FFFFFF" fill-rule="nonzero"></path>
                            <path d="M16.55,31.101 C16.492,31.555 16.798,31.972 17.234,32.032 C17.67,32.092 18.07,31.773 18.128,31.319 C18.241,30.438 18.848,29.791 20.091,29.346 C21.333,28.9 22.195,29.019 22.804,29.642 C22.9517414,29.7955863 23.1562719,29.8814612 23.3693727,29.8793794 C23.5824735,29.8772976 23.7852873,29.7874433 23.93,29.631 C24.238206,29.2991955 24.2338182,28.7845017 23.92,28.458 C22.834,27.349 21.342,27.143 19.573,27.778 C17.803,28.412 16.75,29.531 16.549,31.101 L16.55,31.101 Z M41.15,31.101 C41.208,31.555 40.902,31.972 40.466,32.032 C40.03,32.092 39.63,31.773 39.572,31.319 C39.459,30.438 38.852,29.791 37.609,29.346 C36.367,28.9 35.505,29.019 34.896,29.642 C34.7482586,29.7955863 34.5437281,29.8814612 34.3306273,29.8793794 C34.1175265,29.8772976 33.9147127,29.7874433 33.77,29.631 C33.461794,29.2991955 33.4661818,28.7845017 33.78,28.458 C34.866,27.349 36.358,27.143 38.127,27.778 C39.897,28.412 40.95,29.531 41.151,31.101 L41.15,31.101 Z" id="Shape" fill="#59514B" fill-rule="nonzero"></path>
                            <path d="M55.728,89.743 L1.48,89.743 C1.113,88.303 0.24,81.288 0.145,79.766 L0.098,32.576 C0.098,8.469 19.703,0.608 27.967,0.608 C36.231,0.608 55.837,8.768 55.837,32.383 L55.837,79.766 C55.694,81.288 56.093,88.302 55.727,89.743 L55.728,89.743 Z M4.125,26.993 C2.86708392,27.6971276 2.08825145,29.0264217 2.08899892,30.468 L2.08899892,34.448 C2.08899892,35.5341567 2.53236519,36.5732426 3.31692292,37.3243788 C4.10148066,38.0755149 5.15888129,38.4734733 6.244,38.426 C8.94905784,44.3132119 13.9226357,48.8542576 20.031,51.014 C20.3659676,55.1489851 23.8194695,58.3340381 27.968,58.3340381 C32.1165305,58.3340381 35.5700324,55.1489851 35.905,51.014 C42.0133643,48.8542576 46.9869422,44.3132119 49.692,38.426 C50.7771187,38.4734733 51.8345193,38.0755149 52.6190771,37.3243788 C53.4036348,36.5732426 53.847001,35.5341567 53.847001,34.448 L53.847001,30.468 C53.8477486,29.0264217 53.0689161,27.6971276 51.811,26.993 C51.044,14.491 40.663,4.589 27.968,4.589 C15.273,4.589 4.892,14.491 4.125,26.993 L4.125,26.993 Z" id="Shape" fill="#78706A" fill-rule="nonzero"></path>
                            <path d="M18.015,48.816 C18.828,50.309 22.482,57.741 27.87,62.318 C33.221,57.81 37.921,49.822 37.921,48.431 C37.376,48.072 36.833,49.873 36.294,49.588 C33.63,52.192 26.119,54.926 19.01,49.588 C18.173,50.072 18.015,48.816 18.015,48.816 L18.015,48.816 Z" id="Path" fill="#E7E5E2" fill-rule="nonzero"></path>
                            <path d="M24.679,87.274 C24.2051397,87.5529038 23.5949038,87.3948603 23.316,86.921 C23.0370963,86.4471397 23.1951397,85.8369038 23.669,85.558 C32.379,80.43 41.568,69.928 51.191,54.05 C51.4757028,53.5797296 52.0877295,53.4292973 52.558,53.7140001 C53.0282704,53.9987028 53.1787027,54.6107295 52.894,55.081 C43.114,71.215 33.724,81.947 24.679,87.274 L24.679,87.274 Z" id="Path" fill="#B7B1A9" fill-rule="nonzero"></path>
                            <path d="M17.497,52.177 C17.2056699,51.7108717 17.3473718,51.0968303 17.8135001,50.8055001 C18.2796283,50.5141699 18.8936698,50.6558717 19.185,51.122 C22.1064966,55.8142792 25.7019357,60.0515804 29.856,63.698 C34.03,67.361 37.008,69.701 38.742,70.692 C39.0506775,70.8684892 39.2417513,71.1962494 39.2432635,71.5518165 C39.2447406,71.9073837 39.0564288,72.2367386 38.7492459,72.4158165 C38.4420631,72.5948945 38.0626775,72.5964892 37.754,72.42 C35.869,71.343 32.814,68.943 28.544,65.195 C24.2436789,61.4204105 20.52156,57.034193 17.497,52.177 L17.497,52.177 Z" id="Path" fill="#B7B1A9" fill-rule="nonzero"></path>
                            <g id="Group" stroke-width="1" fill="none" fill-rule="evenodd" transform="translate(36.000000, 46.000000)">
                                <path d="M1.115,8.938 L1.041,9.078 C0.488,10.21 0.958,11.628 2.136,12.308 L19.769,22.488 L19.166,23.531 L4.708,15.184 C3.506,14.49 2.023,14.781 1.318,15.824 L1.234,15.959 L1.16,16.099 C0.608,17.232 1.097,18.662 2.299,19.356 L24.129,31.959 C23.931,32.068 23.649,32.158 23.245,32.178 C22.062,32.233 17.055,31.559 17.055,31.559 C17.055,31.559 11.002,31.015 10.68,33.559 C10.36,36.099 14.042,36.975 14.042,36.975 C14.042,36.975 19.6,38.795 22.296,39.581 C25.706,40.578 29.726,40.633 32.779,40.521 C35.826,40.407 40.644,39.609 41.185,38.671 L45.316,40.771 L53.901,25.901 L51.061,24.261 C50.283,23.813 50.409,22.101 50.409,22.101 L50.197,22.01 C50.173,21.147 49.674,20.285 48.817,19.79 L15.843,0.753 C14.581,0.024 13.018,0.366 12.352,1.52 L12.278,1.66 C11.728,2.79 12.223,4.225 13.434,4.925 L25.79,12.058 L25.188,13.101 L9.64,4.125 C8.46,3.444 7,3.749 6.296,4.793 L6.213,4.927 L6.138,5.067 C5.585,6.199 6.051,7.616 7.231,8.297 L22.779,17.273 L22.177,18.316 L4.545,8.136 C3.367,7.456 1.903,7.76 1.199,8.804 L1.115,8.938 L1.115,8.938 Z" id="Path" fill="#E7E6E2" fill-rule="nonzero"></path>
                                <polygon id="Path" fill="#5C4378" fill-rule="nonzero" points="81.248 65.262 92.64 44.02 59.448 25.928 48.008 45.745"></polygon>
                                <polygon id="Path" fill="#826BA1" fill-rule="nonzero" points="50.093 46.95 61.534 27.133 55.276 23.52 43.836 43.337"></polygon>
                                <path d="M54.953,28.897 C54.6202486,29.473033 54.8174672,30.2097483 55.3935001,30.5424998 C55.969533,30.8752514 56.7062484,30.6780329 57.039,30.102 C57.3436508,29.5288125 57.1395198,28.8173096 56.5773247,28.4928211 C56.0151296,28.1683327 55.29693,28.3474836 54.953,28.898 L54.953,28.897 Z" id="Path" fill="#2F3137" fill-rule="nonzero"></path>
                            </g>
                        </g>
                    </g>
                </g>
            </g>
            <g id="Group">
                <g id="Clipped">
                    <mask id="mask-6" fill="white">
                        <use xlink:href="#path-5"></use>
                    </mask>
                    <g id="2264515881-09454-3703-5457-2589186709343_e"></g>
                    <g id="Group" mask="url(#mask-6)" fill-rule="nonzero">
                        <g transform="translate(34.000000, 78.000000)" id="Path">
                            <path d="M34.807,0.569978461 L34.807,13.75 C34.807,13.75 34.94,14.556 35.118,15.718 L38.851,10.468 C39.392947,9.69554005 40.2234636,9.17422701 41.1547091,9.021968 C42.0859546,8.86970898 43.0392553,9.09936717 43.799,9.659 L44.135,9.905 C45.721,11.071 46.077,13.325 44.93,14.939 L34.768,29.235 C34.585,29.732 34.393,30.215 34.198,30.678 C33.268,32.891 29.506,37.318 29.238,38.735 C29.06985,39.6233519 28.8915049,40.5097436 28.703,41.394 L12.015,35.545 L17.506,16.779 C17.592,16.485 17.744,16.215 17.951,15.989 C19.879,13.879 30.634,2.729 32.457,0.842 C32.6254469,0.667093737 32.8581727,0.56879961 33.101,0.569978461 L34.807,0.569978461 L34.807,0.569978461 Z" fill="#E7E6E2"></path>
                            <polygon fill="#5C4378" points="8.742 35.39 30.008 43.068 24.362 59.405 0.02 59.405"></polygon>
                            <polygon fill="#826BA1" points="8.446 34.19 31.208 41.958 28.78 48.598 6.018 40.83"></polygon>
                        </g>
                    </g>
                </g>
            </g>
        </g>
    </g>
</svg>