<?xml version="1.0" encoding="UTF-8"?>
<svg width="251px" height="118px" viewBox="0 0 251 118" version="1.1" xmlns="http://www.w3.org/2000/svg" xmlns:xlink="http://www.w3.org/1999/xlink">
    <!-- Generator: Sketch 61.2 (89653) - https://sketch.com -->
    <title>sykdom-i-familien</title>
    <desc>Created with Sketch.</desc>
    <defs>
        <path d="M44.4,0 C45.018,0 51.728,2.676 57.176,8.054 C61.417,12.242 64.8,18.54 64.8,23.427 L64.8,38.4 C64.8,46.353 58.353,52.8 50.4,52.8 L0,52.8 L0,23.427 C0,18.55 3.311,12.263 7.476,8.08 C12.844,2.689 19.902,0 20.4,0 C20.4,5.785 25.773,12 32.4,12 C38.925,12 44.234,5.974 44.396,0.267 L44.4,0 Z" id="path-1"></path>
        <path d="M44.4,0 C45.018,0 51.728,2.676 57.176,8.054 C61.417,12.242 64.8,18.54 64.8,23.427 L64.8,38.4 C64.8,46.353 58.353,52.8 50.4,52.8 L0,52.8 L0,23.427 C0,18.55 3.311,12.263 7.476,8.08 C12.844,2.689 19.902,0 20.4,0 C20.4,5.785 25.773,12 32.4,12 C38.925,12 44.234,5.974 44.396,0.267 L44.4,0 Z" id="path-3"></path>
        <path d="M1.345,37.234 C1.345,37.156 1.76,32.174 2.397,30 C3.595,25.91 5.992,23.866 5.992,24 C5.992,24 4.885,30.49 5.667,29.432 C10.094,23.462 21.413,28.743 25.667,21.039 C26.202,25.28 20.834,26.559 20.834,26.559 C25.114,27.388 28.821,25.627 29.825,23.537 C30.155,25.241 30.288,26.372 28.801,27.538 C34.061,26.521 32.997,22.821 32.997,22.821 C37.15,23.392 41.106,29.059 41.524,34.034 C41.943,39.009 44.34,40.8 44.34,40.8 C45.755,39.37 47.353,38.57 49.133,38.4 C49.133,38.4 50.332,34.8 50.332,32.4 C50.332,26.56 50.831,22.376 49.133,17.391 C45.538,6.834 35.951,0.05 26.256,0 C8.389,-0.091 0,11.97 0,28.8 C0,33.6 1.345,37.354 1.345,37.234 Z" id="path-5"></path>
        <path d="M40.985,0 C41.555,0 47.749,2.533 52.777,7.623 C56.693,11.586 59.815,17.547 59.815,22.173 L59.815,36.343 C59.815,43.87 53.865,49.971 46.523,49.971 L0,49.971 L0,22.172 C0,17.556 3.057,11.606 6.901,7.647 C11.856,2.545 18.371,0 18.831,0 C18.831,5.475 23.791,11.357 29.908,11.357 C35.93,11.357 40.829,5.657 40.981,0.257 L40.985,0 Z" id="path-7"></path>
        <path d="M3.824,59.178 C3.824,52.077 1.2,40.768 1.2,33.843 C1.2,15.806 10.243,0 28.8,0 C47.357,0 56.4,15.806 56.4,33.843 C56.4,40.768 53.616,53.286 53.776,59.178 C53.936,65.07 54,68.784 57.6,74.616 C56.966,74.616 49.978,73.829 44.24,76.932 C39.115,79.702 31.83,82.8 25.036,82.8 C17.342,82.8 11.668,80.065 6.171,76.932 C1.379,74.2 0,74.616 0,74.616 C1.2,68.784 3.824,66.279 3.824,59.178 Z M22.8,58.8 C34.623,58.8 44.219,49.271 44.219,34.49 C44.219,28.684 35.823,22.8 24,22.8 C12.177,22.8 6.181,28.684 6.181,34.49 C6.181,46.035 10.977,58.8 22.8,58.8 Z" id="path-9"></path>
        <path d="M26.8,8.58 L26.8,19.818 L0.4,19.818 L0.4,8.58 C0.4,5.364 4.713,1.693 7.6,0.182 L19.6,0.182 C22.514,1.72 26.8,5.401 26.8,8.579 L26.8,8.58 Z" id="path-11"></path>
    </defs>
    <g id="Page-1" stroke="none" stroke-width="1" fill="none" fill-rule="evenodd">
        <g id="sykdom-i-familien" transform="translate(-1.000000, 0.000000)">
            <path d="M219.722,7.4 C228.806,7.4 236.361,12.22 239.939,19.626 C242.275,24.46 242.2,30.397 242.2,36.813 L242.2,36.913 C242.605,37.063 242.985,37.225 243.341,37.4 C244.886,38.157 245.8,39.8 245.8,41 L245.8,41.289 C245.792,42.399 245.702,43.592 244.57,45.8 C243.025,48.818 240.985,49.938 239.383,50.354 C238.258,54.172 236.428,57.459 233.579,60.098 C232.97353,60.6600647 232.325608,61.1745907 231.641,61.637 L231.64,65.06 L227.784,89 L211.334,89 L206.8,65.06 L206.8,63.348 C200.654,60.361 195.4,53.18 195.4,40.633 C195.4,33.136 196.03,28.457 197.863,23.332 C201.225,13.936 208.203,7.4 219.722,7.4 Z" id="Path" fill="#E7E5E2" fill-rule="nonzero"></path>
            <path d="M207.213,39.976 C207.076323,40.1146991 206.925501,40.2387083 206.763,40.346 C206.184127,40.7333847 205.467554,40.8556022 204.793,40.682 C203.881,40.54 203.263,40.649 203.036,40.96 C202.147,42.181 202.432,43.475 203.957,44.538 C204.759,45.095 205.863,45.292 206.447,45.002 C206.733,44.861 207.067,45.005 207.194,45.325 C207.321,45.645 207.191,46.019 206.906,46.16 C205.94,46.638 204.454,46.374 203.359,45.612 C201.286,44.168 200.812,42.011 202.159,40.161 C202.712,39.401 203.679,39.23 204.95,39.428 C205.04,39.449 205.073,39.458 205.112,39.464 C205.459,39.529 205.837,39.484 206.19,39.254 C206.282,39.194 206.37,39.121 206.455,39.035 C206.561491,38.9232264 206.71178,38.8639892 206.865896,38.8730435 C207.020011,38.8820978 207.16233,38.9585257 207.255,39.082 C207.464,39.342 207.445,39.742 207.213,39.976 L207.213,39.976 Z M213.823,52.704 C213.701,52.727 213.476,52.763 213.183,52.799 C212.65,52.865 212.116,52.902 211.626,52.895 C211.381488,52.8929219 211.137344,52.8755547 210.895,52.843 C210.126,52.733 209.559,52.537 209.158,52.285 C208.821,52.073 208.676,51.883 208.645,51.793 C208.549,51.519 208.198,51.36 207.861,51.438 C207.524,51.516 207.329,51.801 207.424,52.075 C207.525,52.365 207.814,52.744 208.381,53.1 C208.951,53.459 209.709,53.722 210.676,53.86 C210.964,53.9 211.274,53.922 211.604,53.926 C212.174,53.934 212.776,53.893 213.374,53.819 C213.702,53.779 213.957,53.738 214.108,53.709 C214.45,53.645 214.662,53.369 214.584,53.091 C214.504,52.813 214.164,52.641 213.823,52.704 L213.823,52.704 Z" id="Shape" fill="#59514B" fill-rule="nonzero"></path>
            <path d="M202.458,38.818 C203.951,39.284 205.031,36.672 204.999,34.808 C204.994,34.454 204.857,32.823 203.962,32.631 C203.069,32.439 202.474,33.187 202.384,33.319 C201.31,34.899 200.824,38.307 202.458,38.819 M219.31,34.623 C219.242,34.276 218.819,32.691 217.853,32.606 C216.887,32.522 216.393,33.324 216.324,33.464 C215.474,35.139 215.552,38.54 217.344,38.852 C218.984,39.137 219.662,36.447 219.309,34.623 L219.31,34.623 Z" id="Shape" fill="#635E59" fill-rule="nonzero"></path>
            <path d="M231.4,63.8 C232.018,63.8 238.728,66.476 244.176,71.854 C248.417,76.042 251.8,82.34 251.8,87.227 L251.8,102.2 C251.8,110.153 245.353,116.6 237.4,116.6 L187,116.6 L187,87.227 C187,82.35 190.311,76.063 194.476,71.88 C199.844,66.489 206.902,63.8 207.4,63.8 C207.4,69.585 212.773,75.8 219.4,75.8 C225.925,75.8 231.234,69.774 231.396,64.067 L231.4,63.8 Z" id="Path" fill="#D8A25D" fill-rule="nonzero"></path>
            <g id="Group" transform="translate(187.000000, 63.800000)">
                <g id="Clipped">
                    <mask id="mask-2" fill="white">
                        <use xlink:href="#path-1"></use>
                    </mask>
                    <g id="0187816019-6079-8706-02564-9729878105220_a"></g>
                    <polygon id="Path" fill="#0C5472" fill-rule="nonzero" mask="url(#mask-2)" points="-43.2 86.758 108.25 86.758 108.25 -33.6 -43.2 -33.6"></polygon>
                </g>
            </g>
            <g id="Group" transform="translate(187.000000, 63.800000)">
                <g id="Clipped">
                    <mask id="mask-4" fill="white">
                        <use xlink:href="#path-3"></use>
                    </mask>
                    <g id="11705520478-26039-28083-00764-3129111691129_c"></g>
                    <g id="Group" mask="url(#mask-4)" fill-rule="nonzero">
                        <g transform="translate(13.000000, 1.000000)" id="Path">
                            <polygon fill="#E7E9E9" points="3.8 0.2 32.6 51.8 12.2 51.8 0.2 1.4"></polygon>
                            <path d="M15.8,32.6 L30.2,32.6 C33.6297497,32.6 36.7989692,34.4297496 38.513844,37.3999999 C40.2287189,40.3702503 40.2287189,44.0297497 38.513844,47.0000001 C36.7989692,49.9702504 33.6297497,51.8 30.2,51.8 L15.8,51.8 C10.4980664,51.8 6.2,47.5019336 6.2,42.2 C6.2,36.8980664 10.4980664,32.6 15.8,32.6 Z" fill="#FFFFFF"></path>
                            <polygon fill="#E7E9E9" points="36.2 0.2 13.4 51.8 39.8 51.8 39.8 2.6"></polygon>
                        </g>
                    </g>
                </g>
            </g>
            <path d="M195.545,37.434 C195.545,37.356 195.96,32.374 196.597,30.2 C197.795,26.11 200.192,24.066 200.192,24.2 C200.192,24.2 199.085,30.69 199.867,29.632 C204.294,23.662 215.613,28.943 219.867,21.239 C220.402,25.48 215.034,26.759 215.034,26.759 C219.314,27.588 223.021,25.827 224.025,23.737 C224.355,25.441 224.488,26.572 223.001,27.738 C228.261,26.721 227.197,23.021 227.197,23.021 C231.35,23.592 235.306,29.259 235.724,34.234 C236.143,39.209 238.54,41 238.54,41 C239.955,39.57 241.553,38.77 243.333,38.6 C243.333,38.6 244.532,35 244.532,32.6 C244.532,26.76 245.031,22.576 243.333,17.591 C239.738,7.034 230.151,0.25 220.456,0.2 C202.589,0.109 194.2,12.17 194.2,29 C194.2,33.8 195.545,37.554 195.545,37.434 Z" id="Path" fill="#F6B873" fill-rule="nonzero"></path>
            <g id="Group" transform="translate(194.200000, 0.200000)">
                <g id="Clipped">
                    <mask id="mask-6" fill="white">
                        <use xlink:href="#path-5"></use>
                    </mask>
                    <g id="210258141-23423-8465-02131-9610893007373_e"></g>
                    <polygon id="Path" fill="#F6B873" fill-rule="nonzero" mask="url(#mask-6)" points="-15.6 -32.4 67.2 -32.4 67.2 62.4 -15.6 62.4"></polygon>
                </g>
            </g>
            <path d="M50.502,12.2 C41.651,12.2 34.289,16.92 30.802,24.171 C28.527,28.905 28.6,34.718 28.6,41 C28.6,41.238 28.602,41.464 28.605,41.68 C28.175,41.839 27.774,42.012 27.4,42.2 C25.893,42.957 25,44.6 25,45.8 L25,46.1 C25.008,47.208 25.1,48.4 26.2,50.6 C27.838,53.876 30.043,54.916 31.654,55.246 C32.766,58.566 34.472,61.446 37,63.8 C37.47,64.238 37.954,64.637 38.45,64.999 L38.955,67.4 L39.4,73.4 L41.925,93.8 L57.82,93.8 L61,73.4 L61.579,67.4 L61.617,67.172 C68.11,64.637 74.2,57.82 74.2,44.74 C74.2,27.839 65.13,12.2 50.502,12.2 Z" id="Path" fill="#E7E5E2" fill-rule="nonzero"></path>
            <path d="M59.8,57.786 C59.8,57.789 61,57.784 61,57.192 C61,56.6 59.8,56.6 59.8,56.6 C59.8,56.6 59.8,56.586 57.4,56.6 C55,56.614 55.501,56.572 53.8,56.6 C53.166,56.61 52.6,56.61 52.6,57.192 C52.6,57.774 53.163,57.786 53.8,57.786 C55.757,57.786 55.357,57.8 57.4,57.8 C59.443,57.8 59.8,57.784 59.8,57.786 Z" id="Path" fill="#59514B" fill-rule="nonzero"></path>
            <path d="M64.742,44.548 C63.249,44.993 62.169,42.495 62.201,40.712 C62.206,40.373 62.343,38.812 63.238,38.63 C64.131,38.446 64.726,39.161 64.816,39.288 C65.89,40.798 66.376,44.059 64.742,44.548" id="Path" fill="#635E59" fill-rule="nonzero"></path>
            <path d="M47.89,40.535 C47.958,40.204 48.381,38.687 49.347,38.606 C50.313,38.525 50.807,39.292 50.876,39.426 C51.726,41.029 51.648,44.282 49.856,44.58 C48.216,44.853 47.538,42.28 47.891,40.535 L47.89,40.535 Z M59.987,45.568 C60.6461788,46.1526514 61.5468648,46.383501 62.406,46.188 C63.319,46.061 63.937,46.158 64.164,46.43 C65.053,47.501 64.768,48.635 63.243,49.567 C62.441,50.057 61.337,50.228 60.753,49.975 C60.4687562,49.8497691 60.1365746,49.975171 60.006,50.257 C59.9450525,50.3921645 59.9412594,50.5462112 59.9954805,50.6842116 C60.0497017,50.822212 60.1573437,50.9324751 60.294,50.99 C61.26,51.409 62.746,51.177 63.841,50.51 C65.914,49.243 66.388,47.352 65.041,45.73 C64.488,45.064 63.521,44.913 62.25,45.087 L62.088,45.119 C61.6064917,45.2035282 61.11262,45.0652588 60.745,44.743 C60.5115619,44.5373188 60.156757,44.555059 59.945,44.783 C59.8444458,44.8917158 59.7921719,45.0364999 59.8000838,45.184377 C59.8079957,45.3322542 59.8754198,45.4706341 59.987,45.568 L59.987,45.568 Z" id="Shape" fill="#59514B" fill-rule="nonzero"></path>
            <path d="M61.37,67.207 C61.94,67.207 68.134,69.74 73.162,74.83 C77.078,78.793 80.2,84.754 80.2,89.38 L80.2,103.55 C80.2,111.077 74.25,117.178 66.908,117.178 L20.385,117.178 L20.385,89.379 C20.385,84.763 23.442,78.813 27.286,74.854 C32.241,69.752 38.756,67.207 39.216,67.207 C39.216,72.682 44.176,78.564 50.293,78.564 C56.315,78.564 61.214,72.864 61.366,67.464 L61.37,67.207 Z" id="Path" fill="#D8A25D" fill-rule="nonzero" transform="translate(50.292500, 92.192500) scale(-1, 1) translate(-50.292500, -92.192500) "></path>
            <g id="Group" transform="translate(50.200000, 92.207000) scale(-1, 1) translate(-50.200000, -92.207000) translate(20.200000, 67.207000)">
                <g id="Clipped">
                    <mask id="mask-8" fill="white">
                        <use xlink:href="#path-7"></use>
                    </mask>
                    <g id="30790021244-11963-26174-6102-8343199658852_g"></g>
                    <polygon id="Path" fill="#5C4378" fill-rule="nonzero" mask="url(#mask-8)" points="-39.877 82.54 100.541 82.54 100.541 -31.8 -39.877 -31.8"></polygon>
                </g>
            </g>
            <g id="Group" transform="translate(21.000000, 7.000000)">
                <path d="M4.224,59.578 C4.224,52.477 1.6,41.168 1.6,34.243 C1.6,16.206 10.643,0.4 29.2,0.4 C47.757,0.4 56.8,16.206 56.8,34.243 C56.8,41.168 54.016,53.686 54.176,59.578 C54.336,65.47 54.4,69.184 58,75.016 C57.366,75.016 50.378,74.229 44.64,77.332 C39.515,80.102 32.23,83.2 25.436,83.2 C17.742,83.2 12.068,80.465 6.571,77.332 C1.779,74.6 0.4,75.016 0.4,75.016 C1.6,69.184 4.224,66.679 4.224,59.578 Z M23.2,59.2 C35.023,59.2 44.619,49.671 44.619,34.89 C44.619,29.084 36.223,23.2 24.4,23.2 C12.577,23.2 6.581,29.084 6.581,34.89 C6.581,46.435 11.377,59.2 23.2,59.2 Z" id="Shape" fill="#BAE0EC" fill-rule="nonzero" transform="translate(29.200000, 41.800000) scale(-1, 1) translate(-29.200000, -41.800000) "></path>
                <g transform="translate(29.000000, 41.900000) scale(-1, 1) translate(-29.000000, -41.900000) translate(0.000000, 0.400000)" id="Clipped">
                    <g>
                        <mask id="mask-10" fill="white">
                            <use xlink:href="#path-9"></use>
                        </mask>
                        <g id="4868713026-05772-8060-08520-8530880913107_i"></g>
                        <polygon id="Path" fill="#3E3832" fill-rule="nonzero" mask="url(#mask-10)" points="-12 -2.4 69.802 -2.4 69.802 92.4 -12 92.4"></polygon>
                    </g>
                </g>
            </g>
            <g id="Group" transform="translate(124.000000, 61.000000)">
                <path d="M34.2,43.598 L34.2,54.836 L7.8,54.836 L7.8,43.598 C7.8,40.382 12.113,36.711 15,35.2 L27,35.2 C29.914,36.738 34.2,40.419 34.2,43.597 L34.2,43.598 Z" id="Path" fill="#D8A25D" fill-rule="nonzero"></path>
                <g transform="translate(7.400000, 35.018000)" id="Clipped">
                    <g>
                        <mask id="mask-12" fill="white">
                            <use xlink:href="#path-11"></use>
                        </mask>
                        <g id="5449709784-9516-0996-2663-07593785626182_k"></g>
                        <polygon id="Path" fill="#D87F0A" fill-rule="nonzero" mask="url(#mask-12)" points="-48.957 70.482 89.455 70.482 89.455 -60.909 -48.957 -60.909"></polygon>
                    </g>
                </g>
                <path d="M14.19,54.836 L27.34,54.836 L29.4,36.726 C29.162,36.503 27,35.064 27,35.215 L26.16,44.108 L15.5,44.478 L14.768,35.215 C14.768,35.215 13.106,36.15 12.6,36.727 L14.19,54.837 L14.19,54.836 Z" id="Path" fill="#FFBD66" fill-rule="nonzero"></path>
                <path d="M21,0.4 C30.538,0.4 38.343,7.818 38.96,17.2 L39,17.2 C40.3254834,17.2 41.4000001,18.2745166 41.4000001,19.6 L41.4000001,22 C41.4000001,22.8088991 40.9929319,23.5634852 40.3166188,24.0072401 C39.6403057,24.450995 38.7859552,24.5242115 38.044,24.202 C36.2611476,29.4187159 32.1919986,33.534641 26.996,35.377 L27,35.2 C26.9932803,38.4743937 24.3625694,41.1387297 21.0885251,41.187034 C17.8144809,41.2353382 15.1063145,38.6497703 15.003,35.377 C9.80700144,33.534641 5.73785245,29.4187159 3.955,24.202 C3.21314643,24.5237669 2.35913346,24.4503251 1.68310697,24.0066261 C1.00708048,23.562927 0.6,22.8086289 0.6,22 L0.6,19.6 C0.6,18.9634804 0.852856417,18.353031 1.30294373,17.9029437 C1.75303103,17.4528564 2.36348042,17.2 3,17.2 L3.04,17.2 C3.657,7.818 11.462,0.4 21,0.4 Z" id="Path" fill="#E7E5E2" fill-rule="nonzero"></path>
                <path d="M24.32,29.27 C23.105,29.88 22.8,30.494 22.8,31.6 C22.8,31.9313708 23.0686292,32.2 23.4,32.2 C23.7313708,32.2 24,31.9313708 24,31.6 C24,30.91 24.093,30.724 24.868,30.337 C25.942,29.8 25.748,28.779 24.768,28.167 C24.016,27.697 22.831,27.4 21.6,27.4 C19.764,27.4 18.362,28.335 17.463,30.132 C17.3149877,30.4285769 17.4354231,30.7889877 17.732,30.937 C18.0285769,31.0850123 18.3889877,30.9645769 18.537,30.668 C19.238,29.265 20.236,28.6 21.6,28.6 C22.619,28.6 23.584,28.841 24.132,29.184 C24.318,29.3 24.375,29.287 24.375,29.271 L24.319,29.27 L24.32,29.27 Z" id="Path" fill="#59514B" fill-rule="nonzero"></path>
                <path d="M16.2,26.8 C16.2,28.0861562 15.513844,29.2746136 14.4000001,29.9176917 C13.2861562,30.5607698 11.9138438,30.5607698 10.7999999,29.9176917 C9.68615599,29.2746136 9,28.0861562 9,26.8 C9,24.811775 10.611775,23.2000003 12.6,23.2000003 C14.588225,23.2000003 16.2,24.811775 16.2,26.8 M33,26.8 C33,28.7882251 31.3882251,30.4 29.4,30.4 C27.4117749,30.4 25.8,28.7882251 25.8,26.8 C25.8,24.8117749 27.4117749,23.2 29.4,23.2 C31.3882251,23.2 33,24.8117749 33,26.8" id="Shape" fill="#E8CCC8" fill-rule="nonzero"></path>
                <path d="M21.989,21.44 C21.7771644,21.4895222 21.5551179,21.4205005 21.4086866,21.2596135 C21.2622553,21.0987264 21.2143816,20.8711813 21.28357,20.6649297 C21.3527583,20.458678 21.5281683,20.3060347 21.742,20.266 C22.549,20.096 23.223,20.227 23.595,20.85 C24.316,22.062 24.065,23.458 22.927,24.426 C22.266,24.988 21.337,25.189 20.689,24.797 C20.4054018,24.6252394 20.3147394,24.2560982 20.4865,23.9725 C20.6582606,23.6889018 21.0274018,23.5982394 21.311,23.77 C21.452,23.856 21.844,23.771 22.15,23.511 C22.847,22.919 22.982,22.167 22.564,21.464 C22.524,21.398 22.35,21.364 21.989,21.44 Z M10.944,17.551 C10.8046664,17.3880869 10.76283,17.1632154 10.8342501,16.9610924 C10.9056702,16.7589694 11.0794964,16.6103023 11.2902501,16.5710924 C11.5010038,16.5318826 11.7166664,16.6080869 11.856,16.771 C12.274,17.26 12.913,17.402 13.874,17.163 C14.834,16.923 15.332,16.498 15.472,15.869 C15.5172002,15.6581535 15.6720683,15.4877784 15.877658,15.4227234 C16.0832478,15.3576684 16.3079355,15.4079401 16.4661999,15.554404 C16.6244643,15.7008679 16.6919613,15.920995 16.643,16.131 C16.393,17.248 15.533,17.986 14.164,18.327 C12.796,18.668 11.689,18.422 10.944,17.551 L10.944,17.551 Z M31.13,17.551 C31.2693336,17.3880869 31.31117,17.1632154 31.2397499,16.9610924 C31.1683299,16.7589694 30.9945036,16.6103022 30.7837499,16.5710924 C30.5729962,16.5318825 30.3573336,16.6080869 30.218,16.771 C29.8,17.26 29.161,17.402 28.2,17.163 C27.24,16.923 26.742,16.498 26.602,15.869 C26.5567998,15.6581535 26.4019317,15.4877784 26.196342,15.4227234 C25.9907522,15.3576684 25.7660645,15.4079401 25.6078001,15.554404 C25.4495357,15.7008679 25.3820387,15.920995 25.431,16.131 C25.68,17.248 26.541,17.986 27.91,18.327 C29.278,18.668 30.385,18.422 31.13,17.551 L31.13,17.551 Z" id="Shape" fill="#59514B" fill-rule="nonzero"></path>
                <path d="M14.408,21.996 C12.755,22.104 12.292,20.008 12.79,18.641 C12.884,18.381 13.431,17.2 14.4,17.2 C15.368,17.2 15.796,17.846 15.855,17.957 C16.567,19.291 16.219,21.879 14.408,21.996 M27.518,21.996 C29.172,22.104 29.635,20.008 29.136,18.641 C29.042,18.381 28.495,17.2 27.526,17.2 C26.558,17.2 26.13,17.846 26.071,17.957 C25.359,19.291 25.707,21.879 27.518,21.996" id="Shape" fill="#59514B" fill-rule="nonzero"></path>
                <g transform="translate(16.000000, 1.000000)" fill="#78706A" fill-rule="nonzero" id="Shape">
                    <path d="M1.075,0.925 C1.16336556,0.605503272 1.49400327,0.41813444 1.8135,0.5065 C2.13299673,0.59486556 2.32036556,0.925503272 2.232,1.245 C2.112,1.68 2.228,1.871 3.006,2.572 C3.796,3.283 3.979,4.214 3.541,5.22 C3.40845166,5.52375661 3.05475661,5.66254834 2.751,5.53 C2.44724339,5.39745166 2.30845166,5.04375661 2.441,4.74 C2.676,4.2 2.602,3.823 2.203,3.464 C1.109,2.479 0.791,1.956 1.075,0.925 L1.075,0.925 Z M4.596,0.598 C4.72336518,0.42544072 4.93311474,0.333937886 5.14623806,0.35795973 C5.35936137,0.381981574 5.54347993,0.517878606 5.62923806,0.71445973 C5.71499619,0.911040854 5.68936518,1.13844072 5.562,1.311 C5.293,1.674 5.334,1.895 5.809,2.827 C6.292,3.774 6.129,4.709 5.359,5.491 C5.12629112,5.72599906 4.74730332,5.72837857 4.51166198,5.49632008 C4.27602064,5.26426159 4.27259368,4.88528181 4.504,4.649 C4.918,4.229 4.984,3.85 4.74,3.372 C4.072,2.06 3.961,1.459 4.596,0.598 L4.596,0.598 Z M8.046,0.57 C8.31552413,0.38223761 8.68592553,0.44610469 8.87700498,0.713287422 C9.06808443,0.980470154 9.00880052,1.35163268 8.744,1.546 C8.376,1.809 8.346,2.03 8.51,3.064 C8.676,4.114 8.233,4.954 7.259,5.459 C6.96490837,5.61170673 6.60270673,5.49709163 6.45,5.203 C6.29729327,4.90890837 6.41190837,4.54670673 6.706,4.394 C7.229,4.122 7.409,3.782 7.325,3.252 C7.095,1.798 7.175,1.192 8.045,0.569 L8.046,0.57 Z"></path>
                </g>
            </g>
            <g id="Group" transform="translate(124.600000, 59.000000)" fill-rule="nonzero">
                <path d="M20.4,0 C31.004,0 39.6,8.596 39.6,19.2 C39.6,29.804 31.004,38.4 20.4,38.4 C9.796,38.4 1.2,29.804 1.2,19.2 C1.2,8.596 9.796,0 20.4,0 Z M20.4,13.2 C12.447,13.2 6,17.498 6,22.8 C6,28.102 12.447,32.4 20.4,32.4 C28.353,32.4 34.8,28.102 34.8,22.8 C34.8,17.498 28.353,13.2 20.4,13.2 Z" id="Shape" fill="#D87F0A"></path>
                <circle id="Oval" fill="#FFFFFF" cx="13.2" cy="4.8" r="2.4"></circle>
                <circle id="Oval" fill="#FFFFFF" cx="27.6" cy="4.8" r="2.4"></circle>
                <circle id="Oval" fill="#3E3832" cx="20.4" cy="8.4" r="2.4"></circle>
                <polygon id="Path" fill="#3E3832" points="19.2 9.6 21.6 9.6 21.6 13.2 19.2 13.2"></polygon>
                <circle id="Oval" fill="#78706A" cx="13.2" cy="6" r="1.2"></circle>
                <circle id="Oval" fill="#78706A" cx="27.6" cy="6" r="1.2"></circle>
                <path d="M8.491,1.882 L9.275,2.706 C9.70824045,3.16952765 9.70824045,3.88947235 9.275,4.353 L3.786,10.118 C2.92,11.028 1.516,11.028 0.65,10.118 C-0.21598951,9.19075087 -0.21598951,7.75124913 0.65,6.824 L5.354,1.882 C6.221,0.972 7.624,0.972 8.491,1.882 Z M32.309,1.882 C33.175,0.972 34.579,0.972 35.446,1.882 L40.15,6.824 C41.017,7.734 41.017,9.208 40.15,10.118 C39.284,11.028 37.88,11.028 37.014,10.118 L31.524,4.353 C31.0907595,3.88947235 31.0907595,3.16952765 31.524,2.706 L32.309,1.882 L32.309,1.882 Z" id="Shape" fill="#3E3832"></path>
                <path d="M18,31.2 L22.8,31.2 C23.4627417,31.2 24,31.7372583 24,32.4 L24,34.2 C24,35.8568542 22.6568542,37.2 21,37.2 L19.8,37.2 C18.1431458,37.2 16.8,35.8568542 16.8,34.2 L16.8,32.4 C16.8,31.7372583 17.3372583,31.2 18,31.2 L18,31.2 Z" id="Path" fill="#F5E3E0"></path>
                <path d="M25.2,30 C25.8627417,30 26.4,30.5372583 26.4,31.2 C26.4,31.8627417 25.8627417,32.4 25.2,32.4 C24.5372583,32.4 24,31.8627417 24,31.2 L16.8,31.2 C16.8,31.8627417 16.2627417,32.4 15.6,32.4 C14.9372583,32.4 14.4,31.8627417 14.4,31.2 C14.4,30.5372583 14.9372583,30 15.6,30 C14.9372583,30 14.4,29.4627417 14.4,28.8 C14.4,28.1372583 14.9372583,27.6 15.6,27.6 C16.2627417,27.6 16.8,28.1372583 16.8,28.8 L24,28.8 C24,28.1372583 24.5372583,27.6 25.2,27.6 C25.8627417,27.6 26.4,28.1372583 26.4,28.8 C26.4,29.4627417 25.8627417,30 25.2,30 Z" id="Path" fill="#FFFFFF"></path>
            </g>
            <g id="Group" transform="translate(0.000000, 7.000000)" fill-rule="nonzero">
                <path d="M41.234,93.711 L43.428,89.307 C43.598,88.939 44.433,87.237 43.688,86.35 C42.9415153,85.4614903 41.616405,85.3455823 40.727,86.091 L34.333,93.296 C34.05,93.456 33.739,93.632 33.4,93.826 L33.4,109.6 L49.755,109.6 C50.5922637,109.6 51.271,108.921264 51.271,108.084 C51.271,107.246736 50.5922637,106.568 49.755,106.568 L46.921,106.568 L46.921,105.811 L53.409,105.811 C54.225,105.811 54.884,105.131 54.884,104.295 C54.884,103.458 54.224,102.779 53.409,102.779 L46.921,102.779 L46.921,102.021 L55.666,102.021 C56.481,102.021 57.142,101.342 57.142,100.505 C57.142,99.668 56.481,98.99 55.666,98.99 L46.92,98.99 L46.92,98.232 L56.89,98.232 C57.834,98.232 58.599,97.553 58.599,96.716 C58.599,95.878 57.834,95.2 56.891,95.2 L43.8,95.2 C42.9575265,94.6818288 42.1019123,94.1853325 41.234,93.711 L41.234,93.711 Z" id="Path" fill="#E6E5E2"></path>
                <g transform="translate(20.600000, 55.400000) scale(-1, 1) translate(-20.600000, -55.400000) translate(0.600000, 0.400000)">
                    <polygon id="Path" fill="#979797" points="28.8 109.2 26.4 109.2 26.4 34.8 28.8 34.8"></polygon>
                    <path d="M18.014,4.79989091 L37.186,4.79989091 C37.9088337,4.79857705 38.5940394,5.12207674 39.0522724,5.68110543 C39.5105053,6.24013412 39.6932471,6.97550103 39.55,7.684 C38.5950307,12.2611987 38.1118379,16.9242434 38.108,21.6 C38.108,26.239 38.588,30.877 39.55,35.516 C39.695966,36.224871 39.5142465,36.9617583 39.0554379,37.5214893 C38.5966292,38.0812203 37.909732,38.404016 37.186,38.4001091 L18.014,38.4001091 C17.2911663,38.401423 16.6059606,38.0779233 16.1477276,37.5188946 C15.6894947,36.9598659 15.5067529,36.224499 15.65,35.516 C16.6049693,30.9388013 17.0881621,26.2757566 17.092,21.6 C17.092,16.961 16.612,12.323 15.65,7.684 C15.504034,6.97512901 15.6857535,6.23824172 16.1445621,5.67851072 C16.6033708,5.11877971 17.290268,4.79598398 18.014,4.79989091 Z" id="Path" fill="#C6C2BF"></path>
                    <path d="M35.863,22.8 C35.863,26.716 36.299,30.631 37.172,34.547 C37.316,35.195 36.891,35.833 36.222,35.973 C36.1358285,35.9909924 36.0480298,36.0000001 35.96,36.0000001 L19.24,36.0000001 C18.555,36.0000001 18,35.463 18,34.8 C18,34.715 18.01,34.63 18.028,34.547 C18.8939564,30.6912117 19.3329322,26.7518309 19.337,22.8 L35.863,22.8 Z" id="Path" fill="#C2EAF7"></path>
                    <path d="M27.6,7.2 C26.7425626,7.2 25.9502577,6.7425626 25.521539,6.00000001 C25.0928203,5.25743742 25.0928203,4.34256258 25.521539,3.59999999 C25.9502577,2.8574374 26.7425626,2.4 27.6,2.4 C28.9254834,2.4 30,3.4745166 30,4.8 C30,6.1254834 28.9254834,7.2 27.6,7.2 L27.6,7.2 Z M27.6,6.24 C28.1144625,6.24 28.5898454,5.96553756 28.8470766,5.52000001 C29.1043078,5.07446245 29.1043078,4.52553755 28.8470766,4.07999999 C28.5898454,3.63446244 28.1144625,3.36 27.6,3.36 C26.80471,3.36 26.16,4.00470996 26.16,4.8 C26.16,5.59529004 26.80471,6.24 27.6,6.24 L27.6,6.24 Z" id="Shape" fill="#C6C2BF"></path>
                    <path d="M20.177,16.034 L19.06,18 C19.06,14.864 18.716,11.727 18.028,8.59 C17.9543648,8.24864417 18.0401062,7.89233117 18.2609727,7.62184278 C18.4818391,7.35135439 18.8138142,7.19610268 19.163,7.19979263 L25.2,7.19979263 L24.547,8.348 L19.162,8.348 C19.724,10.908 20.062,13.471 20.177,16.034 Z M19.06,18 C19.06,14.864 18.716,11.727 18.028,8.59 C17.9543648,8.24864417 18.0401062,7.89233117 18.2609727,7.62184278 C18.4818391,7.35135439 18.8138142,7.19610268 19.163,7.19979263 L25.2,7.19979263 L24.547,8.348 L19.162,8.348 C19.724,10.908 20.062,13.471 20.177,16.034 L19.06,18 Z" id="Shape" fill="#FFFFFF"></path>
                    <polygon id="Path" fill="#C6C2BF" points="24 36 31.2 36 31.2 42 24 42"></polygon>
                    <polygon id="Path" fill="#C2EAF7" points="26.4 36 28.8 36 28.8 42 26.4 42"></polygon>
                    <path d="M25.8,16.8 C25.4686292,16.8 25.2,16.5313708 25.2,16.2 C25.2,15.8686292 25.4686292,15.6 25.8,15.6 L29.4,15.6 C29.7313708,15.6 30,15.8686292 30,16.2 C30,16.5313708 29.7313708,16.8 29.4,16.8 L25.8,16.8 Z M25.8,21.6 C25.4686292,21.6 25.2,21.3313708 25.2,21 C25.2,20.6686292 25.4686292,20.4 25.8,20.4 L29.4,20.4 C29.7313708,20.4 30,20.6686292 30,21 C30,21.3313708 29.7313708,21.6 29.4,21.6 L25.8,21.6 L25.8,21.6 Z M25.8,26.4 C25.4686292,26.4 25.2,26.1313708 25.2,25.8 C25.2,25.4686292 25.4686292,25.2 25.8,25.2 L29.4,25.2 C29.7313708,25.2 30,25.4686292 30,25.8 C30,26.1313708 29.7313708,26.4 29.4,26.4 L25.8,26.4 Z M25.8,31.2 C25.4686292,31.2 25.2,30.9313708 25.2,30.6 C25.2,30.2686292 25.4686292,30 25.8,30 L29.4,30 C29.7313708,30 30,30.2686292 30,30.6 C30,30.9313708 29.7313708,31.2 29.4,31.2 L25.8,31.2 Z M25.8,12 C25.4686292,12 25.2,11.7313708 25.2,11.4 C25.2,11.0686292 25.4686292,10.8 25.8,10.8 L29.4,10.8 C29.7313708,10.8 30,11.0686292 30,11.4 C30,11.7313708 29.7313708,12 29.4,12 L25.8,12 Z" id="Shape" fill="#78706A"></path>
                    <path d="M27.6,1.2 L27.6,3.6 L27.6,1.2 Z M27.6,0 C28.2627417,0 28.8,0.5372583 28.8,1.2 L28.8,3.6 C28.8,4.2627417 28.2627417,4.8 27.6,4.8 C26.9372583,4.8 26.4,4.2627417 26.4,3.6 L26.4,1.2 C26.4,0.881740212 26.5264282,0.576515517 26.7514719,0.351471863 C26.9765155,0.126428208 27.2817402,0 27.6,0 L27.6,0 Z" id="Shape" fill="#979797"></path>
                    <path d="M26.44,42 L27.6,42 C27.6,62.285 25.914,78.433 22.536,90.45 C19.088,102.721 12.697,106.972 3.6,102.903 L4.064,101.813 C12.442,105.561 18.15,101.765 21.422,90.122 C24.766,78.226 26.441,62.183 26.441,42 L26.44,42 Z" id="Path" fill="#C6C2BF"></path>
                    <rect id="Rectangle" fill="#FFFFFF" transform="translate(6.197000, 103.673000) rotate(12.000000) translate(-6.197000, -103.673000) " x="3.797" y="102.473" width="4.8" height="2.4" rx="1.2"></rect>
                    <path d="M1.2,99.6 L3.6,99.6 C4.2627417,99.6 4.8,100.137258 4.8,100.8 L4.8,105.6 C4.8,106.262742 4.2627417,106.8 3.6,106.8 L1.2,106.8 C0.5372583,106.8 0,106.262742 0,105.6 L0,100.8 C0,100.137258 0.5372583,99.6 1.2,99.6 Z" id="Path" fill="#FFBD66"></path>
                    <polygon id="Path" fill="#FCDCB3" points="1.2 100.8 3.6 100.8 3.6 105.6 1.2 105.6"></polygon>
                    <polygon id="Path" fill="#D8D8D8" points="26.4 46.8 28.8 46.8 28.8 51.6 26.4 51.6"></polygon>
                    <circle id="Oval" fill="#D8D8D8" cx="26.4" cy="49.2" r="1.2"></circle>
                </g>
            </g>
            <g id="Group" transform="translate(91.000000, 79.000000)" fill-rule="nonzero">
                <path d="M3.6,10 C4.925,10 5.725,9.211 6,7.633 L20.4,7.6 C20.675,9.2 21.475,10 22.8,10 C24.7882251,10 26.4,11.6117749 26.4,13.6 L26.4,34 C26.4,35.9882251 24.7882251,37.6 22.8,37.6 L3.6,37.6 C1.6117749,37.6 0,35.9882251 0,34 L0,13.6 C0,11.6117749 1.6117749,10 3.6,10 L3.6,10 Z" id="Path" fill="#285835"></path>
                <path d="M6,0.4 L20.4,0.4 C21.0627417,0.4 21.6,0.9372583 21.6,1.6 L21.6,6.4 C21.6,7.0627417 21.0627417,7.6 20.4,7.6 L6,7.6 C5.3372583,7.6 4.8,7.0627417 4.8,6.4 L4.8,1.6 C4.8,0.9372583 5.3372583,0.4 6,0.4 Z M0,16 L16.8,16 L16.8,29.2 L0,29.2 L0,16 Z" id="Shape" fill="#E7E9E9"></path>
                <path d="M16.8,37.6 L16.8,32.8 L20.4,32.8 C21.7254834,32.8 22.8,33.8745166 22.8,35.2 C22.8,36.5254834 21.7254834,37.6 20.4,37.6 L16.8,37.6 Z" id="Path" fill="#FF9100"></path>
                <path d="M16.8,37.6 L16.8,32.8 L13.2,32.8 C11.8745166,32.8 10.8,33.8745166 10.8,35.2 C10.8,36.5254834 11.8745166,37.6 13.2,37.6 L16.8,37.6 Z" id="Path" fill="#D8D8D8"></path>
                <path d="M12.396,35.157 L9.996,31 L13.114,29.2 C13.8565765,28.7712813 14.7714643,28.7712887 15.5140339,29.2000195 C16.2566034,29.6287502 16.7140339,30.42107 16.7140339,31.2785195 C16.7140339,32.135969 16.2565766,32.9282813 15.514,33.357 L12.396,35.157 Z" id="Path" fill="#FF9100"></path>
                <path d="M12.396,35.157 L9.996,31 L6.878,32.8 C5.73007615,33.4627417 5.3367583,34.9305761 5.9995,36.0785 C6.6622417,37.2264239 8.13007615,37.6197417 9.278,36.957 L12.396,35.157 Z M22.8,16 L24,16 L24,28 L22.8,28 L22.8,16 Z" id="Shape" fill="#FFFFFF"></path>
            </g>
        </g>
    </g>
</svg>